<svg width="100" height="205" viewBox="0 0 100 205" fill="none" xmlns="http://www.w3.org/2000/svg">
<path fill-rule="evenodd" clip-rule="evenodd" d="M26.1281 3.75467C28.2942 6.32815 29.2875 8.94313 29.2875 12.0706C29.2875 16.0718 29.8061 16.8783 33.5122 18.6465L37.7381 20.6611L36.5935 17.652C35.4317 14.5953 36.1969 7.72045 37.8101 6.72351C38.297 6.42211 39.9786 7.54229 41.5479 9.2128C43.7872 11.5959 44.401 13.6215 44.401 18.6269C44.401 23.5689 44.9648 25.4761 46.9112 27.1039C50.1756 29.8336 51.1628 29.8129 50.4343 27.0307C50.1109 25.7897 50.7479 22.633 51.8523 20.0143L53.8597 15.253L56.2173 18.134C58.7641 21.2456 59.4011 29.1222 57.4071 32.8488C56.4956 34.551 57.0166 35.7762 59.7745 38.418C62.5971 41.1208 63.1938 41.3417 62.735 39.5113C62.0101 36.6254 66.2263 28.6756 68.4827 28.6756C69.4089 28.6756 70.6634 30.6817 71.2699 33.1331C72.1485 36.6889 71.8788 38.5851 69.9361 42.5107L67.5015 47.4307L70.0557 51.4757L72.6086 55.5208L72.9783 52.3311C73.3468 49.1561 79.9048 41.665 81.1898 42.9512C81.562 43.3221 82.1624 45.4783 82.526 47.743C83.0337 50.912 82.4321 52.9681 79.9097 56.6715C76.8223 61.2059 76.7259 61.7672 78.2183 66.4334C79.4752 70.3589 79.895 70.8275 80.2489 68.697C80.4942 67.2193 82.681 64.2663 85.1094 62.1345L89.5233 58.259L90.5545 61.0473C91.9798 64.8984 89.6502 71.2997 85.5756 74.7286C82.659 77.1813 82.3613 78.0452 83.2472 81.4643L84.2638 85.3862L87.5879 81.8365C89.4171 79.8841 92.1482 77.9317 93.6589 77.4985C96.1154 76.7932 96.4022 77.1361 96.3778 80.759C96.3473 85.219 93.9018 88.8736 88.7777 92.1158C86.143 93.7826 85.4218 95.1725 85.4218 98.5818V102.926L88.1675 100.354C90.7741 97.9119 96.4559 95.1786 98.9246 95.1786C100.574 95.1786 100.332 97.2993 98.157 101.883C96.9672 104.39 94.2105 106.986 90.8351 108.776C87.8576 110.356 85.4218 112.29 85.4218 113.075C85.4218 113.86 85.0618 115.439 84.6225 116.585C83.8891 118.497 84.0624 118.516 86.7581 116.805C90.3104 114.55 97.0966 113.011 98.8111 114.072C100.799 115.299 96.7732 121.835 92.3788 124.513C90.2311 125.824 87.223 126.897 85.6964 126.9C83.8427 126.904 82.526 127.943 81.7304 130.035C80.111 134.295 80.1904 134.5 82.9007 133.049C85.9039 131.442 96.4046 131.394 96.4046 132.986C96.4046 133.648 94.8622 135.914 92.9768 138.025C90.181 141.152 88.187 142.268 82.9812 142.768C77.5374 143.29 78.0999 141.548 75.0272 146.471L73.2773 149.855L76.7991 148.526C79.4069 147.541 81.6193 147.585 85.3266 148.696C89.6282 149.984 90.164 150.509 89.1389 152.424C87.223 156.005 79.8218 158.864 73.619 158.419C69.0233 158.089 67.7627 158.477 66.2849 160.675C64.6204 163.151 64.6729 163.285 67.0659 162.659C70.2607 161.823 80.82 165.725 80.2209 167.52C79.9792 168.248 77.7107 169.916 75.1785 171.229C71.0258 173.385 69.9178 173.47 63.8162 172.104C57.6756 170.73 56.847 170.798 54.803 172.848C52.615 175.042 52.6491 175.108 56.0404 175.227C59.5463 175.351 68.3375 179.992 68.3375 181.719C68.3375 183.301 62.3225 185.476 57.9489 185.476C55.6535 185.476 51.8449 184.555 49.4836 183.429C45.6982 181.624 44.8025 181.589 41.9055 183.124L38.6192 184.866L41.7627 185.241C45.2919 185.66 54.7737 193.294 53.4484 194.649C52.9786 195.131 50.1865 195.796 47.2444 196.128C41.9714 196.722 36.1725 194.773 31.7281 190.914C30.221 189.605 29.3583 189.624 26.8469 191.019C24.3171 192.422 24.1878 192.718 26.0927 192.755C28.7396 192.804 36.6093 200.663 36.6093 203.256C36.6093 204.481 35.1352 205 31.6476 205C25.8694 205 22.7869 203.62 17.5847 198.702C14.0324 195.344 13.5028 195.21 8.43236 196.379C0.879848 198.119 0 198.001 0 195.238C0 193.526 0.818825 192.793 2.7457 192.781C8.3994 192.746 10.9828 191.376 10.9828 188.41C10.9828 183.081 14.767 175.838 18.877 173.297C21.0699 171.943 23.2103 170.833 23.635 170.833C25.1262 170.833 24.3721 181.243 22.6404 184.561C20.91 187.878 21.3957 188.527 24.6674 187.271C25.7852 186.843 26.1867 185.235 25.8645 182.478C25.5973 180.196 26 176.449 26.759 174.15C28.2917 169.508 33.356 164.085 35.134 165.185C37.2586 166.498 37.7857 174.678 36.0175 178.908L34.3078 183L37.1683 181.127C39.7748 179.419 39.9701 178.621 39.3782 172.091C38.8364 166.11 39.1744 164.209 41.4296 160.56C42.9147 158.156 44.5463 156.19 45.0551 156.19C46.827 156.19 48.8125 162.445 48.8125 168.029C48.8125 173.54 48.8601 173.608 51.2079 171.485C53.4021 169.5 53.4533 169.026 51.8181 165.865C49.2652 160.927 49.5264 152.205 52.3318 148.741L54.6297 145.903L57.2082 150.132C58.6262 152.458 59.788 156.267 59.7904 158.598L59.7953 162.835L61.7807 160C63.6417 157.345 63.6026 156.871 61.1706 152.546C57.135 145.365 58.0759 134.058 62.5666 135.781C63.5551 136.16 65.582 138.986 67.0708 142.063C68.5608 145.139 70.279 147.347 70.8891 146.97C72.705 145.848 72.1949 144.238 68.3375 138.913C65.6052 135.143 64.6765 132.513 64.6765 128.552C64.6765 125.105 65.211 123.254 66.2019 123.271C68.8707 123.318 73.0601 127.377 74.8283 131.63L76.5404 135.744L77.3482 132.523C78.0243 129.832 77.3482 128.533 73.2468 124.631C69.0513 120.64 68.3375 119.223 68.3375 114.892C68.3375 112.103 68.7487 109.824 69.2527 109.826C71.1173 109.835 78.2049 114.778 78.8822 116.54C79.9438 119.308 81.7646 118.718 81.734 115.618C81.7157 113.731 80.4783 112.299 77.7802 111.042C70.9599 107.864 65.2342 96.3927 70.473 96.4037C73.7617 96.4098 80.4966 100.977 81.7255 104.033C82.6444 106.319 82.8396 105.915 82.9043 101.585C82.9617 97.6959 82.5114 96.3988 81.1019 96.3988C77.5008 96.3988 70.0288 91.6911 68.5779 88.5075C67.7749 86.7443 67.1171 84.7785 67.1171 84.1391C67.1171 82.3478 72.9246 82.7614 76.9407 84.8383C78.92 85.8621 80.5406 87.3263 80.5406 88.0914C80.5406 88.8577 80.8188 89.2055 81.1593 88.8651C81.4997 88.5258 81.4412 86.5661 81.0299 84.51C80.3771 81.2435 79.6485 80.676 75.2261 79.9878C69.509 79.0995 67.2355 77.6669 64.2397 73.0618C62.231 69.9758 62.2481 69.8354 64.6887 69.1973C67.6309 68.4273 73.8679 70.0014 76.4855 72.1734C78.078 73.4949 78.0939 73.1826 76.6197 69.5707C75.0931 65.8282 74.4598 65.4462 69.4284 65.2339C63.0657 64.9667 59.1815 63.2035 57.3302 59.7453C56.3052 57.832 56.4419 57.1572 57.9685 56.5702C59.0362 56.1615 62.3445 56.1004 65.3221 56.436L70.7366 57.0461L68.7402 53.6673C66.9487 50.635 66.3825 50.4129 63.239 51.5087C58.6555 53.106 52.15 51.8235 49.3946 48.7778C48.1877 47.4453 47.4262 46.164 47.7008 45.9322C47.9766 45.7004 50.0072 44.9023 52.2135 44.1568C54.8591 43.2648 57.2607 43.1977 59.2644 43.9591C61.9748 44.989 62.1749 44.8743 61.1157 42.895C58.6641 38.3155 56.7872 37.6785 51.8352 39.748C46.7184 41.8859 40.2007 41.2953 37.8663 38.4814C36.7143 37.094 37.1536 36.3887 40.1238 34.8524C42.1508 33.8043 45.3321 32.9464 47.1931 32.9464H50.5746L47.8997 30.2717L45.2248 27.5969L39.6235 30.3937C35.4867 32.4596 32.9252 32.9843 29.8244 32.4034C27.5156 31.9702 25.6265 31.1771 25.6265 30.6402C25.6265 29.1551 30.3467 25.2028 33.81 23.7873L36.8912 22.528L33.6855 20.8112C30.7165 19.2224 30.2271 19.3359 27.0934 22.3389C23.2896 25.9825 17.1466 27.6848 14.0507 25.952C12.23 24.9331 12.4362 24.3584 15.8531 20.9417C17.9764 18.8197 20.86 17.0833 22.2634 17.0833C23.6655 17.0833 24.4514 16.7221 24.0084 16.2792C23.5667 15.8375 20.5928 15.5532 17.3992 15.6496C13.3441 15.7704 10.6777 15.1175 8.56049 13.4861C6.89232 12.2012 5.8343 10.843 6.20894 10.4684C6.58357 10.0938 8.49703 9.46539 10.4617 9.07247C13.0842 8.54899 15.2344 9.17375 18.5548 11.4263L23.0761 14.494L21.1358 10.4269C19.2028 6.37452 19.658 0 21.8802 0C22.4794 0 24.3904 1.69003 26.1281 3.75467Z" fill="url(#paint0_linear_116_78)"/>
<path fill-rule="evenodd" clip-rule="evenodd" d="M26.1281 3.75467C28.2942 6.32815 29.2875 8.94313 29.2875 12.0706C29.2875 16.0718 29.8061 16.8783 33.5122 18.6465L37.7381 20.6611L36.5935 17.652C35.4317 14.5953 36.1969 7.72045 37.8101 6.72351C38.297 6.42211 39.9786 7.54229 41.5479 9.2128C43.7872 11.5959 44.401 13.6215 44.401 18.6269C44.401 23.5689 44.9648 25.4761 46.9112 27.1039C50.1756 29.8336 51.1628 29.8129 50.4343 27.0307C50.1109 25.7897 50.7479 22.633 51.8523 20.0143L53.8597 15.253L56.2173 18.134C58.7641 21.2456 59.4011 29.1222 57.4071 32.8488C56.4956 34.551 57.0166 35.7762 59.7745 38.418C62.5971 41.1208 63.1938 41.3417 62.735 39.5113C62.0101 36.6254 66.2263 28.6756 68.4827 28.6756C69.4089 28.6756 70.6634 30.6817 71.2699 33.1331C72.1485 36.6889 71.8788 38.5851 69.9361 42.5107L67.5015 47.4307L70.0557 51.4757L72.6086 55.5208L72.9783 52.3311C73.3468 49.1561 79.9048 41.665 81.1898 42.9512C81.562 43.3221 82.1624 45.4783 82.526 47.743C83.0337 50.912 82.4321 52.9681 79.9097 56.6715C76.8223 61.2059 76.7259 61.7672 78.2183 66.4334C79.4752 70.3589 79.895 70.8275 80.2489 68.697C80.4942 67.2193 82.681 64.2663 85.1094 62.1345L89.5233 58.259L90.5545 61.0473C91.9798 64.8984 89.6502 71.2997 85.5756 74.7286C82.659 77.1813 82.3613 78.0452 83.2472 81.4643L84.2638 85.3862L87.5879 81.8365C89.4171 79.8841 92.1482 77.9317 93.6589 77.4985C96.1154 76.7932 96.4022 77.1361 96.3778 80.759C96.3473 85.219 93.9018 88.8736 88.7777 92.1158C86.143 93.7826 85.4218 95.1725 85.4218 98.5818V102.926L88.1675 100.354C90.7741 97.9119 96.4559 95.1786 98.9246 95.1786C100.574 95.1786 100.332 97.2993 98.157 101.883C96.9672 104.39 94.2105 106.986 90.8351 108.776C87.8576 110.356 85.4218 112.29 85.4218 113.075C85.4218 113.86 85.0618 115.439 84.6225 116.585C83.8891 118.497 84.0624 118.516 86.7581 116.805C90.3104 114.55 97.0966 113.011 98.8111 114.072C100.799 115.299 96.7732 121.835 92.3788 124.513C90.2311 125.824 87.223 126.897 85.6964 126.9C83.8427 126.904 82.526 127.943 81.7304 130.035C80.111 134.295 80.1904 134.5 82.9007 133.049C85.9039 131.442 96.4046 131.394 96.4046 132.986C96.4046 133.648 94.8622 135.914 92.9768 138.025C90.181 141.152 88.187 142.268 82.9812 142.768C77.5374 143.29 78.0999 141.548 75.0272 146.471L73.2773 149.855L76.7991 148.526C79.4069 147.541 81.6193 147.585 85.3266 148.696C89.6282 149.984 90.164 150.509 89.1389 152.424C87.223 156.005 79.8218 158.864 73.619 158.419C69.0233 158.089 67.7627 158.477 66.2849 160.675C64.6204 163.151 64.6729 163.285 67.0659 162.659C70.2607 161.823 80.82 165.725 80.2209 167.52C79.9792 168.248 77.7107 169.916 75.1785 171.229C71.0258 173.385 69.9178 173.47 63.8162 172.104C57.6756 170.73 56.847 170.798 54.803 172.848C52.615 175.042 52.6491 175.108 56.0404 175.227C59.5463 175.351 68.3375 179.992 68.3375 181.719C68.3375 183.301 62.3225 185.476 57.9489 185.476C55.6535 185.476 51.8449 184.555 49.4836 183.429C45.6982 181.624 44.8025 181.589 41.9055 183.124L38.6192 184.866L41.7627 185.241C45.2919 185.66 54.7737 193.294 53.4484 194.649C52.9786 195.131 50.1865 195.796 47.2444 196.128C41.9714 196.722 36.1725 194.773 31.7281 190.914C30.221 189.605 29.3583 189.624 26.8469 191.019C24.3171 192.422 24.1878 192.718 26.0927 192.755C28.7396 192.804 36.6093 200.663 36.6093 203.256C36.6093 204.481 35.1352 205 31.6476 205C25.8694 205 22.7869 203.62 17.5847 198.702C14.0324 195.344 13.5028 195.21 8.43236 196.379C0.879848 198.119 0 198.001 0 195.238C0 193.526 0.818825 192.793 2.7457 192.781C8.3994 192.746 10.9828 191.376 10.9828 188.41C10.9828 183.081 14.767 175.838 18.877 173.297C21.0699 171.943 23.2103 170.833 23.635 170.833C25.1262 170.833 24.3721 181.243 22.6404 184.561C20.91 187.878 21.3957 188.527 24.6674 187.271C25.7852 186.843 26.1867 185.235 25.8645 182.478C25.5973 180.196 26 176.449 26.759 174.15C28.2917 169.508 33.356 164.085 35.134 165.185C37.2586 166.498 37.7857 174.678 36.0175 178.908L34.3078 183L37.1683 181.127C39.7748 179.419 39.9701 178.621 39.3782 172.091C38.8364 166.11 39.1744 164.209 41.4296 160.56C42.9147 158.156 44.5463 156.19 45.0551 156.19C46.827 156.19 48.8125 162.445 48.8125 168.029C48.8125 173.54 48.8601 173.608 51.2079 171.485C53.4021 169.5 53.4533 169.026 51.8181 165.865C49.2652 160.927 49.5264 152.205 52.3318 148.741L54.6297 145.903L57.2082 150.132C58.6262 152.458 59.788 156.267 59.7904 158.598L59.7953 162.835L61.7807 160C63.6417 157.345 63.6026 156.871 61.1706 152.546C57.135 145.365 58.0759 134.058 62.5666 135.781C63.5551 136.16 65.582 138.986 67.0708 142.063C68.5608 145.139 70.279 147.347 70.8891 146.97C72.705 145.848 72.1949 144.238 68.3375 138.913C65.6052 135.143 64.6765 132.513 64.6765 128.552C64.6765 125.105 65.211 123.254 66.2019 123.271C68.8707 123.318 73.0601 127.377 74.8283 131.63L76.5404 135.744L77.3482 132.523C78.0243 129.832 77.3482 128.533 73.2468 124.631C69.0513 120.64 68.3375 119.223 68.3375 114.892C68.3375 112.103 68.7487 109.824 69.2527 109.826C71.1173 109.835 78.2049 114.778 78.8822 116.54C79.9438 119.308 81.7646 118.718 81.734 115.618C81.7157 113.731 80.4783 112.299 77.7802 111.042C70.9599 107.864 65.2342 96.3927 70.473 96.4037C73.7617 96.4098 80.4966 100.977 81.7255 104.033C82.6444 106.319 82.8396 105.915 82.9043 101.585C82.9617 97.6959 82.5114 96.3988 81.1019 96.3988C77.5008 96.3988 70.0288 91.6911 68.5779 88.5075C67.7749 86.7443 67.1171 84.7785 67.1171 84.1391C67.1171 82.3478 72.9246 82.7614 76.9407 84.8383C78.92 85.8621 80.5406 87.3263 80.5406 88.0914C80.5406 88.8577 80.8188 89.2055 81.1593 88.8651C81.4997 88.5258 81.4412 86.5661 81.0299 84.51C80.3771 81.2435 79.6485 80.676 75.2261 79.9878C69.509 79.0995 67.2355 77.6669 64.2397 73.0618C62.231 69.9758 62.2481 69.8354 64.6887 69.1973C67.6309 68.4273 73.8679 70.0014 76.4855 72.1734C78.078 73.4949 78.0939 73.1826 76.6197 69.5707C75.0931 65.8282 74.4598 65.4462 69.4284 65.2339C63.0657 64.9667 59.1815 63.2035 57.3302 59.7453C56.3052 57.832 56.4419 57.1572 57.9685 56.5702C59.0362 56.1615 62.3445 56.1004 65.3221 56.436L70.7366 57.0461L68.7402 53.6673C66.9487 50.635 66.3825 50.4129 63.239 51.5087C58.6555 53.106 52.15 51.8235 49.3946 48.7778C48.1877 47.4453 47.4262 46.164 47.7008 45.9322C47.9766 45.7004 50.0072 44.9023 52.2135 44.1568C54.8591 43.2648 57.2607 43.1977 59.2644 43.9591C61.9748 44.989 62.1749 44.8743 61.1157 42.895C58.6641 38.3155 56.7872 37.6785 51.8352 39.748C46.7184 41.8859 40.2007 41.2953 37.8663 38.4814C36.7143 37.094 37.1536 36.3887 40.1238 34.8524C42.1508 33.8043 45.3321 32.9464 47.1931 32.9464H50.5746L47.8997 30.2717L45.2248 27.5969L39.6235 30.3937C35.4867 32.4596 32.9252 32.9843 29.8244 32.4034C27.5156 31.9702 25.6265 31.1771 25.6265 30.6402C25.6265 29.1551 30.3467 25.2028 33.81 23.7873L36.8912 22.528L33.6855 20.8112C30.7165 19.2224 30.2271 19.3359 27.0934 22.3389C23.2896 25.9825 17.1466 27.6848 14.0507 25.952C12.23 24.9331 12.4362 24.3584 15.8531 20.9417C17.9764 18.8197 20.86 17.0833 22.2634 17.0833C23.6655 17.0833 24.4514 16.7221 24.0084 16.2792C23.5667 15.8375 20.5928 15.5532 17.3992 15.6496C13.3441 15.7704 10.6777 15.1175 8.56049 13.4861C6.89232 12.2012 5.8343 10.843 6.20894 10.4684C6.58357 10.0938 8.49703 9.46539 10.4617 9.07247C13.0842 8.54899 15.2344 9.17375 18.5548 11.4263L23.0761 14.494L21.1358 10.4269C19.2028 6.37452 19.658 0 21.8802 0C22.4794 0 24.3904 1.69003 26.1281 3.75467Z" fill="url(#paint1_radial_116_78)" fill-opacity="0.2"/>
<defs>
<linearGradient id="paint0_linear_116_78" x1="50" y1="0" x2="50" y2="205" gradientUnits="userSpaceOnUse">
<stop stop-color="#EED273"/>
<stop offset="1" stop-color="#9E3900"/>
</linearGradient>
<radialGradient id="paint1_radial_116_78" cx="0" cy="0" r="1" gradientUnits="userSpaceOnUse" gradientTransform="translate(50 102.5) rotate(32.7955) scale(118.275 57.69)">
<stop stop-color="#FFF882"/>
<stop offset="1" stop-color="#EECF7F"/>
</radialGradient>
</defs>
</svg>
