<svg width="100" height="205" viewBox="0 0 100 205" fill="none" xmlns="http://www.w3.org/2000/svg">
<path fill-rule="evenodd" clip-rule="evenodd" d="M73.8719 3.75467C71.7059 6.32815 70.7125 8.94313 70.7125 12.0706C70.7125 16.0718 70.1939 16.8783 66.4878 18.6465L62.2619 20.6611L63.4065 17.652C64.5683 14.5953 63.8031 7.72045 62.1899 6.72351C61.703 6.42211 60.0214 7.54229 58.4521 9.2128C56.2128 11.5959 55.599 13.6215 55.599 18.6269C55.599 23.5689 55.0352 25.4761 53.0888 27.1039C49.8244 29.8336 48.8372 29.8129 49.5657 27.0307C49.8891 25.7897 49.2521 22.633 48.1477 20.0143L46.1403 15.253L43.7827 18.134C41.2359 21.2456 40.5989 29.1222 42.5929 32.8488C43.5044 34.551 42.9834 35.7762 40.2255 38.418C37.4029 41.1208 36.8062 41.3417 37.265 39.5113C37.9899 36.6254 33.7737 28.6756 31.5173 28.6756C30.5911 28.6756 29.3366 30.6817 28.7301 33.1331C27.8515 36.6889 28.1212 38.5852 30.0639 42.5107L32.4985 47.4307L29.9443 51.4757L27.3914 55.5208L27.0217 52.3311C26.6532 49.1561 20.0952 41.665 18.8102 42.9512C18.438 43.3221 17.8376 45.4783 17.474 47.743C16.9663 50.912 17.5679 52.9681 20.0903 56.6715C23.1777 61.2059 23.2741 61.7672 21.7817 66.4334C20.5248 70.3589 20.105 70.8275 19.7511 68.697C19.5058 67.2193 17.319 64.2663 14.8906 62.1345L10.4767 58.259L9.44554 61.0473C8.02022 64.8984 10.3498 71.2997 14.4244 74.7286C17.341 77.1813 17.6387 78.0452 16.7528 81.4643L15.7362 85.3862L12.4121 81.8365C10.5829 79.8841 7.85181 77.9317 6.34107 77.4985C3.88458 76.7932 3.59781 77.1361 3.62221 80.759C3.65272 85.219 6.09823 88.8736 11.2223 92.1158C13.857 93.7826 14.5782 95.1725 14.5782 98.5818V102.926L11.8325 100.354C9.22589 97.9119 3.54411 95.1786 1.07542 95.1786C-0.57444 95.1786 -0.331598 97.2993 1.843 101.883C3.0328 104.39 5.78949 106.986 9.16487 108.776C12.1424 110.356 14.5782 112.29 14.5782 113.075C14.5782 113.86 14.9382 115.439 15.3775 116.585C16.1109 118.497 15.9376 118.516 13.2419 116.805C9.6896 114.55 2.90345 113.011 1.18891 114.072C-0.798977 115.299 3.22683 121.835 7.62117 124.513C9.76892 125.824 12.777 126.897 14.3036 126.9C16.1573 126.904 17.474 127.943 18.2696 130.035C19.889 134.295 19.8096 134.5 17.0993 133.049C14.0961 131.442 3.59537 131.394 3.59537 132.986C3.59537 133.648 5.13784 135.914 7.02322 138.025C9.81896 141.152 11.813 142.268 17.0188 142.768C22.4626 143.29 21.9001 141.548 24.9728 146.471L26.7227 149.855L23.2009 148.526C20.5931 147.541 18.3807 147.585 14.6734 148.696C10.3718 149.984 9.83604 150.509 10.8611 152.424C12.777 156.005 20.1782 158.864 26.381 158.419C30.9767 158.089 32.2373 158.477 33.7151 160.675C35.3796 163.151 35.3271 163.285 32.9341 162.659C29.7393 161.823 19.18 165.725 19.7791 167.52C20.0208 168.248 22.2893 169.916 24.8215 171.229C28.9742 173.385 30.0822 173.47 36.1838 172.104C42.3244 170.73 43.153 170.798 45.197 172.848C47.385 175.042 47.3509 175.108 43.9596 175.227C40.4537 175.351 31.6625 179.992 31.6625 181.719C31.6625 183.301 37.6775 185.476 42.0511 185.476C44.3465 185.476 48.1551 184.555 50.5164 183.429C54.3018 181.624 55.1975 181.589 58.0945 183.124L61.3808 184.866L58.2373 185.241C54.7081 185.66 45.2263 193.294 46.5516 194.649C47.0214 195.131 49.8135 195.796 52.7556 196.128C58.0286 196.722 63.8275 194.773 68.2719 190.914C69.779 189.605 70.6417 189.624 73.1531 191.019C75.6829 192.422 75.8122 192.718 73.9073 192.755C71.2604 192.804 63.3907 200.663 63.3907 203.256C63.3907 204.481 64.8648 205 68.3524 205C74.1306 205 77.2131 203.62 82.4153 198.702C85.9676 195.344 86.4972 195.21 91.5676 196.379C99.1202 198.119 100 198.001 100 195.238C100 193.526 99.1812 192.793 97.2543 192.781C91.6006 192.746 89.0172 191.376 89.0172 188.41C89.0172 183.081 85.233 175.838 81.123 173.297C78.9301 171.943 76.7897 170.833 76.365 170.833C74.8738 170.833 75.6279 181.243 77.3596 184.561C79.09 187.878 78.6043 188.527 75.3326 187.271C74.2148 186.843 73.8133 185.235 74.1355 182.478C74.4027 180.196 74 176.449 73.241 174.15C71.7083 169.508 66.644 164.085 64.866 165.185C62.7414 166.498 62.2143 174.678 63.9825 178.908L65.6922 183L62.8317 181.127C60.2252 179.419 60.0299 178.621 60.6218 172.091C61.1636 166.11 60.8256 164.209 58.5704 160.56C57.0853 158.156 55.4537 156.19 54.9449 156.19C53.173 156.19 51.1875 162.445 51.1875 168.029C51.1875 173.54 51.1399 173.608 48.7921 171.485C46.5979 169.5 46.5467 169.026 48.1819 165.865C50.7348 160.927 50.4737 152.205 47.6682 148.741L45.3703 145.903L42.7918 150.132C41.3738 152.458 40.212 156.267 40.2096 158.598L40.2047 162.835L38.2193 160C36.3583 157.345 36.3974 156.871 38.8294 152.546C42.865 145.365 41.9241 134.058 37.4334 135.781C36.4449 136.16 34.418 138.986 32.9292 142.063C31.4392 145.139 29.721 147.347 29.1109 146.97C27.295 145.848 27.8051 144.238 31.6625 138.913C34.3948 135.143 35.3235 132.513 35.3235 128.552C35.3235 125.105 34.789 123.254 33.7981 123.271C31.1293 123.318 26.9399 127.377 25.1717 131.63L23.4596 135.744L22.6518 132.523C21.9757 129.832 22.6518 128.533 26.7532 124.631C30.9487 120.64 31.6625 119.223 31.6625 114.892C31.6625 112.103 31.2513 109.824 30.7473 109.826C28.8827 109.835 21.7951 114.778 21.1178 116.54C20.0562 119.308 18.2354 118.718 18.266 115.618C18.2843 113.731 19.5217 112.299 22.2198 111.042C29.0401 107.864 34.7658 96.3927 29.527 96.4037C26.2383 96.4098 19.5034 100.977 18.2745 104.033C17.3556 106.319 17.1604 105.915 17.0957 101.585C17.0383 97.6959 17.4886 96.3988 18.8981 96.3988C22.4992 96.3988 29.9712 91.6911 31.4221 88.5075C32.2251 86.7443 32.8829 84.7785 32.8829 84.1391C32.8829 82.3478 27.0754 82.7614 23.0593 84.8383C21.08 85.8621 19.4594 87.3263 19.4594 88.0914C19.4594 88.8577 19.1812 89.2055 18.8407 88.8651C18.5003 88.5258 18.5588 86.5661 18.9701 84.51C19.6229 81.2435 20.3515 80.676 24.7739 79.9878C30.491 79.0995 32.7645 77.6669 35.7603 73.0618C37.769 69.9758 37.7519 69.8354 35.3113 69.1973C32.3691 68.4273 26.1321 70.0014 23.5145 72.1734C21.922 73.4949 21.9061 73.1826 23.3803 69.5707C24.9069 65.8282 25.5402 65.4462 30.5716 65.2339C36.9343 64.9667 40.8185 63.2035 42.6698 59.7453C43.6948 57.832 43.5581 57.1572 42.0315 56.5702C40.9638 56.1615 37.6555 56.1004 34.6779 56.436L29.2634 57.0461L31.2598 53.6673C33.0513 50.635 33.6175 50.4129 36.761 51.5087C41.3445 53.106 47.85 51.8235 50.6054 48.7778C51.8123 47.4453 52.5738 46.164 52.2992 45.9322C52.0234 45.7004 49.9928 44.9023 47.7865 44.1568C45.1409 43.2648 42.7393 43.1977 40.7356 43.9591C38.0252 44.989 37.8251 44.8743 38.8843 42.895C41.336 38.3155 43.2128 37.6785 48.1648 39.748C53.2816 41.8859 59.7993 41.2953 62.1337 38.4814C63.2857 37.094 62.8464 36.3887 59.8762 34.8524C57.8492 33.8043 54.6679 32.9464 52.8069 32.9464H49.4254L52.1003 30.2717L54.7752 27.5969L60.3765 30.3937C64.5133 32.4596 67.0748 32.9843 70.1756 32.4034C72.4844 31.9702 74.3735 31.1771 74.3735 30.6402C74.3735 29.1551 69.6533 25.2028 66.19 23.7873L63.1088 22.528L66.3145 20.8112C69.2835 19.2224 69.7729 19.3359 72.9066 22.3389C76.7104 25.9825 82.8534 27.6848 85.9493 25.952C87.77 24.9331 87.5638 24.3584 84.1469 20.9417C82.0236 18.8197 79.14 17.0833 77.7366 17.0833C76.3345 17.0833 75.5486 16.7221 75.9916 16.2792C76.4333 15.8375 79.4072 15.5532 82.6008 15.6496C86.6559 15.7704 89.3223 15.1175 91.4395 13.4861C93.1077 12.2012 94.1657 10.843 93.7911 10.4684C93.4164 10.0938 91.503 9.46539 89.5383 9.07247C86.9158 8.54899 84.7656 9.17375 81.4452 11.4263L76.9239 14.494L78.8642 10.4269C80.7972 6.37452 80.342 0 78.1198 0C77.5206 0 75.6096 1.69003 73.8719 3.75467Z" fill="url(#paint0_linear_116_76)"/>
<path fill-rule="evenodd" clip-rule="evenodd" d="M73.8719 3.75467C71.7059 6.32815 70.7125 8.94313 70.7125 12.0706C70.7125 16.0718 70.1939 16.8783 66.4878 18.6465L62.2619 20.6611L63.4065 17.652C64.5683 14.5953 63.8031 7.72045 62.1899 6.72351C61.703 6.42211 60.0214 7.54229 58.4521 9.2128C56.2128 11.5959 55.599 13.6215 55.599 18.6269C55.599 23.5689 55.0352 25.4761 53.0888 27.1039C49.8244 29.8336 48.8372 29.8129 49.5657 27.0307C49.8891 25.7897 49.2521 22.633 48.1477 20.0143L46.1403 15.253L43.7827 18.134C41.2359 21.2456 40.5989 29.1222 42.5929 32.8488C43.5044 34.551 42.9834 35.7762 40.2255 38.418C37.4029 41.1208 36.8062 41.3417 37.265 39.5113C37.9899 36.6254 33.7737 28.6756 31.5173 28.6756C30.5911 28.6756 29.3366 30.6817 28.7301 33.1331C27.8515 36.6889 28.1212 38.5852 30.0639 42.5107L32.4985 47.4307L29.9443 51.4757L27.3914 55.5208L27.0217 52.3311C26.6532 49.1561 20.0952 41.665 18.8102 42.9512C18.438 43.3221 17.8376 45.4783 17.474 47.743C16.9663 50.912 17.5679 52.9681 20.0903 56.6715C23.1777 61.2059 23.2741 61.7672 21.7817 66.4334C20.5248 70.3589 20.105 70.8275 19.7511 68.697C19.5058 67.2193 17.319 64.2663 14.8906 62.1345L10.4767 58.259L9.44554 61.0473C8.02022 64.8984 10.3498 71.2997 14.4244 74.7286C17.341 77.1813 17.6387 78.0452 16.7528 81.4643L15.7362 85.3862L12.4121 81.8365C10.5829 79.8841 7.85181 77.9317 6.34107 77.4985C3.88458 76.7932 3.59781 77.1361 3.62221 80.759C3.65272 85.219 6.09823 88.8736 11.2223 92.1158C13.857 93.7826 14.5782 95.1725 14.5782 98.5818V102.926L11.8325 100.354C9.22589 97.9119 3.54411 95.1786 1.07542 95.1786C-0.57444 95.1786 -0.331598 97.2993 1.843 101.883C3.0328 104.39 5.78949 106.986 9.16487 108.776C12.1424 110.356 14.5782 112.29 14.5782 113.075C14.5782 113.86 14.9382 115.439 15.3775 116.585C16.1109 118.497 15.9376 118.516 13.2419 116.805C9.6896 114.55 2.90345 113.011 1.18891 114.072C-0.798977 115.299 3.22683 121.835 7.62117 124.513C9.76892 125.824 12.777 126.897 14.3036 126.9C16.1573 126.904 17.474 127.943 18.2696 130.035C19.889 134.295 19.8096 134.5 17.0993 133.049C14.0961 131.442 3.59537 131.394 3.59537 132.986C3.59537 133.648 5.13784 135.914 7.02322 138.025C9.81896 141.152 11.813 142.268 17.0188 142.768C22.4626 143.29 21.9001 141.548 24.9728 146.471L26.7227 149.855L23.2009 148.526C20.5931 147.541 18.3807 147.585 14.6734 148.696C10.3718 149.984 9.83604 150.509 10.8611 152.424C12.777 156.005 20.1782 158.864 26.381 158.419C30.9767 158.089 32.2373 158.477 33.7151 160.675C35.3796 163.151 35.3271 163.285 32.9341 162.659C29.7393 161.823 19.18 165.725 19.7791 167.52C20.0208 168.248 22.2893 169.916 24.8215 171.229C28.9742 173.385 30.0822 173.47 36.1838 172.104C42.3244 170.73 43.153 170.798 45.197 172.848C47.385 175.042 47.3509 175.108 43.9596 175.227C40.4537 175.351 31.6625 179.992 31.6625 181.719C31.6625 183.301 37.6775 185.476 42.0511 185.476C44.3465 185.476 48.1551 184.555 50.5164 183.429C54.3018 181.624 55.1975 181.589 58.0945 183.124L61.3808 184.866L58.2373 185.241C54.7081 185.66 45.2263 193.294 46.5516 194.649C47.0214 195.131 49.8135 195.796 52.7556 196.128C58.0286 196.722 63.8275 194.773 68.2719 190.914C69.779 189.605 70.6417 189.624 73.1531 191.019C75.6829 192.422 75.8122 192.718 73.9073 192.755C71.2604 192.804 63.3907 200.663 63.3907 203.256C63.3907 204.481 64.8648 205 68.3524 205C74.1306 205 77.2131 203.62 82.4153 198.702C85.9676 195.344 86.4972 195.21 91.5676 196.379C99.1202 198.119 100 198.001 100 195.238C100 193.526 99.1812 192.793 97.2543 192.781C91.6006 192.746 89.0172 191.376 89.0172 188.41C89.0172 183.081 85.233 175.838 81.123 173.297C78.9301 171.943 76.7897 170.833 76.365 170.833C74.8738 170.833 75.6279 181.243 77.3596 184.561C79.09 187.878 78.6043 188.527 75.3326 187.271C74.2148 186.843 73.8133 185.235 74.1355 182.478C74.4027 180.196 74 176.449 73.241 174.15C71.7083 169.508 66.644 164.085 64.866 165.185C62.7414 166.498 62.2143 174.678 63.9825 178.908L65.6922 183L62.8317 181.127C60.2252 179.419 60.0299 178.621 60.6218 172.091C61.1636 166.11 60.8256 164.209 58.5704 160.56C57.0853 158.156 55.4537 156.19 54.9449 156.19C53.173 156.19 51.1875 162.445 51.1875 168.029C51.1875 173.54 51.1399 173.608 48.7921 171.485C46.5979 169.5 46.5467 169.026 48.1819 165.865C50.7348 160.927 50.4737 152.205 47.6682 148.741L45.3703 145.903L42.7918 150.132C41.3738 152.458 40.212 156.267 40.2096 158.598L40.2047 162.835L38.2193 160C36.3583 157.345 36.3974 156.871 38.8294 152.546C42.865 145.365 41.9241 134.058 37.4334 135.781C36.4449 136.16 34.418 138.986 32.9292 142.063C31.4392 145.139 29.721 147.347 29.1109 146.97C27.295 145.848 27.8051 144.238 31.6625 138.913C34.3948 135.143 35.3235 132.513 35.3235 128.552C35.3235 125.105 34.789 123.254 33.7981 123.271C31.1293 123.318 26.9399 127.377 25.1717 131.63L23.4596 135.744L22.6518 132.523C21.9757 129.832 22.6518 128.533 26.7532 124.631C30.9487 120.64 31.6625 119.223 31.6625 114.892C31.6625 112.103 31.2513 109.824 30.7473 109.826C28.8827 109.835 21.7951 114.778 21.1178 116.54C20.0562 119.308 18.2354 118.718 18.266 115.618C18.2843 113.731 19.5217 112.299 22.2198 111.042C29.0401 107.864 34.7658 96.3927 29.527 96.4037C26.2383 96.4098 19.5034 100.977 18.2745 104.033C17.3556 106.319 17.1604 105.915 17.0957 101.585C17.0383 97.6959 17.4886 96.3988 18.8981 96.3988C22.4992 96.3988 29.9712 91.6911 31.4221 88.5075C32.2251 86.7443 32.8829 84.7785 32.8829 84.1391C32.8829 82.3478 27.0754 82.7614 23.0593 84.8383C21.08 85.8621 19.4594 87.3263 19.4594 88.0914C19.4594 88.8577 19.1812 89.2055 18.8407 88.8651C18.5003 88.5258 18.5588 86.5661 18.9701 84.51C19.6229 81.2435 20.3515 80.676 24.7739 79.9878C30.491 79.0995 32.7645 77.6669 35.7603 73.0618C37.769 69.9758 37.7519 69.8354 35.3113 69.1973C32.3691 68.4273 26.1321 70.0014 23.5145 72.1734C21.922 73.4949 21.9061 73.1826 23.3803 69.5707C24.9069 65.8282 25.5402 65.4462 30.5716 65.2339C36.9343 64.9667 40.8185 63.2035 42.6698 59.7453C43.6948 57.832 43.5581 57.1572 42.0315 56.5702C40.9638 56.1615 37.6555 56.1004 34.6779 56.436L29.2634 57.0461L31.2598 53.6673C33.0513 50.635 33.6175 50.4129 36.761 51.5087C41.3445 53.106 47.85 51.8235 50.6054 48.7778C51.8123 47.4453 52.5738 46.164 52.2992 45.9322C52.0234 45.7004 49.9928 44.9023 47.7865 44.1568C45.1409 43.2648 42.7393 43.1977 40.7356 43.9591C38.0252 44.989 37.8251 44.8743 38.8843 42.895C41.336 38.3155 43.2128 37.6785 48.1648 39.748C53.2816 41.8859 59.7993 41.2953 62.1337 38.4814C63.2857 37.094 62.8464 36.3887 59.8762 34.8524C57.8492 33.8043 54.6679 32.9464 52.8069 32.9464H49.4254L52.1003 30.2717L54.7752 27.5969L60.3765 30.3937C64.5133 32.4596 67.0748 32.9843 70.1756 32.4034C72.4844 31.9702 74.3735 31.1771 74.3735 30.6402C74.3735 29.1551 69.6533 25.2028 66.19 23.7873L63.1088 22.528L66.3145 20.8112C69.2835 19.2224 69.7729 19.3359 72.9066 22.3389C76.7104 25.9825 82.8534 27.6848 85.9493 25.952C87.77 24.9331 87.5638 24.3584 84.1469 20.9417C82.0236 18.8197 79.14 17.0833 77.7366 17.0833C76.3345 17.0833 75.5486 16.7221 75.9916 16.2792C76.4333 15.8375 79.4072 15.5532 82.6008 15.6496C86.6559 15.7704 89.3223 15.1175 91.4395 13.4861C93.1077 12.2012 94.1657 10.843 93.7911 10.4684C93.4164 10.0938 91.503 9.46539 89.5383 9.07247C86.9158 8.54899 84.7656 9.17375 81.4452 11.4263L76.9239 14.494L78.8642 10.4269C80.7972 6.37452 80.342 0 78.1198 0C77.5206 0 75.6096 1.69003 73.8719 3.75467Z" fill="url(#paint1_radial_116_76)" fill-opacity="0.2"/>
<defs>
<linearGradient id="paint0_linear_116_76" x1="50" y1="0" x2="50" y2="205" gradientUnits="userSpaceOnUse">
<stop stop-color="#EED273"/>
<stop offset="1" stop-color="#9E3900"/>
</linearGradient>
<radialGradient id="paint1_radial_116_76" cx="0" cy="0" r="1" gradientUnits="userSpaceOnUse" gradientTransform="translate(50 102.5) rotate(147.204) scale(118.275 57.69)">
<stop stop-color="#FFF882"/>
<stop offset="1" stop-color="#EECF7F"/>
</radialGradient>
</defs>
</svg>
