<svg xmlns="http://www.w3.org/2000/svg" xmlns:xlink="http://www.w3.org/1999/xlink" width="1344" zoomAndPan="magnify" viewBox="0 0 1008 1295.99994" height="1728" preserveAspectRatio="xMidYMid meet" version="1.0"><defs><g/><clipPath id="13b95ee074"><path d="M 530 377.699219 L 648 377.699219 L 648 604 L 530 604 Z M 530 377.699219 " clip-rule="nonzero"/></clipPath><clipPath id="bdd48cc852"><path d="M 655 503 L 847.773438 503 L 847.773438 655 L 655 655 Z M 655 503 " clip-rule="nonzero"/></clipPath><clipPath id="147c2f1e53"><path d="M 587.164062 673.855469 L 817.914062 673.855469 L 817.914062 830.941406 L 587.164062 830.941406 Z M 587.164062 673.855469 " clip-rule="nonzero"/></clipPath></defs><rect x="-100.8" width="1209.6" fill="#ffffff" y="-129.599994" height="1555.199927" fill-opacity="1"/><rect x="-100.8" width="1209.6" fill="#ffecbc" y="-129.599994" height="1555.199927" fill-opacity="1"/><path fill="#1f7159" d="M 339.90625 785.527344 C 251.207031 823.066406 199.101562 623.859375 199.101562 623.859375 C 177.21875 793.117188 353.914062 888.902344 353.914062 888.902344 C 518.277344 633.9375 655.09375 652.695312 655.09375 652.695312 C 506.792969 619.429688 446.917969 740.230469 339.90625 785.527344 Z M 315.511719 758.324219 C 349.636719 762.734375 380.863281 738.648438 385.277344 704.53125 C 389.683594 670.414062 365.605469 639.179688 331.488281 634.773438 C 297.367188 630.359375 266.132812 654.445312 261.722656 688.5625 C 257.316406 722.679688 281.394531 753.910156 315.511719 758.324219 " fill-opacity="1" fill-rule="nonzero"/><g clip-path="url(#13b95ee074)"><path fill="#5fb53a" d="M 588.800781 377.742188 C 488.84375 512.746094 540.171875 578.847656 571.054688 603.019531 C 570.507812 567.285156 574.65625 519.289062 588.800781 456.273438 C 602.945312 519.289062 607.089844 567.285156 606.542969 603.019531 C 637.425781 578.847656 688.75 512.746094 588.800781 377.742188 " fill-opacity="1" fill-rule="nonzero"/></g><g clip-path="url(#bdd48cc852)"><path fill="#5fb53a" d="M 847.589844 503.039062 C 679.621094 501.796875 656.433594 582.210938 655.09375 621.40625 C 683.648438 599.914062 724.871094 574.992188 784.132812 549.300781 C 741.535156 597.855469 705.195312 629.476562 675.996094 650.082031 C 713.722656 660.800781 797.371094 663.335938 847.589844 503.039062 " fill-opacity="1" fill-rule="nonzero"/></g><path fill="#5fb53a" d="M 795.5 822.308594 C 741.140625 663.371094 657.582031 668.078125 620.148438 679.769531 C 649.871094 699.613281 687.019531 730.277344 730.863281 777.710938 C 670.953125 753.566406 629.097656 729.722656 600 708.976562 C 602.355469 748.125 627.617188 827.914062 795.5 822.308594 " fill-opacity="1" fill-rule="nonzero"/><path fill="#5fb53a" d="M 317.601562 547.273438 C 479.148438 501.238281 522.957031 572.546875 534.710938 609.960938 C 501.453125 596.871094 455.074219 583.859375 391.105469 574.917969 C 445.117188 610.339844 488.578125 631.109375 522.21875 643.175781 C 488.726562 663.578125 408.785156 688.347656 317.601562 547.273438 " fill-opacity="1" fill-rule="nonzero"/><g clip-path="url(#147c2f1e53)"><path fill="#ffecbc" d="M 587.164062 673.855469 L 817.886719 673.855469 L 817.886719 830.941406 L 587.164062 830.941406 Z M 587.164062 673.855469 " fill-opacity="1" fill-rule="nonzero"/></g><g fill="#1f7159" fill-opacity="1"><g transform="translate(177.73565, 594.352208)"><g><path d="M -10.734375 -45.984375 L -9.71875 -44.75 C -11.488281 -43.0625 -11.554688 -41.222656 -9.921875 -39.234375 C -9.546875 -38.785156 -9.054688 -38.289062 -8.453125 -37.75 C -7.847656 -37.21875 -7.257812 -36.710938 -6.6875 -36.234375 L 12.6875 -19.25 L -2.03125 -44.9375 C -2.238281 -45.3125 -2.414062 -45.601562 -2.5625 -45.8125 C -2.71875 -46.03125 -2.890625 -46.253906 -3.078125 -46.484375 C -4.304688 -47.972656 -5.644531 -48.117188 -7.09375 -46.921875 L -8.109375 -48.15625 L 6.34375 -60.109375 L 7.359375 -58.875 C 6.734375 -58.082031 6.421875 -57.363281 6.421875 -56.71875 C 6.429688 -56.082031 6.773438 -55.351562 7.453125 -54.53125 C 7.585938 -54.363281 7.78125 -54.160156 8.03125 -53.921875 C 8.28125 -53.679688 8.539062 -53.4375 8.8125 -53.1875 C 9.082031 -52.9375 9.320312 -52.71875 9.53125 -52.53125 C 9.738281 -52.34375 9.882812 -52.195312 9.96875 -52.09375 L 30.578125 -34.03125 L 16.59375 -59.5 C 16.382812 -59.882812 16.175781 -60.269531 15.96875 -60.65625 C 15.769531 -61.039062 15.53125 -61.398438 15.25 -61.734375 C 14.21875 -62.992188 12.992188 -63.203125 11.578125 -62.359375 L 10.5625 -63.59375 L 19.78125 -71.21875 L 20.796875 -69.984375 C 20.296875 -69.285156 19.972656 -68.640625 19.828125 -68.046875 C 19.679688 -67.453125 19.648438 -66.882812 19.734375 -66.34375 C 19.816406 -65.800781 19.992188 -65.25 20.265625 -64.6875 C 20.535156 -64.132812 20.832031 -63.554688 21.15625 -62.953125 L 33.75 -39.15625 C 34.1875 -38.289062 34.59375 -37.523438 34.96875 -36.859375 C 35.34375 -36.203125 35.710938 -35.660156 36.078125 -35.234375 C 36.535156 -34.671875 37.007812 -34.316406 37.5 -34.171875 C 37.988281 -34.023438 38.582031 -34.15625 39.28125 -34.5625 L 40.3125 -33.328125 L 24.375 -20.15625 L 23.34375 -21.390625 C 24.257812 -22.304688 24.304688 -23.257812 23.484375 -24.25 C 23.148438 -24.644531 22.660156 -25.101562 22.015625 -25.625 L 5.53125 -39.703125 L 16.203125 -21.046875 C 16.429688 -20.640625 16.644531 -20.265625 16.84375 -19.921875 C 17.039062 -19.585938 17.25 -19.285156 17.46875 -19.015625 C 17.84375 -18.554688 18.203125 -18.300781 18.546875 -18.25 C 18.890625 -18.207031 19.347656 -18.3125 19.921875 -18.5625 L 20.953125 -17.328125 L 6.1875 -5.125 L 5.15625 -6.359375 C 6.0625 -7.367188 6.128906 -8.335938 5.359375 -9.265625 C 5.171875 -9.492188 4.832031 -9.8125 4.34375 -10.21875 C 3.863281 -10.632812 3.441406 -11 3.078125 -11.3125 L -17.125 -28.375 C -18.300781 -29.40625 -19.328125 -30.210938 -20.203125 -30.796875 C -21.078125 -31.378906 -21.847656 -31.765625 -22.515625 -31.953125 C -23.179688 -32.148438 -23.78125 -32.175781 -24.3125 -32.03125 C -24.851562 -31.894531 -25.4375 -31.628906 -26.0625 -31.234375 L -27.078125 -32.46875 Z M -10.734375 -45.984375 "/></g></g></g><g fill="#1f7159" fill-opacity="1"><g transform="translate(233.809558, 550.036564)"><g><path d="M 3.125 -44.765625 C 2.269531 -44.296875 1.472656 -43.503906 0.734375 -42.390625 C -0.00390625 -41.285156 -0.378906 -39.707031 -0.390625 -37.65625 C -0.390625 -36.394531 -0.171875 -35.003906 0.265625 -33.484375 C 0.710938 -31.960938 1.460938 -30.226562 2.515625 -28.28125 C 4.046875 -25.445312 5.632812 -23.113281 7.28125 -21.28125 C 8.9375 -19.445312 10.570312 -18.050781 12.1875 -17.09375 C 13.800781 -16.144531 15.347656 -15.625 16.828125 -15.53125 C 18.316406 -15.4375 19.648438 -15.707031 20.828125 -16.34375 C 21.203125 -16.550781 21.628906 -16.859375 22.109375 -17.265625 C 22.597656 -17.671875 23.046875 -18.210938 23.453125 -18.890625 C 23.859375 -19.578125 24.160156 -20.425781 24.359375 -21.4375 C 24.566406 -22.457031 24.578125 -23.644531 24.390625 -25 C 24.222656 -26.03125 23.910156 -27.1875 23.453125 -28.46875 C 23.003906 -29.757812 22.347656 -31.195312 21.484375 -32.78125 C 19.753906 -35.976562 18.082031 -38.453125 16.46875 -40.203125 C 14.851562 -41.960938 13.28125 -43.257812 11.75 -44.09375 C 9.820312 -45.144531 8.140625 -45.644531 6.703125 -45.59375 C 5.265625 -45.550781 4.070312 -45.273438 3.125 -44.765625 Z M -8.78125 -19.421875 C -10.4375 -22.484375 -11.367188 -25.503906 -11.578125 -28.484375 C -11.785156 -31.472656 -11.398438 -34.3125 -10.421875 -37 C -9.453125 -39.695312 -7.929688 -42.171875 -5.859375 -44.421875 C -3.785156 -46.671875 -1.296875 -48.582031 1.609375 -50.15625 C 5.066406 -52.03125 8.394531 -53.164062 11.59375 -53.5625 C 14.789062 -53.957031 17.75 -53.671875 20.46875 -52.703125 C 23.101562 -51.796875 25.472656 -50.347656 27.578125 -48.359375 C 29.679688 -46.378906 31.429688 -44.097656 32.828125 -41.515625 C 34.367188 -38.679688 35.28125 -35.878906 35.5625 -33.109375 C 35.84375 -30.347656 35.71875 -27.890625 35.1875 -25.734375 C 34.757812 -24.179688 34.140625 -22.691406 33.328125 -21.265625 C 32.523438 -19.835938 31.554688 -18.492188 30.421875 -17.234375 C 29.296875 -15.984375 28.070312 -14.84375 26.75 -13.8125 C 25.4375 -12.78125 24.101562 -11.898438 22.75 -11.171875 C 21.3125 -10.390625 19.84375 -9.722656 18.34375 -9.171875 C 16.84375 -8.628906 15.398438 -8.226562 14.015625 -7.96875 C 11.523438 -7.4375 9.210938 -7.320312 7.078125 -7.625 C 4.941406 -7.9375 2.992188 -8.546875 1.234375 -9.453125 C -0.890625 -10.492188 -2.796875 -11.878906 -4.484375 -13.609375 C -6.179688 -15.347656 -7.613281 -17.285156 -8.78125 -19.421875 Z M -8.78125 -19.421875 "/></g></g></g><g fill="#1f7159" fill-opacity="1"><g transform="translate(288.315823, 521.777322)"><g><path d="M 9.0625 -43.15625 C 7.601562 -42.664062 6.570312 -42.035156 5.96875 -41.265625 C 5.363281 -40.503906 5.359375 -39.25 5.953125 -37.5 L 9.03125 -28.3125 C 10.03125 -28.957031 11.019531 -29.691406 12 -30.515625 C 12.988281 -31.335938 13.84375 -32.253906 14.5625 -33.265625 C 15.289062 -34.285156 15.800781 -35.375 16.09375 -36.53125 C 16.382812 -37.695312 16.3125 -38.925781 15.875 -40.21875 C 15.4375 -41.519531 14.65625 -42.488281 13.53125 -43.125 C 12.414062 -43.769531 10.925781 -43.78125 9.0625 -43.15625 Z M 15.28125 -49.703125 C 17.507812 -50.453125 19.382812 -50.867188 20.90625 -50.953125 C 22.4375 -51.035156 23.675781 -50.910156 24.625 -50.578125 C 25.570312 -50.242188 26.300781 -49.753906 26.8125 -49.109375 C 27.332031 -48.472656 27.707031 -47.804688 27.9375 -47.109375 C 28.207031 -46.304688 28.347656 -45.429688 28.359375 -44.484375 C 28.378906 -43.546875 28.21875 -42.519531 27.875 -41.40625 C 27.53125 -40.289062 26.945312 -39.097656 26.125 -37.828125 C 25.3125 -36.554688 24.203125 -35.191406 22.796875 -33.734375 C 25.703125 -32.316406 28.515625 -30.457031 31.234375 -28.15625 C 33.953125 -25.851562 36.421875 -23.195312 38.640625 -20.1875 C 39.953125 -18.457031 41.09375 -17.382812 42.0625 -16.96875 C 43.039062 -16.550781 43.976562 -16.472656 44.875 -16.734375 L 45.390625 -15.203125 L 24.921875 -8.34375 L 24.40625 -9.875 C 25.09375 -10.101562 25.640625 -10.421875 26.046875 -10.828125 C 26.460938 -11.234375 26.523438 -11.867188 26.234375 -12.734375 C 25.921875 -13.660156 25.179688 -14.738281 24.015625 -15.96875 C 22.859375 -17.207031 21.554688 -18.429688 20.109375 -19.640625 C 18.671875 -20.859375 17.238281 -21.984375 15.8125 -23.015625 C 14.382812 -24.046875 13.242188 -24.804688 12.390625 -25.296875 L 10.515625 -23.859375 L 14.1875 -12.890625 C 14.625 -11.585938 15.054688 -10.585938 15.484375 -9.890625 C 15.921875 -9.203125 16.367188 -8.71875 16.828125 -8.4375 C 17.285156 -8.164062 17.726562 -8.023438 18.15625 -8.015625 C 18.582031 -8.003906 19.019531 -8.070312 19.46875 -8.21875 L 19.984375 -6.6875 L 0.859375 -0.28125 L 0.34375 -1.8125 C 0.789062 -1.96875 1.191406 -2.179688 1.546875 -2.453125 C 1.898438 -2.734375 2.160156 -3.125 2.328125 -3.625 C 2.503906 -4.132812 2.554688 -4.796875 2.484375 -5.609375 C 2.421875 -6.421875 2.175781 -7.457031 1.75 -8.71875 L -6.78125 -34.1875 C -7.195312 -35.445312 -7.632812 -36.429688 -8.09375 -37.140625 C -8.5625 -37.847656 -9.015625 -38.347656 -9.453125 -38.640625 C -9.890625 -38.941406 -10.332031 -39.085938 -10.78125 -39.078125 C -11.226562 -39.066406 -11.65625 -38.992188 -12.0625 -38.859375 L -12.5625 -40.375 Z M 15.28125 -49.703125 "/></g></g></g><g fill="#1f7159" fill-opacity="1"><g transform="translate(343.231802, 504.388688)"><g><path d="M 30.015625 -47.296875 C 31.453125 -47.515625 32.421875 -48.25 32.921875 -49.5 L 39.34375 -32.03125 L 38.078125 -31.4375 C 37.285156 -32.914062 36.328125 -34.335938 35.203125 -35.703125 C 34.078125 -37.066406 32.820312 -38.238281 31.4375 -39.21875 C 30.050781 -40.195312 28.535156 -40.925781 26.890625 -41.40625 C 25.253906 -41.894531 23.53125 -41.992188 21.71875 -41.703125 C 19.726562 -41.398438 18.054688 -40.71875 16.703125 -39.65625 C 15.347656 -38.59375 14.28125 -37.316406 13.5 -35.828125 C 12.71875 -34.335938 12.203125 -32.695312 11.953125 -30.90625 C 11.710938 -29.113281 11.734375 -27.328125 12.015625 -25.546875 C 12.453125 -22.710938 13.273438 -20.207031 14.484375 -18.03125 C 15.691406 -15.851562 17.148438 -14.066406 18.859375 -12.671875 C 20.578125 -11.273438 22.46875 -10.28125 24.53125 -9.6875 C 26.59375 -9.101562 28.707031 -8.976562 30.875 -9.3125 C 33.789062 -9.769531 36.238281 -10.941406 38.21875 -12.828125 C 40.207031 -14.722656 41.523438 -17.085938 42.171875 -19.921875 L 43.703125 -19.625 L 40.84375 -4.953125 C 40.539062 -5.296875 40.175781 -5.503906 39.75 -5.578125 C 39.320312 -5.660156 38.707031 -5.640625 37.90625 -5.515625 C 37.476562 -5.453125 36.910156 -5.332031 36.203125 -5.15625 C 35.492188 -4.976562 34.722656 -4.785156 33.890625 -4.578125 C 33.054688 -4.367188 32.1875 -4.160156 31.28125 -3.953125 C 30.382812 -3.742188 29.535156 -3.578125 28.734375 -3.453125 C 25.210938 -2.898438 21.757812 -2.835938 18.375 -3.265625 C 14.988281 -3.691406 11.910156 -4.660156 9.140625 -6.171875 C 6.367188 -7.691406 4.007812 -9.765625 2.0625 -12.390625 C 0.113281 -15.023438 -1.15625 -18.265625 -1.75 -22.109375 C -2.28125 -25.492188 -2.132812 -28.582031 -1.3125 -31.375 C -0.5 -34.164062 0.835938 -36.613281 2.703125 -38.71875 C 4.566406 -40.832031 6.84375 -42.566406 9.53125 -43.921875 C 12.21875 -45.273438 15.175781 -46.207031 18.40625 -46.71875 C 20.164062 -46.988281 21.675781 -47.144531 22.9375 -47.1875 C 24.195312 -47.226562 25.390625 -47.234375 26.515625 -47.203125 C 27.253906 -47.179688 27.90625 -47.171875 28.46875 -47.171875 C 29.03125 -47.179688 29.546875 -47.222656 30.015625 -47.296875 Z M 30.015625 -47.296875 "/></g></g></g><g fill="#1f7159" fill-opacity="1"><g transform="translate(453.092629, 816.4249)"><g><path d="M 16.0625 -32.328125 L 16.0625 -31.09375 C 14.195312 -30.96875 13.265625 -29.921875 13.265625 -27.953125 C 13.265625 -27.492188 13.3125 -26.960938 13.40625 -26.359375 C 13.507812 -25.753906 13.609375 -25.171875 13.703125 -24.609375 L 16.84375 -5.15625 L 20.6875 -27.453125 C 20.75 -27.785156 20.785156 -28.050781 20.796875 -28.25 C 20.816406 -28.445312 20.828125 -28.660156 20.828125 -28.890625 C 20.828125 -30.359375 20.109375 -31.09375 18.671875 -31.09375 L 18.671875 -32.328125 L 33.015625 -32.328125 L 33.015625 -31.09375 C 32.253906 -30.925781 31.71875 -30.65625 31.40625 -30.28125 C 31.101562 -29.90625 30.953125 -29.3125 30.953125 -28.5 C 30.953125 -28.332031 30.96875 -28.113281 31 -27.84375 C 31.03125 -27.582031 31.0625 -27.3125 31.09375 -27.03125 C 31.125 -26.757812 31.15625 -26.515625 31.1875 -26.296875 C 31.226562 -26.085938 31.25 -25.9375 31.25 -25.84375 L 34.578125 -5.15625 L 38.765625 -26.96875 C 38.828125 -27.289062 38.890625 -27.613281 38.953125 -27.9375 C 39.015625 -28.269531 39.046875 -28.601562 39.046875 -28.9375 C 39.046875 -30.175781 38.425781 -30.894531 37.1875 -31.09375 L 37.1875 -32.328125 L 46.328125 -32.328125 L 46.328125 -31.09375 C 45.703125 -30.925781 45.203125 -30.703125 44.828125 -30.421875 C 44.453125 -30.148438 44.15625 -29.832031 43.9375 -29.46875 C 43.726562 -29.113281 43.566406 -28.707031 43.453125 -28.25 C 43.335938 -27.789062 43.226562 -27.296875 43.125 -26.765625 L 38.953125 -6.625 C 38.785156 -5.90625 38.65625 -5.257812 38.5625 -4.6875 C 38.46875 -4.113281 38.421875 -3.613281 38.421875 -3.1875 C 38.421875 -2.632812 38.523438 -2.191406 38.734375 -1.859375 C 38.941406 -1.535156 39.359375 -1.328125 39.984375 -1.234375 L 39.984375 0 L 24.171875 0 L 24.171875 -1.234375 C 25.148438 -1.328125 25.640625 -1.863281 25.640625 -2.84375 C 25.640625 -3.238281 25.578125 -3.75 25.453125 -4.375 L 22.59375 -20.6875 L 19.796875 -4.515625 C 19.734375 -4.160156 19.675781 -3.832031 19.625 -3.53125 C 19.570312 -3.238281 19.546875 -2.960938 19.546875 -2.703125 C 19.546875 -2.242188 19.632812 -1.914062 19.8125 -1.71875 C 20 -1.519531 20.320312 -1.359375 20.78125 -1.234375 L 20.78125 0 L 6.140625 0 L 6.140625 -1.234375 C 7.148438 -1.390625 7.65625 -1.925781 7.65625 -2.84375 C 7.65625 -3.070312 7.613281 -3.425781 7.53125 -3.90625 C 7.457031 -4.382812 7.382812 -4.800781 7.3125 -5.15625 L 3.734375 -25.046875 C 3.535156 -26.234375 3.320312 -27.207031 3.09375 -27.96875 C 2.863281 -28.738281 2.597656 -29.34375 2.296875 -29.78125 C 2.003906 -30.226562 1.660156 -30.539062 1.265625 -30.71875 C 0.878906 -30.90625 0.410156 -31.03125 -0.140625 -31.09375 L -0.140625 -32.328125 Z M 16.0625 -32.328125 "/></g></g></g><g fill="#1f7159" fill-opacity="1"><g transform="translate(515.334704, 816.4249)"><g><path d="M 23.328125 -32.328125 C 24.015625 -32.328125 24.5625 -32.34375 24.96875 -32.375 C 25.382812 -32.40625 25.722656 -32.453125 25.984375 -32.515625 C 26.242188 -32.585938 26.445312 -32.671875 26.59375 -32.765625 C 26.75 -32.859375 26.890625 -32.972656 27.015625 -33.109375 L 29.53125 -21.8125 L 28.4375 -21.46875 C 27.6875 -23.851562 26.359375 -25.71875 24.453125 -27.0625 C 22.554688 -28.40625 20.347656 -29.078125 17.828125 -29.078125 C 16.847656 -29.078125 16.0625 -29.007812 15.46875 -28.875 C 14.882812 -28.75 14.4375 -28.5 14.125 -28.125 C 13.8125 -27.75 13.601562 -27.222656 13.5 -26.546875 C 13.40625 -25.878906 13.359375 -24.988281 13.359375 -23.875 L 13.359375 -21.765625 L 15.03125 -21.765625 C 15.425781 -21.765625 15.867188 -21.765625 16.359375 -21.765625 C 16.847656 -21.765625 17.335938 -21.796875 17.828125 -21.859375 C 18.316406 -21.921875 18.789062 -22.019531 19.25 -22.15625 C 19.707031 -22.289062 20.085938 -22.488281 20.390625 -22.75 C 21.046875 -23.300781 21.375 -24.296875 21.375 -25.734375 L 22.359375 -25.890625 L 24.515625 -13.40625 L 23.53125 -13.3125 C 23.070312 -14.425781 22.570312 -15.328125 22.03125 -16.015625 C 21.488281 -16.703125 20.875 -17.234375 20.1875 -17.609375 C 19.5 -17.984375 18.710938 -18.226562 17.828125 -18.34375 C 16.941406 -18.457031 15.941406 -18.515625 14.828125 -18.515625 L 13.359375 -18.515625 L 13.359375 -7.609375 C 13.359375 -5.878906 13.726562 -4.71875 14.46875 -4.125 C 15.207031 -3.539062 16.425781 -3.25 18.125 -3.25 C 19.632812 -3.25 20.992188 -3.453125 22.203125 -3.859375 C 23.410156 -4.265625 24.472656 -4.78125 25.390625 -5.40625 C 26.304688 -6.03125 27.097656 -6.707031 27.765625 -7.4375 C 28.441406 -8.175781 29 -8.890625 29.4375 -9.578125 C 29.882812 -10.265625 30.238281 -10.863281 30.5 -11.375 C 30.769531 -11.882812 30.953125 -12.21875 31.046875 -12.375 L 32.078125 -11.984375 L 27.90625 0.78125 C 27.738281 0.625 27.472656 0.453125 27.109375 0.265625 C 26.753906 0.0859375 26.117188 0 25.203125 0 L 0.59375 0 L 0.59375 -1.234375 C 0.914062 -1.234375 1.238281 -1.28125 1.5625 -1.375 C 1.894531 -1.46875 2.191406 -1.675781 2.453125 -2 C 2.710938 -2.332031 2.914062 -2.8125 3.0625 -3.4375 C 3.21875 -4.0625 3.296875 -4.878906 3.296875 -5.890625 L 3.296875 -26.421875 C 3.296875 -27.441406 3.21875 -28.257812 3.0625 -28.875 C 2.914062 -29.5 2.710938 -29.96875 2.453125 -30.28125 C 2.191406 -30.59375 1.894531 -30.804688 1.5625 -30.921875 C 1.238281 -31.035156 0.914062 -31.09375 0.59375 -31.09375 L 0.59375 -32.328125 Z M 23.328125 -32.328125 "/></g></g></g><g fill="#1f7159" fill-opacity="1"><g transform="translate(563.82178, 816.4249)"><g><path d="M 16.3125 -32.328125 L 16.359375 -31.09375 C 15.992188 -31.09375 15.65625 -31.039062 15.34375 -30.9375 C 15.039062 -30.84375 14.753906 -30.628906 14.484375 -30.296875 C 14.222656 -29.972656 14.019531 -29.5 13.875 -28.875 C 13.726562 -28.257812 13.65625 -27.441406 13.65625 -26.421875 L 13.65625 -6.046875 C 13.65625 -5.617188 13.695312 -5.234375 13.78125 -4.890625 C 13.863281 -4.546875 14.035156 -4.25 14.296875 -4 C 14.554688 -3.757812 14.921875 -3.570312 15.390625 -3.4375 C 15.867188 -3.3125 16.488281 -3.25 17.25 -3.25 C 18.6875 -3.25 20.039062 -3.539062 21.3125 -4.125 C 22.59375 -4.71875 23.753906 -5.476562 24.796875 -6.40625 C 25.847656 -7.34375 26.765625 -8.40625 27.546875 -9.59375 C 28.335938 -10.789062 28.976562 -12.015625 29.46875 -13.265625 L 30.453125 -12.921875 L 26.375 0.78125 C 26.175781 0.425781 25.863281 0.207031 25.4375 0.125 C 25.019531 0.0390625 24.414062 0 23.625 0 L 0.890625 0 L 0.890625 -1.234375 C 1.210938 -1.234375 1.535156 -1.28125 1.859375 -1.375 C 2.191406 -1.46875 2.488281 -1.675781 2.75 -2 C 3.007812 -2.332031 3.210938 -2.8125 3.359375 -3.4375 C 3.515625 -4.0625 3.59375 -4.878906 3.59375 -5.890625 L 3.59375 -26.421875 C 3.59375 -27.441406 3.507812 -28.257812 3.34375 -28.875 C 3.175781 -29.5 2.96875 -29.972656 2.71875 -30.296875 C 2.476562 -30.628906 2.191406 -30.84375 1.859375 -30.9375 C 1.535156 -31.039062 1.210938 -31.09375 0.890625 -31.09375 L 0.890625 -32.328125 Z M 16.3125 -32.328125 "/></g></g></g><g fill="#1f7159" fill-opacity="1"><g transform="translate(610.34376, 816.4249)"><g><path d="M 16.3125 -32.328125 L 16.359375 -31.09375 C 15.992188 -31.09375 15.65625 -31.039062 15.34375 -30.9375 C 15.039062 -30.84375 14.753906 -30.628906 14.484375 -30.296875 C 14.222656 -29.972656 14.019531 -29.5 13.875 -28.875 C 13.726562 -28.257812 13.65625 -27.441406 13.65625 -26.421875 L 13.65625 -6.046875 C 13.65625 -5.617188 13.695312 -5.234375 13.78125 -4.890625 C 13.863281 -4.546875 14.035156 -4.25 14.296875 -4 C 14.554688 -3.757812 14.921875 -3.570312 15.390625 -3.4375 C 15.867188 -3.3125 16.488281 -3.25 17.25 -3.25 C 18.6875 -3.25 20.039062 -3.539062 21.3125 -4.125 C 22.59375 -4.71875 23.753906 -5.476562 24.796875 -6.40625 C 25.847656 -7.34375 26.765625 -8.40625 27.546875 -9.59375 C 28.335938 -10.789062 28.976562 -12.015625 29.46875 -13.265625 L 30.453125 -12.921875 L 26.375 0.78125 C 26.175781 0.425781 25.863281 0.207031 25.4375 0.125 C 25.019531 0.0390625 24.414062 0 23.625 0 L 0.890625 0 L 0.890625 -1.234375 C 1.210938 -1.234375 1.535156 -1.28125 1.859375 -1.375 C 2.191406 -1.46875 2.488281 -1.675781 2.75 -2 C 3.007812 -2.332031 3.210938 -2.8125 3.359375 -3.4375 C 3.515625 -4.0625 3.59375 -4.878906 3.59375 -5.890625 L 3.59375 -26.421875 C 3.59375 -27.441406 3.507812 -28.257812 3.34375 -28.875 C 3.175781 -29.5 2.96875 -29.972656 2.71875 -30.296875 C 2.476562 -30.628906 2.191406 -30.84375 1.859375 -30.9375 C 1.535156 -31.039062 1.210938 -31.09375 0.890625 -31.09375 L 0.890625 -32.328125 Z M 16.3125 -32.328125 "/></g></g></g><g fill="#1f7159" fill-opacity="1"><g transform="translate(656.865835, 816.4249)"><g><path d="M 19.109375 -32.328125 L 19.109375 -31.09375 C 18.515625 -31.0625 18.101562 -30.90625 17.875 -30.625 C 17.644531 -30.351562 17.53125 -30.066406 17.53125 -29.765625 C 17.53125 -29.335938 17.742188 -28.804688 18.171875 -28.171875 C 18.597656 -27.535156 19.039062 -26.972656 19.5 -26.484375 L 25.203125 -20 L 25.203125 -26.375 C 25.203125 -27.457031 25.09375 -28.3125 24.875 -28.9375 C 24.664062 -29.5625 24.410156 -30.035156 24.109375 -30.359375 C 23.816406 -30.679688 23.5 -30.882812 23.15625 -30.96875 C 22.8125 -31.050781 22.492188 -31.09375 22.203125 -31.09375 L 22.203125 -32.328125 L 32.078125 -32.328125 L 32.078125 -31.09375 C 31.710938 -31.09375 31.375 -31.039062 31.0625 -30.9375 C 30.757812 -30.84375 30.472656 -30.628906 30.203125 -30.296875 C 29.941406 -29.972656 29.738281 -29.5 29.59375 -28.875 C 29.445312 -28.257812 29.375 -27.441406 29.375 -26.421875 L 29.375 -5.9375 C 29.375 -4.894531 29.445312 -4.066406 29.59375 -3.453125 C 29.738281 -2.847656 29.9375 -2.390625 30.1875 -2.078125 C 30.4375 -1.773438 30.722656 -1.566406 31.046875 -1.453125 C 31.367188 -1.335938 31.710938 -1.28125 32.078125 -1.28125 L 32.078125 -0.046875 L 22.203125 -0.046875 L 22.203125 -1.234375 C 22.992188 -1.359375 23.609375 -1.648438 24.046875 -2.109375 C 24.484375 -2.566406 24.703125 -3.207031 24.703125 -4.03125 C 24.703125 -5.175781 24.429688 -6.148438 23.890625 -6.953125 C 23.359375 -7.753906 22.765625 -8.546875 22.109375 -9.328125 L 7.21875 -26.484375 L 7.21875 -5.890625 C 7.21875 -4.878906 7.289062 -4.0625 7.4375 -3.4375 C 7.582031 -2.8125 7.78125 -2.332031 8.03125 -2 C 8.28125 -1.675781 8.554688 -1.46875 8.859375 -1.375 C 9.171875 -1.28125 9.507812 -1.234375 9.875 -1.234375 L 9.875 0 L 0.34375 0 L 0.34375 -1.234375 C 0.664062 -1.234375 0.988281 -1.28125 1.3125 -1.375 C 1.644531 -1.46875 1.941406 -1.675781 2.203125 -2 C 2.472656 -2.332031 2.679688 -2.8125 2.828125 -3.4375 C 2.972656 -4.0625 3.046875 -4.878906 3.046875 -5.890625 L 3.046875 -26.421875 C 3.046875 -27.441406 2.960938 -28.257812 2.796875 -28.875 C 2.628906 -29.5 2.421875 -29.972656 2.171875 -30.296875 C 1.929688 -30.628906 1.644531 -30.84375 1.3125 -30.9375 C 0.988281 -31.039062 0.664062 -31.09375 0.34375 -31.09375 L 0.34375 -32.328125 Z M 19.109375 -32.328125 "/></g></g></g><g fill="#1f7159" fill-opacity="1"><g transform="translate(705.352863, 816.4249)"><g><path d="M 23.328125 -32.328125 C 24.015625 -32.328125 24.5625 -32.34375 24.96875 -32.375 C 25.382812 -32.40625 25.722656 -32.453125 25.984375 -32.515625 C 26.242188 -32.585938 26.445312 -32.671875 26.59375 -32.765625 C 26.75 -32.859375 26.890625 -32.972656 27.015625 -33.109375 L 29.53125 -21.8125 L 28.4375 -21.46875 C 27.6875 -23.851562 26.359375 -25.71875 24.453125 -27.0625 C 22.554688 -28.40625 20.347656 -29.078125 17.828125 -29.078125 C 16.847656 -29.078125 16.0625 -29.007812 15.46875 -28.875 C 14.882812 -28.75 14.4375 -28.5 14.125 -28.125 C 13.8125 -27.75 13.601562 -27.222656 13.5 -26.546875 C 13.40625 -25.878906 13.359375 -24.988281 13.359375 -23.875 L 13.359375 -21.765625 L 15.03125 -21.765625 C 15.425781 -21.765625 15.867188 -21.765625 16.359375 -21.765625 C 16.847656 -21.765625 17.335938 -21.796875 17.828125 -21.859375 C 18.316406 -21.921875 18.789062 -22.019531 19.25 -22.15625 C 19.707031 -22.289062 20.085938 -22.488281 20.390625 -22.75 C 21.046875 -23.300781 21.375 -24.296875 21.375 -25.734375 L 22.359375 -25.890625 L 24.515625 -13.40625 L 23.53125 -13.3125 C 23.070312 -14.425781 22.570312 -15.328125 22.03125 -16.015625 C 21.488281 -16.703125 20.875 -17.234375 20.1875 -17.609375 C 19.5 -17.984375 18.710938 -18.226562 17.828125 -18.34375 C 16.941406 -18.457031 15.941406 -18.515625 14.828125 -18.515625 L 13.359375 -18.515625 L 13.359375 -7.609375 C 13.359375 -5.878906 13.726562 -4.71875 14.46875 -4.125 C 15.207031 -3.539062 16.425781 -3.25 18.125 -3.25 C 19.632812 -3.25 20.992188 -3.453125 22.203125 -3.859375 C 23.410156 -4.265625 24.472656 -4.78125 25.390625 -5.40625 C 26.304688 -6.03125 27.097656 -6.707031 27.765625 -7.4375 C 28.441406 -8.175781 29 -8.890625 29.4375 -9.578125 C 29.882812 -10.265625 30.238281 -10.863281 30.5 -11.375 C 30.769531 -11.882812 30.953125 -12.21875 31.046875 -12.375 L 32.078125 -11.984375 L 27.90625 0.78125 C 27.738281 0.625 27.472656 0.453125 27.109375 0.265625 C 26.753906 0.0859375 26.117188 0 25.203125 0 L 0.59375 0 L 0.59375 -1.234375 C 0.914062 -1.234375 1.238281 -1.28125 1.5625 -1.375 C 1.894531 -1.46875 2.191406 -1.675781 2.453125 -2 C 2.710938 -2.332031 2.914062 -2.8125 3.0625 -3.4375 C 3.21875 -4.0625 3.296875 -4.878906 3.296875 -5.890625 L 3.296875 -26.421875 C 3.296875 -27.441406 3.21875 -28.257812 3.0625 -28.875 C 2.914062 -29.5 2.710938 -29.96875 2.453125 -30.28125 C 2.191406 -30.59375 1.894531 -30.804688 1.5625 -30.921875 C 1.238281 -31.035156 0.914062 -31.09375 0.59375 -31.09375 L 0.59375 -32.328125 Z M 23.328125 -32.328125 "/></g></g></g><g fill="#1f7159" fill-opacity="1"><g transform="translate(753.839891, 816.4249)"><g><path d="M 23.96875 -32.078125 C 24.425781 -32.078125 24.945312 -32.15625 25.53125 -32.3125 C 26.125 -32.476562 26.617188 -32.789062 27.015625 -33.25 L 28.296875 -22.59375 L 27.265625 -22.453125 C 26.929688 -23.304688 26.453125 -24.140625 25.828125 -24.953125 C 25.210938 -25.773438 24.492188 -26.492188 23.671875 -27.109375 C 22.859375 -27.734375 21.96875 -28.234375 21 -28.609375 C 20.03125 -28.992188 19.039062 -29.1875 18.03125 -29.1875 C 17.4375 -29.1875 16.820312 -29.109375 16.1875 -28.953125 C 15.550781 -28.804688 14.96875 -28.578125 14.4375 -28.265625 C 13.914062 -27.960938 13.484375 -27.5625 13.140625 -27.0625 C 12.796875 -26.570312 12.625 -25.984375 12.625 -25.296875 C 12.625 -24.835938 12.703125 -24.4375 12.859375 -24.09375 C 13.023438 -23.75 13.304688 -23.4375 13.703125 -23.15625 C 14.097656 -22.882812 14.625 -22.625 15.28125 -22.375 C 15.9375 -22.132812 16.753906 -21.863281 17.734375 -21.5625 L 23.484375 -19.84375 C 24.628906 -19.488281 25.703125 -19.03125 26.703125 -18.46875 C 27.703125 -17.914062 28.566406 -17.253906 29.296875 -16.484375 C 30.035156 -15.710938 30.609375 -14.867188 31.015625 -13.953125 C 31.429688 -13.035156 31.640625 -12.066406 31.640625 -11.046875 C 31.640625 -7.179688 30.28125 -4.242188 27.5625 -2.234375 C 24.84375 -0.222656 20.78125 0.78125 15.375 0.78125 C 14 0.78125 12.710938 0.695312 11.515625 0.53125 C 10.328125 0.375 9.320312 0.210938 8.5 0.046875 C 7.9375 -0.046875 7.367188 -0.148438 6.796875 -0.265625 C 6.222656 -0.378906 5.707031 -0.4375 5.25 -0.4375 C 4.789062 -0.4375 4.347656 -0.351562 3.921875 -0.1875 C 3.503906 -0.03125 3.066406 0.273438 2.609375 0.734375 L 1.515625 -12.96875 L 2.609375 -13.109375 C 2.835938 -11.671875 3.285156 -10.34375 3.953125 -9.125 C 4.628906 -7.914062 5.472656 -6.867188 6.484375 -5.984375 C 7.492188 -5.109375 8.644531 -4.414062 9.9375 -3.90625 C 11.238281 -3.394531 12.625 -3.140625 14.09375 -3.140625 C 15.46875 -3.140625 16.601562 -3.269531 17.5 -3.53125 C 18.40625 -3.800781 19.132812 -4.15625 19.6875 -4.59375 C 20.25 -5.03125 20.644531 -5.546875 20.875 -6.140625 C 21.101562 -6.734375 21.21875 -7.351562 21.21875 -8 C 21.21875 -8.300781 21.164062 -8.609375 21.0625 -8.921875 C 20.96875 -9.234375 20.753906 -9.5625 20.421875 -9.90625 C 20.097656 -10.25 19.609375 -10.597656 18.953125 -10.953125 C 18.304688 -11.316406 17.425781 -11.675781 16.3125 -12.03125 L 11.046875 -13.75 C 9.472656 -14.238281 8.140625 -14.757812 7.046875 -15.3125 C 5.953125 -15.875 5.078125 -16.582031 4.421875 -17.4375 C 3.867188 -18.125 3.425781 -18.875 3.09375 -19.6875 C 2.769531 -20.507812 2.609375 -21.398438 2.609375 -22.359375 C 2.609375 -23.992188 2.882812 -25.460938 3.4375 -26.765625 C 4 -28.078125 4.851562 -29.207031 6 -30.15625 C 7.070312 -31.039062 8.378906 -31.753906 9.921875 -32.296875 C 11.460938 -32.835938 13.164062 -33.109375 15.03125 -33.109375 C 16.738281 -33.109375 18.253906 -33.007812 19.578125 -32.8125 C 20.898438 -32.613281 21.921875 -32.4375 22.640625 -32.28125 C 23.265625 -32.144531 23.707031 -32.078125 23.96875 -32.078125 Z M 23.96875 -32.078125 "/></g></g></g><g fill="#1f7159" fill-opacity="1"><g transform="translate(802.326919, 816.4249)"><g><path d="M 23.96875 -32.078125 C 24.425781 -32.078125 24.945312 -32.15625 25.53125 -32.3125 C 26.125 -32.476562 26.617188 -32.789062 27.015625 -33.25 L 28.296875 -22.59375 L 27.265625 -22.453125 C 26.929688 -23.304688 26.453125 -24.140625 25.828125 -24.953125 C 25.210938 -25.773438 24.492188 -26.492188 23.671875 -27.109375 C 22.859375 -27.734375 21.96875 -28.234375 21 -28.609375 C 20.03125 -28.992188 19.039062 -29.1875 18.03125 -29.1875 C 17.4375 -29.1875 16.820312 -29.109375 16.1875 -28.953125 C 15.550781 -28.804688 14.96875 -28.578125 14.4375 -28.265625 C 13.914062 -27.960938 13.484375 -27.5625 13.140625 -27.0625 C 12.796875 -26.570312 12.625 -25.984375 12.625 -25.296875 C 12.625 -24.835938 12.703125 -24.4375 12.859375 -24.09375 C 13.023438 -23.75 13.304688 -23.4375 13.703125 -23.15625 C 14.097656 -22.882812 14.625 -22.625 15.28125 -22.375 C 15.9375 -22.132812 16.753906 -21.863281 17.734375 -21.5625 L 23.484375 -19.84375 C 24.628906 -19.488281 25.703125 -19.03125 26.703125 -18.46875 C 27.703125 -17.914062 28.566406 -17.253906 29.296875 -16.484375 C 30.035156 -15.710938 30.609375 -14.867188 31.015625 -13.953125 C 31.429688 -13.035156 31.640625 -12.066406 31.640625 -11.046875 C 31.640625 -7.179688 30.28125 -4.242188 27.5625 -2.234375 C 24.84375 -0.222656 20.78125 0.78125 15.375 0.78125 C 14 0.78125 12.710938 0.695312 11.515625 0.53125 C 10.328125 0.375 9.320312 0.210938 8.5 0.046875 C 7.9375 -0.046875 7.367188 -0.148438 6.796875 -0.265625 C 6.222656 -0.378906 5.707031 -0.4375 5.25 -0.4375 C 4.789062 -0.4375 4.347656 -0.351562 3.921875 -0.1875 C 3.503906 -0.03125 3.066406 0.273438 2.609375 0.734375 L 1.515625 -12.96875 L 2.609375 -13.109375 C 2.835938 -11.671875 3.285156 -10.34375 3.953125 -9.125 C 4.628906 -7.914062 5.472656 -6.867188 6.484375 -5.984375 C 7.492188 -5.109375 8.644531 -4.414062 9.9375 -3.90625 C 11.238281 -3.394531 12.625 -3.140625 14.09375 -3.140625 C 15.46875 -3.140625 16.601562 -3.269531 17.5 -3.53125 C 18.40625 -3.800781 19.132812 -4.15625 19.6875 -4.59375 C 20.25 -5.03125 20.644531 -5.546875 20.875 -6.140625 C 21.101562 -6.734375 21.21875 -7.351562 21.21875 -8 C 21.21875 -8.300781 21.164062 -8.609375 21.0625 -8.921875 C 20.96875 -9.234375 20.753906 -9.5625 20.421875 -9.90625 C 20.097656 -10.25 19.609375 -10.597656 18.953125 -10.953125 C 18.304688 -11.316406 17.425781 -11.675781 16.3125 -12.03125 L 11.046875 -13.75 C 9.472656 -14.238281 8.140625 -14.757812 7.046875 -15.3125 C 5.953125 -15.875 5.078125 -16.582031 4.421875 -17.4375 C 3.867188 -18.125 3.425781 -18.875 3.09375 -19.6875 C 2.769531 -20.507812 2.609375 -21.398438 2.609375 -22.359375 C 2.609375 -23.992188 2.882812 -25.460938 3.4375 -26.765625 C 4 -28.078125 4.851562 -29.207031 6 -30.15625 C 7.070312 -31.039062 8.378906 -31.753906 9.921875 -32.296875 C 11.460938 -32.835938 13.164062 -33.109375 15.03125 -33.109375 C 16.738281 -33.109375 18.253906 -33.007812 19.578125 -32.8125 C 20.898438 -32.613281 21.921875 -32.4375 22.640625 -32.28125 C 23.265625 -32.144531 23.707031 -32.078125 23.96875 -32.078125 Z M 23.96875 -32.078125 "/></g></g></g><g fill="#1f7159" fill-opacity="1"><g transform="translate(850.813946, 816.4249)"><g/></g></g><g fill="#1f7159" fill-opacity="1"><g transform="translate(883.581047, 816.4249)"><g/></g></g><g fill="#1f7159" fill-opacity="1"><g transform="translate(425.521322, 897.604245)"><g/></g></g><g fill="#1f7159" fill-opacity="1"><g transform="translate(453.719568, 897.604245)"><g><path d="M 28.25 -32.171875 C 29.363281 -32.171875 30.179688 -32.613281 30.703125 -33.5 L 33.5 -19.546875 L 32.46875 -19.25 C 32.039062 -20.46875 31.484375 -21.65625 30.796875 -22.8125 C 30.109375 -23.976562 29.296875 -25.007812 28.359375 -25.90625 C 27.429688 -26.8125 26.378906 -27.539062 25.203125 -28.09375 C 24.023438 -28.65625 22.726562 -28.9375 21.3125 -28.9375 C 19.78125 -28.9375 18.441406 -28.613281 17.296875 -27.96875 C 16.148438 -27.332031 15.191406 -26.5 14.421875 -25.46875 C 13.648438 -24.4375 13.066406 -23.253906 12.671875 -21.921875 C 12.273438 -20.597656 12.078125 -19.25 12.078125 -17.875 C 12.078125 -15.6875 12.40625 -13.695312 13.0625 -11.90625 C 13.71875 -10.125 14.609375 -8.601562 15.734375 -7.34375 C 16.867188 -6.082031 18.179688 -5.109375 19.671875 -4.421875 C 21.160156 -3.734375 22.742188 -3.390625 24.421875 -3.390625 C 26.679688 -3.390625 28.671875 -3.984375 30.390625 -5.171875 C 32.109375 -6.367188 33.375 -8.003906 34.1875 -10.078125 L 35.328125 -9.671875 L 31.4375 1.078125 C 31.238281 0.785156 30.984375 0.582031 30.671875 0.46875 C 30.367188 0.351562 29.90625 0.296875 29.28125 0.296875 C 28.945312 0.296875 28.5 0.316406 27.9375 0.359375 C 27.382812 0.410156 26.78125 0.46875 26.125 0.53125 C 25.476562 0.601562 24.800781 0.660156 24.09375 0.703125 C 23.394531 0.753906 22.734375 0.78125 22.109375 0.78125 C 19.390625 0.78125 16.773438 0.421875 14.265625 -0.296875 C 11.765625 -1.015625 9.554688 -2.109375 7.640625 -3.578125 C 5.722656 -5.054688 4.179688 -6.898438 3.015625 -9.109375 C 1.859375 -11.316406 1.28125 -13.914062 1.28125 -16.90625 C 1.28125 -19.519531 1.753906 -21.832031 2.703125 -23.84375 C 3.648438 -25.863281 4.953125 -27.5625 6.609375 -28.9375 C 8.265625 -30.3125 10.1875 -31.347656 12.375 -32.046875 C 14.570312 -32.753906 16.914062 -33.109375 19.40625 -33.109375 C 20.78125 -33.109375 21.941406 -33.050781 22.890625 -32.9375 C 23.835938 -32.820312 24.738281 -32.679688 25.59375 -32.515625 C 26.144531 -32.421875 26.632812 -32.335938 27.0625 -32.265625 C 27.488281 -32.203125 27.882812 -32.171875 28.25 -32.171875 Z M 28.25 -32.171875 "/></g></g></g><g fill="#1f7159" fill-opacity="1"><g transform="translate(500.5853, 897.604245)"><g><path d="M 18.421875 -28.9375 C 17.671875 -28.9375 16.84375 -28.695312 15.9375 -28.21875 C 15.039062 -27.75 14.210938 -26.828125 13.453125 -25.453125 C 12.992188 -24.597656 12.632812 -23.578125 12.375 -22.390625 C 12.113281 -21.210938 11.984375 -19.773438 11.984375 -18.078125 C 11.984375 -15.617188 12.203125 -13.472656 12.640625 -11.640625 C 13.085938 -9.804688 13.679688 -8.273438 14.421875 -7.046875 C 15.160156 -5.816406 16.007812 -4.898438 16.96875 -4.296875 C 17.9375 -3.691406 18.925781 -3.390625 19.9375 -3.390625 C 20.269531 -3.390625 20.671875 -3.4375 21.140625 -3.53125 C 21.617188 -3.632812 22.117188 -3.84375 22.640625 -4.15625 C 23.171875 -4.46875 23.6875 -4.925781 24.1875 -5.53125 C 24.695312 -6.132812 25.132812 -6.925781 25.5 -7.90625 C 25.757812 -8.65625 25.96875 -9.546875 26.125 -10.578125 C 26.289062 -11.617188 26.375 -12.828125 26.375 -14.203125 C 26.375 -16.984375 26.148438 -19.253906 25.703125 -21.015625 C 25.265625 -22.785156 24.6875 -24.226562 23.96875 -25.34375 C 23.050781 -26.75 22.101562 -27.695312 21.125 -28.1875 C 20.144531 -28.6875 19.242188 -28.9375 18.421875 -28.9375 Z M 1.171875 -16.265625 C 1.171875 -18.910156 1.644531 -21.273438 2.59375 -23.359375 C 3.550781 -25.441406 4.847656 -27.207031 6.484375 -28.65625 C 8.117188 -30.113281 10.039062 -31.21875 12.25 -31.96875 C 14.46875 -32.726562 16.835938 -33.109375 19.359375 -33.109375 C 22.367188 -33.109375 25.019531 -32.65625 27.3125 -31.75 C 29.601562 -30.851562 31.488281 -29.585938 32.96875 -27.953125 C 34.40625 -26.378906 35.46875 -24.546875 36.15625 -22.453125 C 36.84375 -20.359375 37.1875 -18.179688 37.1875 -15.921875 C 37.1875 -13.460938 36.773438 -11.25 35.953125 -9.28125 C 35.140625 -7.320312 34.160156 -5.71875 33.015625 -4.46875 C 32.160156 -3.582031 31.203125 -2.800781 30.140625 -2.125 C 29.078125 -1.457031 27.9375 -0.910156 26.71875 -0.484375 C 25.507812 -0.0664062 24.273438 0.242188 23.015625 0.453125 C 21.753906 0.671875 20.535156 0.78125 19.359375 0.78125 C 18.109375 0.78125 16.878906 0.691406 15.671875 0.515625 C 14.460938 0.335938 13.347656 0.0820312 12.328125 -0.25 C 10.460938 -0.800781 8.863281 -1.566406 7.53125 -2.546875 C 6.207031 -3.535156 5.125 -4.648438 4.28125 -5.890625 C 3.226562 -7.367188 2.445312 -9 1.9375 -10.78125 C 1.425781 -12.5625 1.171875 -14.390625 1.171875 -16.265625 Z M 1.171875 -16.265625 "/></g></g></g><g fill="#1f7159" fill-opacity="1"><g transform="translate(550.398543, 897.604245)"><g><path d="M 17.09375 -32.328125 L 17.09375 -31.09375 C 16.863281 -31.03125 16.617188 -30.90625 16.359375 -30.71875 C 16.097656 -30.539062 15.96875 -30.273438 15.96875 -29.921875 C 15.96875 -29.660156 16.007812 -29.359375 16.09375 -29.015625 C 16.175781 -28.671875 16.394531 -28.117188 16.75 -27.359375 L 19.703125 -20.6875 L 23.234375 -27.65625 C 23.660156 -28.507812 23.894531 -29.09375 23.9375 -29.40625 C 23.988281 -29.71875 24.015625 -29.890625 24.015625 -29.921875 C 24.015625 -30.503906 23.738281 -30.894531 23.1875 -31.09375 L 23.1875 -32.328125 L 38.765625 -32.328125 L 38.765625 -31.09375 C 38.398438 -31.09375 38.0625 -31.039062 37.75 -30.9375 C 37.4375 -30.84375 37.148438 -30.628906 36.890625 -30.296875 C 36.628906 -29.972656 36.425781 -29.5 36.28125 -28.875 C 36.132812 -28.257812 36.0625 -27.441406 36.0625 -26.421875 L 36.0625 -5.890625 C 36.0625 -4.847656 36.140625 -4.019531 36.296875 -3.40625 C 36.460938 -2.800781 36.664062 -2.332031 36.90625 -2 C 37.15625 -1.675781 37.441406 -1.46875 37.765625 -1.375 C 38.097656 -1.28125 38.429688 -1.234375 38.765625 -1.234375 L 38.765625 0 L 23.1875 0 L 23.1875 -1.234375 C 23.507812 -1.234375 23.832031 -1.28125 24.15625 -1.375 C 24.488281 -1.46875 24.785156 -1.671875 25.046875 -1.984375 C 25.316406 -2.296875 25.539062 -2.765625 25.71875 -3.390625 C 25.894531 -4.015625 25.984375 -4.847656 25.984375 -5.890625 L 25.984375 -25.796875 L 16.5625 -6.4375 L 7.3125 -25.796875 L 7.3125 -6.140625 C 7.3125 -5.085938 7.394531 -4.242188 7.5625 -3.609375 C 7.726562 -2.972656 7.941406 -2.484375 8.203125 -2.140625 C 8.460938 -1.796875 8.769531 -1.554688 9.125 -1.421875 C 9.488281 -1.296875 9.867188 -1.234375 10.265625 -1.234375 L 10.265625 0 L 0.546875 0 L 0.546875 -1.234375 C 0.898438 -1.234375 1.238281 -1.289062 1.5625 -1.40625 C 1.894531 -1.519531 2.175781 -1.738281 2.40625 -2.0625 C 2.632812 -2.382812 2.8125 -2.847656 2.9375 -3.453125 C 3.070312 -4.066406 3.140625 -4.863281 3.140625 -5.84375 L 3.140625 -26.484375 C 3.140625 -27.460938 3.070312 -28.253906 2.9375 -28.859375 C 2.8125 -29.460938 2.625 -29.925781 2.375 -30.25 C 2.132812 -30.582031 1.859375 -30.804688 1.546875 -30.921875 C 1.234375 -31.035156 0.898438 -31.09375 0.546875 -31.09375 L 0.546875 -32.328125 Z M 17.09375 -32.328125 "/></g></g></g><g fill="#1f7159" fill-opacity="1"><g transform="translate(601.194275, 897.604245)"><g><path d="M 17.09375 -32.328125 L 17.09375 -31.09375 C 16.863281 -31.03125 16.617188 -30.90625 16.359375 -30.71875 C 16.097656 -30.539062 15.96875 -30.273438 15.96875 -29.921875 C 15.96875 -29.660156 16.007812 -29.359375 16.09375 -29.015625 C 16.175781 -28.671875 16.394531 -28.117188 16.75 -27.359375 L 19.703125 -20.6875 L 23.234375 -27.65625 C 23.660156 -28.507812 23.894531 -29.09375 23.9375 -29.40625 C 23.988281 -29.71875 24.015625 -29.890625 24.015625 -29.921875 C 24.015625 -30.503906 23.738281 -30.894531 23.1875 -31.09375 L 23.1875 -32.328125 L 38.765625 -32.328125 L 38.765625 -31.09375 C 38.398438 -31.09375 38.0625 -31.039062 37.75 -30.9375 C 37.4375 -30.84375 37.148438 -30.628906 36.890625 -30.296875 C 36.628906 -29.972656 36.425781 -29.5 36.28125 -28.875 C 36.132812 -28.257812 36.0625 -27.441406 36.0625 -26.421875 L 36.0625 -5.890625 C 36.0625 -4.847656 36.140625 -4.019531 36.296875 -3.40625 C 36.460938 -2.800781 36.664062 -2.332031 36.90625 -2 C 37.15625 -1.675781 37.441406 -1.46875 37.765625 -1.375 C 38.097656 -1.28125 38.429688 -1.234375 38.765625 -1.234375 L 38.765625 0 L 23.1875 0 L 23.1875 -1.234375 C 23.507812 -1.234375 23.832031 -1.28125 24.15625 -1.375 C 24.488281 -1.46875 24.785156 -1.671875 25.046875 -1.984375 C 25.316406 -2.296875 25.539062 -2.765625 25.71875 -3.390625 C 25.894531 -4.015625 25.984375 -4.847656 25.984375 -5.890625 L 25.984375 -25.796875 L 16.5625 -6.4375 L 7.3125 -25.796875 L 7.3125 -6.140625 C 7.3125 -5.085938 7.394531 -4.242188 7.5625 -3.609375 C 7.726562 -2.972656 7.941406 -2.484375 8.203125 -2.140625 C 8.460938 -1.796875 8.769531 -1.554688 9.125 -1.421875 C 9.488281 -1.296875 9.867188 -1.234375 10.265625 -1.234375 L 10.265625 0 L 0.546875 0 L 0.546875 -1.234375 C 0.898438 -1.234375 1.238281 -1.289062 1.5625 -1.40625 C 1.894531 -1.519531 2.175781 -1.738281 2.40625 -2.0625 C 2.632812 -2.382812 2.8125 -2.847656 2.9375 -3.453125 C 3.070312 -4.066406 3.140625 -4.863281 3.140625 -5.84375 L 3.140625 -26.484375 C 3.140625 -27.460938 3.070312 -28.253906 2.9375 -28.859375 C 2.8125 -29.460938 2.625 -29.925781 2.375 -30.25 C 2.132812 -30.582031 1.859375 -30.804688 1.546875 -30.921875 C 1.234375 -31.035156 0.898438 -31.09375 0.546875 -31.09375 L 0.546875 -32.328125 Z M 17.09375 -32.328125 "/></g></g></g><g fill="#1f7159" fill-opacity="1"><g transform="translate(651.99003, 897.604245)"><g><path d="M 16.109375 -32.328125 L 16.109375 -31.09375 C 15.753906 -31.09375 15.410156 -31.035156 15.078125 -30.921875 C 14.753906 -30.804688 14.46875 -30.582031 14.21875 -30.25 C 13.976562 -29.925781 13.78125 -29.460938 13.625 -28.859375 C 13.476562 -28.253906 13.40625 -27.441406 13.40625 -26.421875 L 13.40625 -5.890625 C 13.40625 -4.847656 13.476562 -4.019531 13.625 -3.40625 C 13.78125 -2.800781 13.976562 -2.34375 14.21875 -2.03125 C 14.46875 -1.726562 14.753906 -1.519531 15.078125 -1.40625 C 15.410156 -1.289062 15.753906 -1.234375 16.109375 -1.234375 L 16.109375 0 L 0.640625 0 L 0.640625 -1.234375 C 0.992188 -1.234375 1.332031 -1.289062 1.65625 -1.40625 C 1.988281 -1.519531 2.273438 -1.738281 2.515625 -2.0625 C 2.765625 -2.382812 2.960938 -2.847656 3.109375 -3.453125 C 3.265625 -4.066406 3.34375 -4.878906 3.34375 -5.890625 L 3.34375 -26.421875 C 3.34375 -27.441406 3.257812 -28.257812 3.09375 -28.875 C 2.925781 -29.5 2.71875 -29.972656 2.46875 -30.296875 C 2.226562 -30.628906 1.941406 -30.84375 1.609375 -30.9375 C 1.285156 -31.039062 0.960938 -31.09375 0.640625 -31.09375 L 0.640625 -32.328125 Z M 16.109375 -32.328125 "/></g></g></g><g fill="#1f7159" fill-opacity="1"><g transform="translate(680.188276, 897.604245)"><g><path d="M 1.859375 -33.109375 C 1.898438 -33.046875 1.96875 -32.960938 2.0625 -32.859375 C 2.15625 -32.765625 2.328125 -32.675781 2.578125 -32.59375 C 2.828125 -32.507812 3.171875 -32.441406 3.609375 -32.390625 C 4.054688 -32.347656 4.65625 -32.328125 5.40625 -32.328125 L 23.828125 -32.328125 C 24.609375 -32.328125 25.234375 -32.34375 25.703125 -32.375 C 26.179688 -32.40625 26.550781 -32.453125 26.8125 -32.515625 C 27.082031 -32.585938 27.28125 -32.671875 27.40625 -32.765625 C 27.539062 -32.859375 27.65625 -32.972656 27.75 -33.109375 L 30.015625 -21.90625 L 29.03125 -21.71875 C 28.175781 -23.9375 27.019531 -25.617188 25.5625 -26.765625 C 24.113281 -27.921875 22.191406 -28.578125 19.796875 -28.734375 L 19.796875 -6.140625 C 19.796875 -4.242188 20.097656 -2.957031 20.703125 -2.28125 C 21.304688 -1.613281 22.296875 -1.265625 23.671875 -1.234375 L 23.671875 0 L 5.84375 0 L 5.84375 -1.234375 C 7.21875 -1.265625 8.207031 -1.613281 8.8125 -2.28125 C 9.425781 -2.957031 9.734375 -4.242188 9.734375 -6.140625 L 9.734375 -28.734375 C 7.503906 -28.671875 5.5625 -28.070312 3.90625 -26.9375 C 2.25 -25.8125 1.109375 -24.070312 0.484375 -21.71875 L -0.546875 -21.90625 Z M 1.859375 -33.109375 "/></g></g></g><g fill="#1f7159" fill-opacity="1"><g transform="translate(721.159008, 897.604245)"><g><path d="M 1.859375 -33.109375 C 1.898438 -33.046875 1.96875 -32.960938 2.0625 -32.859375 C 2.15625 -32.765625 2.328125 -32.675781 2.578125 -32.59375 C 2.828125 -32.507812 3.171875 -32.441406 3.609375 -32.390625 C 4.054688 -32.347656 4.65625 -32.328125 5.40625 -32.328125 L 23.828125 -32.328125 C 24.609375 -32.328125 25.234375 -32.34375 25.703125 -32.375 C 26.179688 -32.40625 26.550781 -32.453125 26.8125 -32.515625 C 27.082031 -32.585938 27.28125 -32.671875 27.40625 -32.765625 C 27.539062 -32.859375 27.65625 -32.972656 27.75 -33.109375 L 30.015625 -21.90625 L 29.03125 -21.71875 C 28.175781 -23.9375 27.019531 -25.617188 25.5625 -26.765625 C 24.113281 -27.921875 22.191406 -28.578125 19.796875 -28.734375 L 19.796875 -6.140625 C 19.796875 -4.242188 20.097656 -2.957031 20.703125 -2.28125 C 21.304688 -1.613281 22.296875 -1.265625 23.671875 -1.234375 L 23.671875 0 L 5.84375 0 L 5.84375 -1.234375 C 7.21875 -1.265625 8.207031 -1.613281 8.8125 -2.28125 C 9.425781 -2.957031 9.734375 -4.242188 9.734375 -6.140625 L 9.734375 -28.734375 C 7.503906 -28.671875 5.5625 -28.070312 3.90625 -26.9375 C 2.25 -25.8125 1.109375 -24.070312 0.484375 -21.71875 L -0.546875 -21.90625 Z M 1.859375 -33.109375 "/></g></g></g><g fill="#1f7159" fill-opacity="1"><g transform="translate(762.129741, 897.604245)"><g><path d="M 23.328125 -32.328125 C 24.015625 -32.328125 24.5625 -32.34375 24.96875 -32.375 C 25.382812 -32.40625 25.722656 -32.453125 25.984375 -32.515625 C 26.242188 -32.585938 26.445312 -32.671875 26.59375 -32.765625 C 26.75 -32.859375 26.890625 -32.972656 27.015625 -33.109375 L 29.53125 -21.8125 L 28.4375 -21.46875 C 27.6875 -23.851562 26.359375 -25.71875 24.453125 -27.0625 C 22.554688 -28.40625 20.347656 -29.078125 17.828125 -29.078125 C 16.847656 -29.078125 16.0625 -29.007812 15.46875 -28.875 C 14.882812 -28.75 14.4375 -28.5 14.125 -28.125 C 13.8125 -27.75 13.601562 -27.222656 13.5 -26.546875 C 13.40625 -25.878906 13.359375 -24.988281 13.359375 -23.875 L 13.359375 -21.765625 L 15.03125 -21.765625 C 15.425781 -21.765625 15.867188 -21.765625 16.359375 -21.765625 C 16.847656 -21.765625 17.335938 -21.796875 17.828125 -21.859375 C 18.316406 -21.921875 18.789062 -22.019531 19.25 -22.15625 C 19.707031 -22.289062 20.085938 -22.488281 20.390625 -22.75 C 21.046875 -23.300781 21.375 -24.296875 21.375 -25.734375 L 22.359375 -25.890625 L 24.515625 -13.40625 L 23.53125 -13.3125 C 23.070312 -14.425781 22.570312 -15.328125 22.03125 -16.015625 C 21.488281 -16.703125 20.875 -17.234375 20.1875 -17.609375 C 19.5 -17.984375 18.710938 -18.226562 17.828125 -18.34375 C 16.941406 -18.457031 15.941406 -18.515625 14.828125 -18.515625 L 13.359375 -18.515625 L 13.359375 -7.609375 C 13.359375 -5.878906 13.726562 -4.71875 14.46875 -4.125 C 15.207031 -3.539062 16.425781 -3.25 18.125 -3.25 C 19.632812 -3.25 20.992188 -3.453125 22.203125 -3.859375 C 23.410156 -4.265625 24.472656 -4.78125 25.390625 -5.40625 C 26.304688 -6.03125 27.097656 -6.707031 27.765625 -7.4375 C 28.441406 -8.175781 29 -8.890625 29.4375 -9.578125 C 29.882812 -10.265625 30.238281 -10.863281 30.5 -11.375 C 30.769531 -11.882812 30.953125 -12.21875 31.046875 -12.375 L 32.078125 -11.984375 L 27.90625 0.78125 C 27.738281 0.625 27.472656 0.453125 27.109375 0.265625 C 26.753906 0.0859375 26.117188 0 25.203125 0 L 0.59375 0 L 0.59375 -1.234375 C 0.914062 -1.234375 1.238281 -1.28125 1.5625 -1.375 C 1.894531 -1.46875 2.191406 -1.675781 2.453125 -2 C 2.710938 -2.332031 2.914062 -2.8125 3.0625 -3.4375 C 3.21875 -4.0625 3.296875 -4.878906 3.296875 -5.890625 L 3.296875 -26.421875 C 3.296875 -27.441406 3.21875 -28.257812 3.0625 -28.875 C 2.914062 -29.5 2.710938 -29.96875 2.453125 -30.28125 C 2.191406 -30.59375 1.894531 -30.804688 1.5625 -30.921875 C 1.238281 -31.035156 0.914062 -31.09375 0.59375 -31.09375 L 0.59375 -32.328125 Z M 23.328125 -32.328125 "/></g></g></g><g fill="#1f7159" fill-opacity="1"><g transform="translate(806.047985, 897.604245)"><g><path d="M 23.328125 -32.328125 C 24.015625 -32.328125 24.5625 -32.34375 24.96875 -32.375 C 25.382812 -32.40625 25.722656 -32.453125 25.984375 -32.515625 C 26.242188 -32.585938 26.445312 -32.671875 26.59375 -32.765625 C 26.75 -32.859375 26.890625 -32.972656 27.015625 -33.109375 L 29.53125 -21.8125 L 28.4375 -21.46875 C 27.6875 -23.851562 26.359375 -25.71875 24.453125 -27.0625 C 22.554688 -28.40625 20.347656 -29.078125 17.828125 -29.078125 C 16.847656 -29.078125 16.0625 -29.007812 15.46875 -28.875 C 14.882812 -28.75 14.4375 -28.5 14.125 -28.125 C 13.8125 -27.75 13.601562 -27.222656 13.5 -26.546875 C 13.40625 -25.878906 13.359375 -24.988281 13.359375 -23.875 L 13.359375 -21.765625 L 15.03125 -21.765625 C 15.425781 -21.765625 15.867188 -21.765625 16.359375 -21.765625 C 16.847656 -21.765625 17.335938 -21.796875 17.828125 -21.859375 C 18.316406 -21.921875 18.789062 -22.019531 19.25 -22.15625 C 19.707031 -22.289062 20.085938 -22.488281 20.390625 -22.75 C 21.046875 -23.300781 21.375 -24.296875 21.375 -25.734375 L 22.359375 -25.890625 L 24.515625 -13.40625 L 23.53125 -13.3125 C 23.070312 -14.425781 22.570312 -15.328125 22.03125 -16.015625 C 21.488281 -16.703125 20.875 -17.234375 20.1875 -17.609375 C 19.5 -17.984375 18.710938 -18.226562 17.828125 -18.34375 C 16.941406 -18.457031 15.941406 -18.515625 14.828125 -18.515625 L 13.359375 -18.515625 L 13.359375 -7.609375 C 13.359375 -5.878906 13.726562 -4.71875 14.46875 -4.125 C 15.207031 -3.539062 16.425781 -3.25 18.125 -3.25 C 19.632812 -3.25 20.992188 -3.453125 22.203125 -3.859375 C 23.410156 -4.265625 24.472656 -4.78125 25.390625 -5.40625 C 26.304688 -6.03125 27.097656 -6.707031 27.765625 -7.4375 C 28.441406 -8.175781 29 -8.890625 29.4375 -9.578125 C 29.882812 -10.265625 30.238281 -10.863281 30.5 -11.375 C 30.769531 -11.882812 30.953125 -12.21875 31.046875 -12.375 L 32.078125 -11.984375 L 27.90625 0.78125 C 27.738281 0.625 27.472656 0.453125 27.109375 0.265625 C 26.753906 0.0859375 26.117188 0 25.203125 0 L 0.59375 0 L 0.59375 -1.234375 C 0.914062 -1.234375 1.238281 -1.28125 1.5625 -1.375 C 1.894531 -1.46875 2.191406 -1.675781 2.453125 -2 C 2.710938 -2.332031 2.914062 -2.8125 3.0625 -3.4375 C 3.21875 -4.0625 3.296875 -4.878906 3.296875 -5.890625 L 3.296875 -26.421875 C 3.296875 -27.441406 3.21875 -28.257812 3.0625 -28.875 C 2.914062 -29.5 2.710938 -29.96875 2.453125 -30.28125 C 2.191406 -30.59375 1.894531 -30.804688 1.5625 -30.921875 C 1.238281 -31.035156 0.914062 -31.09375 0.59375 -31.09375 L 0.59375 -32.328125 Z M 23.328125 -32.328125 "/></g></g></g><g fill="#1f7159" fill-opacity="1"><g transform="translate(849.966229, 897.604245)"><g/></g></g></svg>