<svg width="192" height="192" viewBox="0 0 192 192" fill="none" xmlns="http://www.w3.org/2000/svg">
<g clip-path="url(#clip0_101_2)">
<path d="M211.2 -19.2H-19.2V211.2H211.2V-19.2Z" fill="white"/>
<path d="M211.2 -19.2H-19.2V211.2H211.2V-19.2Z" fill="#FFECBC"/>
<path d="M61.9808 131.068C42.7734 140.003 31.4903 92.589 31.4903 92.589C26.7517 132.874 65.0141 155.672 65.0141 155.672C100.606 94.9877 130.233 99.4523 130.233 99.4523C98.1192 91.5347 85.1536 120.287 61.9808 131.068ZM56.6983 124.593C64.0878 125.643 70.8498 119.91 71.8056 111.79C72.7598 103.67 67.5458 96.2354 60.1579 95.1866C52.7692 94.136 46.0055 99.8688 45.0505 107.989C44.0964 116.109 49.3104 123.543 56.6983 124.593Z" fill="#1F7159"/>
<mask id="mask0_101_2" style="mask-type:luminance" maskUnits="userSpaceOnUse" x="103" y="34" width="26" height="54">
<path d="M103.144 34H128.697V87.8622H103.144V34Z" fill="white"/>
</mask>
<g mask="url(#mask0_101_2)">
<path d="M115.877 34.0105C94.2322 66.1429 105.347 81.8759 112.035 87.6291C111.916 79.1239 112.814 67.7002 115.877 52.7018C118.94 67.7002 119.838 79.1239 119.719 87.6291C126.407 81.8759 137.521 66.1429 115.877 34.0105Z" fill="#5FB53A"/>
</g>
<mask id="mask1_101_2" style="mask-type:luminance" maskUnits="userSpaceOnUse" x="130" y="63" width="42" height="38">
<path d="M130.213 63.823H171.957V100.001H130.213V63.823Z" fill="white"/>
</mask>
<g mask="url(#mask1_101_2)">
<path d="M171.917 63.8326C135.544 63.5369 130.523 82.6764 130.233 92.0053C136.416 86.8899 145.343 80.9582 158.175 74.8434C148.951 86.4 141.082 93.9261 134.759 98.8305C142.928 101.382 161.042 101.985 171.917 63.8326Z" fill="#5FB53A"/>
</g>
<path d="M160.637 139.822C148.866 101.993 130.772 103.114 122.666 105.896C129.102 110.619 137.146 117.918 146.64 129.207C133.667 123.461 124.604 117.786 118.303 112.848C118.813 122.166 124.283 141.156 160.637 139.822Z" fill="#5FB53A"/>
<path d="M57.1508 74.3606C92.1329 63.4037 101.619 80.376 104.165 89.281C96.9628 86.1654 86.9197 83.0685 73.0677 80.9403C84.7636 89.3712 94.1748 94.3146 101.46 97.1865C94.207 102.042 76.8961 107.938 57.1508 74.3606Z" fill="#5FB53A"/>
<mask id="mask2_101_2" style="mask-type:luminance" maskUnits="userSpaceOnUse" x="115" y="104" width="51" height="38">
<path d="M115.523 104.489H165.491V141.877H115.523V104.489Z" fill="white"/>
</mask>
<g mask="url(#mask2_101_2)">
<path d="M115.523 104.489H165.485V141.877H115.523V104.489Z" fill="#FFECBC"/>
</g>
<path d="M24.5391 74.6211L24.7591 74.9149C24.3759 75.3166 24.3615 75.7545 24.7151 76.2277C24.7963 76.3346 24.9029 76.4527 25.0331 76.581C25.1643 76.7074 25.292 76.8283 25.4155 76.9417L29.611 80.9842L26.4238 74.8703C26.3789 74.781 26.3409 74.7122 26.3087 74.662C26.2749 74.61 26.2377 74.557 26.1971 74.5021C25.9315 74.1479 25.6413 74.1135 25.3275 74.398L25.1076 74.1042L28.2373 71.2592L28.4572 71.553C28.3219 71.7417 28.2542 71.9128 28.2542 72.0662C28.2559 72.2178 28.3304 72.3916 28.4776 72.5869C28.5063 72.6268 28.5486 72.6752 28.6027 72.7319C28.6569 72.7895 28.7127 72.8472 28.7719 72.9067C28.8303 72.9662 28.8819 73.0183 28.9276 73.0629C28.9724 73.1075 29.0037 73.1428 29.0223 73.167L33.4851 77.4661L30.4569 71.4042C30.4112 71.3131 30.3664 71.2211 30.3216 71.129C30.2784 71.0379 30.2268 70.9524 30.1659 70.8724C29.9426 70.5731 29.677 70.5229 29.3708 70.7237L29.1509 70.4299L31.1471 68.615L31.3671 68.9088C31.2588 69.0753 31.1886 69.2287 31.1573 69.37C31.1251 69.5113 31.1184 69.647 31.137 69.7753C31.1548 69.9046 31.1928 70.0357 31.252 70.1696C31.3104 70.3016 31.3747 70.4392 31.4449 70.5824L34.172 76.2463C34.2667 76.4527 34.3547 76.6349 34.4359 76.793C34.5171 76.9492 34.5966 77.0784 34.6761 77.1797C34.7751 77.3136 34.8775 77.3982 34.984 77.4326C35.0898 77.468 35.2183 77.4363 35.3698 77.3397L35.5931 77.6334L32.1419 80.7685L31.9186 80.4747C32.1165 80.2572 32.1267 80.0303 31.949 79.7941C31.8763 79.7002 31.7705 79.5915 31.631 79.4669L28.0614 76.1161L30.3723 80.5565C30.4214 80.6532 30.4679 80.7425 30.511 80.8243C30.5533 80.9042 30.599 80.9758 30.6464 81.04C30.7276 81.1497 30.8054 81.2101 30.8798 81.2222C30.9543 81.2324 31.0532 81.2073 31.1776 81.1478L31.4009 81.4416L28.2035 84.3461L27.9802 84.0523C28.1764 83.8125 28.1908 83.5819 28.0242 83.3606C27.9836 83.3067 27.91 83.2304 27.8042 83.1337C27.7002 83.0352 27.6088 82.9478 27.5302 82.8734L23.1553 78.8124C22.9007 78.5669 22.6782 78.3754 22.4887 78.2359C22.2993 78.0974 22.1326 78.0053 21.988 77.9607C21.8442 77.9142 21.7139 77.9077 21.5989 77.9421C21.4821 77.9747 21.3553 78.0379 21.2199 78.1318L21 77.838L24.5391 74.6211Z" fill="#1F7159"/>
<path d="M39.6828 64.3635C39.4976 64.4751 39.325 64.6639 39.1651 64.9288C39.0053 65.1919 38.924 65.5676 38.9215 66.0557C38.9215 66.356 38.9689 66.6869 39.0636 67.0486C39.16 67.4112 39.3225 67.824 39.5508 68.287C39.8824 68.962 40.2259 69.5171 40.5828 69.9531C40.9415 70.3901 41.295 70.722 41.6452 70.9498C41.9946 71.1757 42.3295 71.2994 42.6501 71.3217C42.9724 71.344 43.2609 71.2798 43.5163 71.1283C43.5975 71.079 43.6897 71.0056 43.7938 70.9089C43.8995 70.8122 43.9968 70.6839 44.0847 70.5221C44.1727 70.3585 44.2378 70.1567 44.281 69.9159C44.3258 69.6732 44.3284 69.3906 44.2878 69.068C44.2514 68.8225 44.1837 68.5473 44.0847 68.2424C43.9875 67.9356 43.8454 67.5934 43.6584 67.216C43.2837 66.4554 42.9217 65.866 42.5723 65.4495C42.2221 65.0311 41.8821 64.7224 41.5505 64.5235C41.1326 64.2734 40.7689 64.1544 40.4576 64.1664C40.1463 64.1767 39.8875 64.2427 39.6828 64.3635ZM37.1046 70.3957C36.7459 69.6667 36.5446 68.9481 36.4989 68.2387C36.4541 67.5274 36.5378 66.8515 36.7493 66.2119C36.9591 65.5703 37.289 64.9809 37.7373 64.4454C38.1864 63.9098 38.7253 63.4552 39.3546 63.0805C40.1032 62.6342 40.8239 62.3646 41.5167 62.2698C42.2086 62.1759 42.8498 62.2438 43.4385 62.4743C44.0086 62.69 44.5221 63.035 44.978 63.5082C45.4331 63.9796 45.812 64.5225 46.1148 65.1371C46.4481 65.8121 46.6461 66.4787 46.707 67.1379C46.7679 67.7952 46.7408 68.38 46.6258 68.8932C46.5327 69.2632 46.3991 69.6175 46.2231 69.9568C46.0489 70.2971 45.8391 70.6169 45.5938 70.9163C45.3502 71.2138 45.0846 71.4853 44.7987 71.7307C44.5144 71.9762 44.2252 72.1863 43.9325 72.3592C43.6212 72.5452 43.3032 72.7042 42.9783 72.8353C42.6535 72.9645 42.3405 73.0603 42.0411 73.1216C41.5014 73.2481 41.0007 73.276 40.5388 73.2034C40.0761 73.1291 39.654 72.984 39.2734 72.7683C38.8132 72.521 38.4004 72.191 38.035 71.7791C37.6679 71.3654 37.3575 70.9042 37.1046 70.3957Z" fill="#1F7159"/>
<path d="M52.7716 58.0206C52.4552 58.1377 52.2319 58.2874 52.1016 58.4706C51.9705 58.6519 51.9697 58.9503 52.0982 59.3668L52.7648 61.5536C52.9813 61.4001 53.1953 61.2254 53.4077 61.0292C53.6217 60.8339 53.8069 60.6155 53.9626 60.3747C54.1199 60.132 54.2307 59.8726 54.2941 59.5974C54.3567 59.3203 54.3415 59.0275 54.2468 58.7197C54.152 58.4101 53.9829 58.1796 53.7392 58.028C53.4973 57.8746 53.175 57.8718 52.7716 58.0206ZM54.1182 56.4623C54.6003 56.2838 55.0064 56.1853 55.3363 56.1648C55.6678 56.1453 55.936 56.1751 56.1415 56.2541C56.3462 56.334 56.5044 56.4503 56.6152 56.6037C56.7277 56.7552 56.8089 56.9142 56.8588 57.0797C56.9172 57.2712 56.9477 57.4795 56.9502 57.7045C56.9544 57.9276 56.9197 58.1721 56.8453 58.4371C56.7709 58.703 56.644 58.9866 56.4664 59.2887C56.2904 59.5918 56.0502 59.9163 55.7457 60.2631C56.375 60.6006 56.984 61.0431 57.5728 61.5907C58.1615 62.1393 58.6961 62.7715 59.1765 63.4874C59.4608 63.8993 59.7078 64.1549 59.9175 64.2535C60.129 64.353 60.332 64.3716 60.5266 64.3093L60.6382 64.6737L56.2058 66.3063L56.0942 65.9419C56.243 65.888 56.3615 65.8117 56.4494 65.715C56.5391 65.6183 56.5526 65.4677 56.49 65.2613C56.4224 65.041 56.2617 64.7844 56.0096 64.4915C55.7592 64.1968 55.4767 63.9058 55.1637 63.6176C54.8524 63.3275 54.542 63.0597 54.2332 62.8143C53.9236 62.5688 53.6767 62.3885 53.4923 62.2713L53.0862 62.6135L53.8814 65.2241C53.9761 65.5347 54.0691 65.7727 54.1622 65.9382C54.2569 66.1018 54.3534 66.2171 54.4532 66.284C54.5521 66.3491 54.6477 66.3826 54.7408 66.3844C54.833 66.3872 54.9277 66.3714 55.025 66.3361L55.1366 66.7006L50.9952 68.2253L50.8836 67.8609C50.98 67.8237 51.0671 67.7735 51.1441 67.7084C51.2202 67.6414 51.2769 67.5485 51.3133 67.4295C51.3513 67.3086 51.3623 67.1505 51.3471 66.9572C51.3336 66.7638 51.2803 66.5174 51.1881 66.2171L49.3407 60.1552C49.251 59.8559 49.1563 59.6216 49.0565 59.4524C48.955 59.2841 48.8568 59.1651 48.7621 59.0953C48.6674 59.0238 48.5718 58.9894 48.4745 58.9912C48.3781 58.994 48.285 59.0117 48.1971 59.0433L48.0888 58.6825L54.1182 56.4623Z" fill="#1F7159"/>
<path d="M69.2006 52.8964C69.5119 52.8443 69.7217 52.6695 69.8299 52.372L71.2206 56.5298L70.9465 56.6711C70.7748 56.3196 70.5675 55.9812 70.3239 55.6558C70.0803 55.3313 69.8079 55.0524 69.5085 54.8191C69.2082 54.5866 68.88 54.4128 68.5239 54.2984C68.1695 54.1822 67.7965 54.1589 67.404 54.2277C66.9726 54.3003 66.6105 54.462 66.3179 54.7149C66.0243 54.9678 65.7934 55.2718 65.6242 55.6261C65.4551 55.9812 65.3434 56.3717 65.2893 56.7975C65.2368 57.2243 65.2419 57.6492 65.3028 58.0731C65.3975 58.7481 65.5752 59.3441 65.8374 59.8619C66.0988 60.3807 66.4143 60.8056 66.7848 61.1375C67.157 61.4704 67.5664 61.7065 68.013 61.8478C68.4596 61.9873 68.9172 62.017 69.3867 61.9371C70.0177 61.8283 70.5481 61.5494 70.9769 61.1003C71.4075 60.6494 71.6926 60.0869 71.833 59.4119L72.1646 59.4826L71.5454 62.9747C71.4794 62.8929 71.4007 62.8436 71.3085 62.8259C71.2155 62.8064 71.0827 62.811 70.9093 62.8408C70.8162 62.8557 70.6936 62.8845 70.5405 62.9263C70.3865 62.9691 70.2199 63.0146 70.0397 63.0639C69.8587 63.1141 69.6709 63.1634 69.4747 63.2127C69.2801 63.2629 69.0966 63.3019 68.9232 63.3317C68.1602 63.4637 67.4124 63.4786 66.6799 63.3763C65.9465 63.275 65.28 63.0444 64.6802 62.6846C64.0797 62.3229 63.5688 61.8292 63.1475 61.2045C62.7254 60.5778 62.4505 59.8061 62.3219 58.8913C62.2069 58.0861 62.239 57.3507 62.4167 56.686C62.5926 56.0221 62.8819 55.4392 63.2862 54.9381C63.6897 54.4351 64.1829 54.0223 64.7648 53.6997C65.3468 53.378 65.9871 53.1558 66.6867 53.034C67.0673 52.9698 67.3947 52.9326 67.6679 52.9224C67.9403 52.9131 68.1991 52.9112 68.4427 52.9187C68.6026 52.9243 68.7438 52.9261 68.8656 52.9261C68.9874 52.9243 69.0991 52.914 69.2006 52.8964Z" fill="#1F7159"/>
<path d="M89.9689 130.727V131.021C89.5645 131.051 89.3632 131.3 89.3632 131.769C89.3632 131.878 89.3734 132.005 89.3937 132.148C89.4157 132.292 89.4377 132.431 89.458 132.564L90.1381 137.195L90.9704 131.888C90.9839 131.809 90.9915 131.745 90.9941 131.698C90.9983 131.651 91.0008 131.6 91.0008 131.545C91.0008 131.196 90.8452 131.021 90.5339 131.021V130.727H93.64V131.021C93.475 131.061 93.3592 131.125 93.2915 131.214C93.2255 131.304 93.1934 131.445 93.1934 131.638C93.1934 131.678 93.1967 131.73 93.2035 131.795C93.2103 131.857 93.217 131.921 93.2238 131.988C93.2306 132.053 93.2373 132.111 93.2441 132.163C93.2526 132.213 93.2576 132.248 93.2576 132.271L93.9783 137.195L94.8851 132.003C94.8986 131.927 94.9122 131.849 94.9257 131.772C94.9393 131.693 94.946 131.614 94.946 131.534C94.946 131.24 94.8115 131.069 94.5434 131.021V130.727H96.5227V131.021C96.3874 131.061 96.2791 131.114 96.1979 131.181C96.1167 131.246 96.0524 131.321 96.0051 131.408C95.9594 131.492 95.9247 131.589 95.9002 131.698C95.8748 131.808 95.8511 131.925 95.8291 132.051L94.9257 136.845C94.8893 137.016 94.8614 137.17 94.8411 137.306C94.8208 137.443 94.8107 137.562 94.8107 137.663C94.8107 137.795 94.8327 137.9 94.8783 137.979C94.9232 138.056 95.0137 138.106 95.149 138.128V138.422H91.7249V138.128C91.9364 138.106 92.043 137.978 92.043 137.745C92.043 137.651 92.0294 137.529 92.0024 137.38L91.3832 133.498L90.7775 137.347C90.764 137.432 90.7513 137.51 90.7403 137.581C90.7285 137.651 90.7234 137.717 90.7234 137.778C90.7234 137.888 90.742 137.966 90.7809 138.013C90.8215 138.06 90.8909 138.098 90.9907 138.128V138.422H87.8204V138.128C88.0386 138.091 88.1486 137.963 88.1486 137.745C88.1486 137.691 88.1392 137.606 88.1215 137.492C88.1054 137.379 88.0893 137.279 88.0741 137.195L87.2993 132.46C87.2562 132.178 87.2096 131.946 87.1606 131.765C87.1107 131.582 87.0531 131.438 86.988 131.333C86.9246 131.228 86.8501 131.153 86.7647 131.11C86.681 131.066 86.5795 131.036 86.4602 131.021V130.727H89.9689Z" fill="#1F7159"/>
<path d="M105.02 130.727C105.169 130.727 105.288 130.724 105.376 130.716C105.465 130.709 105.539 130.698 105.596 130.683C105.651 130.666 105.695 130.646 105.728 130.623C105.761 130.601 105.792 130.574 105.819 130.541L106.364 133.23L106.127 133.312C105.964 132.745 105.677 132.3 105.264 131.981C104.853 131.661 104.375 131.501 103.829 131.501C103.617 131.501 103.447 131.518 103.319 131.549C103.192 131.579 103.095 131.638 103.028 131.728C102.96 131.817 102.914 131.942 102.892 132.103C102.872 132.262 102.862 132.474 102.862 132.739V133.241H103.224C103.309 133.241 103.405 133.241 103.511 133.241C103.617 133.241 103.723 133.234 103.829 133.219C103.935 133.204 104.038 133.181 104.137 133.148C104.236 133.117 104.318 133.069 104.384 133.007C104.526 132.876 104.597 132.639 104.597 132.297L104.811 132.26L105.278 135.231L105.064 135.253C104.965 134.988 104.856 134.774 104.74 134.61C104.622 134.446 104.489 134.32 104.34 134.231C104.191 134.141 104.021 134.084 103.829 134.056C103.637 134.029 103.421 134.015 103.18 134.015H102.862V136.611C102.862 137.023 102.941 137.299 103.102 137.44C103.262 137.579 103.526 137.648 103.894 137.648C104.22 137.648 104.515 137.6 104.777 137.503C105.038 137.407 105.268 137.284 105.467 137.135C105.665 136.986 105.837 136.825 105.981 136.652C106.128 136.476 106.249 136.306 106.343 136.142C106.44 135.978 106.517 135.836 106.573 135.714C106.632 135.594 106.672 135.514 106.692 135.476L106.915 135.569L106.012 138.608C105.975 138.571 105.918 138.53 105.839 138.485C105.762 138.442 105.624 138.422 105.426 138.422H100.097V138.128C100.167 138.128 100.237 138.117 100.307 138.095C100.379 138.072 100.443 138.023 100.5 137.946C100.556 137.867 100.6 137.752 100.632 137.604C100.666 137.455 100.683 137.261 100.683 137.02V132.133C100.683 131.89 100.666 131.696 100.632 131.549C100.6 131.4 100.556 131.289 100.5 131.215C100.443 131.14 100.379 131.09 100.307 131.062C100.237 131.035 100.167 131.021 100.097 131.021V130.727H105.02Z" fill="#1F7159"/>
<path d="M114.001 130.727L114.011 131.021C113.931 131.021 113.859 131.034 113.791 131.058C113.725 131.081 113.663 131.132 113.605 131.211C113.548 131.288 113.504 131.4 113.473 131.549C113.441 131.696 113.426 131.89 113.426 132.133V136.983C113.426 137.085 113.434 137.176 113.453 137.258C113.47 137.34 113.508 137.41 113.564 137.47C113.62 137.527 113.7 137.572 113.801 137.604C113.904 137.633 114.039 137.648 114.204 137.648C114.515 137.648 114.808 137.579 115.084 137.44C115.361 137.299 115.612 137.118 115.838 136.897C116.066 136.674 116.264 136.421 116.434 136.138C116.604 135.854 116.743 135.562 116.85 135.264L117.063 135.346L116.18 138.608C116.137 138.523 116.069 138.471 115.977 138.452C115.886 138.431 115.755 138.422 115.584 138.422H110.661V138.128C110.731 138.128 110.801 138.117 110.871 138.095C110.943 138.072 111.007 138.023 111.064 137.946C111.12 137.867 111.164 137.752 111.196 137.604C111.23 137.455 111.247 137.261 111.247 137.02V132.133C111.247 131.89 111.228 131.696 111.193 131.549C111.156 131.4 111.111 131.288 111.057 131.211C111.005 131.132 110.943 131.081 110.871 131.058C110.801 131.034 110.731 131.021 110.661 131.021V130.727H114.001Z" fill="#1F7159"/>
<path d="M124.075 130.727L124.085 131.021C124.006 131.021 123.933 131.034 123.865 131.058C123.799 131.081 123.737 131.132 123.679 131.211C123.622 131.288 123.578 131.4 123.547 131.549C123.515 131.696 123.5 131.89 123.5 132.133V136.983C123.5 137.085 123.508 137.176 123.527 137.258C123.545 137.34 123.582 137.41 123.638 137.47C123.694 137.527 123.774 137.572 123.875 137.604C123.978 137.633 124.113 137.648 124.278 137.648C124.589 137.648 124.882 137.579 125.158 137.44C125.435 137.299 125.686 137.118 125.912 136.897C126.14 136.674 126.338 136.421 126.508 136.138C126.679 135.854 126.817 135.562 126.924 135.264L127.137 135.346L126.254 138.608C126.211 138.523 126.143 138.471 126.051 138.452C125.96 138.431 125.829 138.422 125.658 138.422H120.735V138.128C120.805 138.128 120.875 138.117 120.945 138.095C121.017 138.072 121.081 138.023 121.138 137.946C121.194 137.867 121.238 137.752 121.27 137.604C121.304 137.455 121.321 137.261 121.321 137.02V132.133C121.321 131.89 121.302 131.696 121.267 131.549C121.23 131.4 121.185 131.288 121.131 131.211C121.079 131.132 121.017 131.081 120.945 131.058C120.875 131.034 120.805 131.021 120.735 131.021V130.727H124.075Z" fill="#1F7159"/>
<path d="M134.755 130.727V131.021C134.626 131.029 134.536 131.066 134.487 131.133C134.437 131.198 134.413 131.266 134.413 131.337C134.413 131.439 134.459 131.566 134.552 131.717C134.644 131.868 134.739 132.002 134.839 132.118L136.074 133.662V132.144C136.074 131.887 136.051 131.683 136.003 131.534C135.957 131.386 135.902 131.273 135.837 131.196C135.774 131.12 135.705 131.071 135.631 131.051C135.557 131.031 135.487 131.021 135.425 131.021V130.727H137.563V131.021C137.483 131.021 137.411 131.034 137.343 131.058C137.277 131.081 137.215 131.132 137.157 131.211C137.1 131.288 137.056 131.4 137.025 131.549C136.993 131.696 136.978 131.89 136.978 132.133V137.009C136.978 137.257 136.993 137.454 137.025 137.6C137.056 137.744 137.099 137.853 137.154 137.927C137.208 138 137.269 138.049 137.34 138.076C137.409 138.104 137.483 138.117 137.563 138.117V138.411H135.425V138.128C135.595 138.098 135.729 138.029 135.824 137.92C135.919 137.811 135.966 137.658 135.966 137.462C135.966 137.19 135.907 136.958 135.79 136.767C135.675 136.576 135.546 136.388 135.404 136.202L132.18 132.118V137.02C132.18 137.261 132.195 137.455 132.227 137.604C132.258 137.752 132.302 137.867 132.356 137.946C132.41 138.023 132.469 138.072 132.535 138.095C132.603 138.117 132.675 138.128 132.755 138.128V138.422H130.691V138.128C130.76 138.128 130.831 138.117 130.901 138.095C130.973 138.072 131.037 138.023 131.094 137.946C131.152 137.867 131.197 137.752 131.229 137.604C131.26 137.455 131.276 137.261 131.276 137.02V132.133C131.276 131.89 131.258 131.696 131.222 131.549C131.186 131.4 131.141 131.288 131.087 131.211C131.034 131.132 130.973 131.081 130.901 131.058C130.831 131.034 130.76 131.021 130.691 131.021V130.727H134.755Z" fill="#1F7159"/>
<path d="M146.168 130.727C146.317 130.727 146.435 130.724 146.523 130.716C146.613 130.709 146.686 130.698 146.743 130.683C146.799 130.666 146.843 130.646 146.875 130.623C146.909 130.601 146.939 130.574 146.966 130.541L147.511 133.23L147.274 133.312C147.112 132.745 146.824 132.3 146.411 131.981C146 131.661 145.522 131.501 144.977 131.501C144.764 131.501 144.594 131.518 144.466 131.549C144.339 131.579 144.243 131.638 144.175 131.728C144.107 131.817 144.062 131.942 144.04 132.103C144.019 132.262 144.009 132.474 144.009 132.739V133.241H144.371C144.457 133.241 144.552 133.241 144.659 133.241C144.764 133.241 144.87 133.234 144.977 133.219C145.082 133.204 145.185 133.181 145.285 133.148C145.384 133.117 145.466 133.069 145.532 133.007C145.674 132.876 145.745 132.639 145.745 132.297L145.958 132.26L146.425 135.231L146.212 135.253C146.112 134.988 146.004 134.774 145.887 134.61C145.769 134.446 145.637 134.32 145.488 134.231C145.339 134.141 145.168 134.084 144.977 134.056C144.785 134.029 144.568 134.015 144.327 134.015H144.009V136.611C144.009 137.023 144.089 137.299 144.249 137.44C144.409 137.579 144.673 137.648 145.041 137.648C145.368 137.648 145.662 137.6 145.924 137.503C146.186 137.407 146.416 137.284 146.614 137.135C146.812 136.986 146.984 136.825 147.129 136.652C147.275 136.476 147.396 136.306 147.491 136.142C147.587 135.978 147.664 135.836 147.721 135.714C147.779 135.594 147.819 135.514 147.839 135.476L148.063 135.569L147.159 138.608C147.123 138.571 147.065 138.53 146.987 138.485C146.91 138.442 146.772 138.422 146.574 138.422H141.245V138.128C141.314 138.128 141.384 138.117 141.455 138.095C141.526 138.072 141.591 138.023 141.647 137.946C141.703 137.867 141.747 137.752 141.779 137.604C141.813 137.455 141.83 137.261 141.83 137.02V132.133C141.83 131.89 141.813 131.696 141.779 131.549C141.747 131.4 141.703 131.289 141.647 131.215C141.591 131.14 141.526 131.09 141.455 131.062C141.384 131.035 141.314 131.021 141.245 131.021V130.727H146.168Z" fill="#1F7159"/>
<path d="M156.806 130.787C156.905 130.787 157.018 130.768 157.144 130.731C157.273 130.692 157.38 130.618 157.466 130.508L157.743 133.044L157.52 133.078C157.447 132.875 157.344 132.676 157.209 132.483C157.075 132.287 156.919 132.116 156.742 131.969C156.566 131.821 156.373 131.702 156.163 131.612C155.953 131.521 155.739 131.475 155.52 131.475C155.392 131.475 155.258 131.493 155.121 131.531C154.983 131.566 154.857 131.62 154.742 131.694C154.629 131.767 154.536 131.862 154.461 131.981C154.387 132.098 154.35 132.237 154.35 132.401C154.35 132.511 154.367 132.605 154.4 132.687C154.436 132.769 154.497 132.843 154.583 132.91C154.669 132.975 154.783 133.037 154.925 133.096C155.067 133.154 155.244 133.218 155.456 133.29L156.701 133.699C156.949 133.783 157.182 133.892 157.398 134.026C157.615 134.158 157.802 134.315 157.96 134.498C158.12 134.682 158.244 134.883 158.332 135.101C158.422 135.319 158.467 135.55 158.467 135.793C158.467 136.713 158.173 137.412 157.584 137.89C156.996 138.369 156.116 138.608 154.945 138.608C154.647 138.608 154.368 138.587 154.109 138.548C153.852 138.511 153.634 138.472 153.456 138.433C153.335 138.411 153.211 138.386 153.088 138.359C152.963 138.332 152.852 138.318 152.753 138.318C152.653 138.318 152.557 138.338 152.465 138.377C152.375 138.414 152.28 138.487 152.181 138.597L151.944 135.335L152.181 135.302C152.23 135.644 152.327 135.96 152.472 136.25C152.618 136.538 152.801 136.787 153.02 136.997C153.238 137.206 153.488 137.371 153.768 137.492C154.049 137.614 154.35 137.674 154.668 137.674C154.965 137.674 155.211 137.644 155.405 137.581C155.602 137.517 155.759 137.433 155.879 137.328C156.001 137.224 156.086 137.102 156.136 136.96C156.185 136.819 156.211 136.672 156.211 136.518C156.211 136.446 156.199 136.373 156.177 136.298C156.156 136.224 156.11 136.146 156.038 136.064C155.968 135.982 155.862 135.899 155.72 135.815C155.58 135.728 155.389 135.643 155.148 135.558L154.008 135.149C153.667 135.033 153.379 134.909 153.142 134.777C152.905 134.643 152.715 134.475 152.573 134.271C152.453 134.108 152.358 133.929 152.286 133.736C152.216 133.541 152.181 133.329 152.181 133.1C152.181 132.711 152.24 132.362 152.36 132.051C152.482 131.739 152.666 131.47 152.915 131.244C153.147 131.034 153.43 130.864 153.764 130.735C154.098 130.606 154.466 130.541 154.871 130.541C155.24 130.541 155.569 130.566 155.855 130.612C156.141 130.659 156.363 130.701 156.519 130.738C156.654 130.771 156.749 130.787 156.806 130.787Z" fill="#1F7159"/>
<path d="M167.306 130.787C167.405 130.787 167.517 130.768 167.644 130.731C167.773 130.692 167.879 130.618 167.965 130.508L168.243 133.044L168.02 133.078C167.947 132.875 167.844 132.676 167.708 132.483C167.575 132.287 167.419 132.116 167.241 131.969C167.065 131.821 166.873 131.702 166.663 131.612C166.453 131.521 166.238 131.475 166.02 131.475C165.891 131.475 165.758 131.493 165.621 131.531C165.483 131.566 165.357 131.62 165.242 131.694C165.128 131.767 165.035 131.862 164.961 131.981C164.886 132.098 164.849 132.237 164.849 132.401C164.849 132.511 164.866 132.605 164.9 132.687C164.936 132.769 164.996 132.843 165.083 132.91C165.168 132.975 165.282 133.037 165.424 133.096C165.567 133.154 165.743 133.218 165.956 133.29L167.201 133.699C167.449 133.783 167.681 133.892 167.898 134.026C168.114 134.158 168.301 134.315 168.459 134.498C168.619 134.682 168.744 134.883 168.832 135.101C168.921 135.319 168.967 135.55 168.967 135.793C168.967 136.713 168.673 137.412 168.084 137.89C167.495 138.369 166.615 138.608 165.445 138.608C165.147 138.608 164.868 138.587 164.609 138.548C164.352 138.511 164.134 138.472 163.956 138.433C163.834 138.411 163.711 138.386 163.587 138.359C163.463 138.332 163.351 138.318 163.252 138.318C163.152 138.318 163.057 138.338 162.965 138.377C162.874 138.414 162.779 138.487 162.68 138.597L162.444 135.335L162.68 135.302C162.729 135.644 162.827 135.96 162.971 136.25C163.118 136.538 163.3 136.787 163.52 136.997C163.738 137.206 163.987 137.371 164.267 137.492C164.549 137.614 164.849 137.674 165.167 137.674C165.465 137.674 165.71 137.644 165.905 137.581C166.101 137.517 166.258 137.433 166.379 137.328C166.5 137.224 166.586 137.102 166.636 136.96C166.685 136.819 166.71 136.672 166.71 136.518C166.71 136.446 166.698 136.373 166.676 136.298C166.656 136.224 166.61 136.146 166.538 136.064C166.467 135.982 166.362 135.899 166.22 135.815C166.079 135.728 165.889 135.643 165.648 135.558L164.507 135.149C164.167 135.033 163.878 134.909 163.641 134.777C163.404 134.643 163.215 134.475 163.073 134.271C162.953 134.108 162.857 133.929 162.785 133.736C162.715 133.541 162.68 133.329 162.68 133.1C162.68 132.711 162.74 132.362 162.86 132.051C162.982 131.739 163.166 131.47 163.415 131.244C163.646 131.034 163.93 130.864 164.264 130.735C164.597 130.606 164.966 130.541 165.37 130.541C165.74 130.541 166.068 130.566 166.355 130.612C166.641 130.659 166.862 130.701 167.018 130.738C167.153 130.771 167.249 130.787 167.306 130.787Z" fill="#1F7159"/>
<path d="M92.7438 150.086C92.9848 150.086 93.1616 149.981 93.275 149.77L93.8806 153.091L93.6573 153.162C93.5643 152.872 93.4442 152.589 93.2953 152.314C93.1464 152.037 92.9705 151.791 92.7675 151.577C92.5661 151.362 92.3386 151.189 92.084 151.057C91.8285 150.923 91.5477 150.856 91.2415 150.856C90.9099 150.856 90.6198 150.933 90.3719 151.087C90.1232 151.238 89.916 151.436 89.7494 151.682C89.5819 151.927 89.4558 152.209 89.3704 152.526C89.2841 152.841 89.2418 153.162 89.2418 153.489C89.2418 154.01 89.3129 154.484 89.455 154.91C89.5971 155.334 89.79 155.696 90.0336 155.996C90.2789 156.296 90.5631 156.527 90.8862 156.691C91.2085 156.855 91.5511 156.936 91.9148 156.936C92.4037 156.936 92.8351 156.795 93.2073 156.512C93.5795 156.228 93.8536 155.838 94.0295 155.345L94.2765 155.441L93.434 158C93.3909 157.93 93.3359 157.882 93.2682 157.855C93.2022 157.827 93.1024 157.814 92.9671 157.814C92.8943 157.814 92.7979 157.819 92.6761 157.829C92.556 157.841 92.4257 157.855 92.2836 157.87C92.1432 157.887 91.9969 157.901 91.8438 157.911C91.6923 157.923 91.5494 157.929 91.4141 157.929C90.8253 157.929 90.2586 157.844 89.7155 157.673C89.1742 157.502 88.6954 157.241 88.2809 156.892C87.8656 156.54 87.5315 156.101 87.2794 155.575C87.029 155.05 86.9038 154.432 86.9038 153.72C86.9038 153.098 87.0062 152.547 87.2117 152.068C87.4164 151.588 87.699 151.183 88.0576 150.856C88.4163 150.529 88.8324 150.282 89.3061 150.116C89.7815 149.948 90.289 149.863 90.8287 149.863C91.1265 149.863 91.3777 149.877 91.5832 149.904C91.7879 149.932 91.9833 149.965 92.1686 150.004C92.2878 150.027 92.3936 150.047 92.4866 150.064C92.5788 150.079 92.6643 150.086 92.7438 150.086Z" fill="#1F7159"/>
<path d="M100.764 150.856C100.602 150.856 100.422 150.914 100.226 151.027C100.032 151.139 99.8522 151.358 99.6881 151.685C99.5883 151.889 99.5105 152.132 99.4546 152.414C99.398 152.695 99.3701 153.037 99.3701 153.441C99.3701 154.026 99.4174 154.537 99.5122 154.973C99.6086 155.41 99.7372 155.774 99.8979 156.066C100.058 156.359 100.241 156.578 100.449 156.721C100.659 156.865 100.873 156.936 101.092 156.936C101.164 156.936 101.251 156.925 101.353 156.903C101.456 156.879 101.564 156.829 101.678 156.754C101.793 156.68 101.904 156.571 102.013 156.427C102.123 156.284 102.217 156.095 102.297 155.862C102.353 155.683 102.398 155.471 102.432 155.226C102.468 154.978 102.486 154.69 102.486 154.363C102.486 153.701 102.437 153.161 102.341 152.741C102.246 152.32 102.121 151.977 101.965 151.711C101.766 151.377 101.561 151.152 101.349 151.034C101.137 150.915 100.942 150.856 100.764 150.856ZM97.0287 153.872C97.0287 153.243 97.131 152.68 97.3366 152.184C97.5438 151.688 97.8246 151.268 98.1791 150.923C98.5326 150.576 98.9488 150.313 99.4276 150.134C99.908 149.954 100.421 149.863 100.967 149.863C101.618 149.863 102.193 149.971 102.689 150.187C103.185 150.4 103.594 150.702 103.914 151.09C104.225 151.465 104.455 151.901 104.604 152.399C104.753 152.898 104.828 153.416 104.828 153.954C104.828 154.54 104.738 155.066 104.56 155.534C104.384 156.001 104.172 156.382 103.924 156.68C103.739 156.891 103.532 157.077 103.302 157.238C103.072 157.397 102.825 157.527 102.561 157.628C102.298 157.728 102.031 157.801 101.759 157.851C101.486 157.903 101.222 157.929 100.967 157.929C100.696 157.929 100.43 157.908 100.169 157.866C99.9063 157.823 99.6653 157.763 99.4445 157.684C99.0402 157.553 98.6942 157.371 98.4058 157.137C98.119 156.902 97.8847 156.637 97.702 156.341C97.4736 155.99 97.3044 155.601 97.1945 155.177C97.0837 154.753 97.0287 154.318 97.0287 153.872Z" fill="#1F7159"/>
<path d="M111.263 150.049V150.343C111.213 150.358 111.16 150.387 111.104 150.432C111.048 150.475 111.02 150.538 111.02 150.622C111.02 150.684 111.028 150.756 111.047 150.837C111.064 150.919 111.112 151.051 111.189 151.232L111.828 152.82L112.593 151.161C112.685 150.958 112.736 150.819 112.745 150.744C112.756 150.67 112.762 150.629 112.762 150.622C112.762 150.483 112.702 150.39 112.583 150.343V150.049H115.956V150.343C115.877 150.343 115.804 150.356 115.736 150.38C115.669 150.402 115.606 150.453 115.55 150.532C115.493 150.61 115.449 150.722 115.418 150.871C115.386 151.018 115.371 151.212 115.371 151.455V156.341C115.371 156.59 115.388 156.787 115.422 156.933C115.457 157.077 115.501 157.188 115.554 157.267C115.608 157.345 115.669 157.394 115.74 157.416C115.812 157.438 115.883 157.45 115.956 157.45V157.743H112.583V157.45C112.652 157.45 112.722 157.438 112.793 157.416C112.864 157.394 112.929 157.345 112.985 157.271C113.044 157.197 113.092 157.085 113.131 156.936C113.169 156.788 113.188 156.59 113.188 156.341V151.603L111.148 156.211L109.145 151.603V156.282C109.145 156.533 109.163 156.734 109.199 156.884C109.235 157.036 109.281 157.152 109.338 157.234C109.394 157.316 109.461 157.373 109.538 157.405C109.616 157.435 109.698 157.45 109.785 157.45V157.743H107.68V157.45C107.756 157.45 107.83 157.437 107.9 157.409C107.972 157.382 108.033 157.33 108.083 157.252C108.132 157.176 108.171 157.066 108.198 156.922C108.227 156.776 108.242 156.586 108.242 156.353V151.44C108.242 151.207 108.227 151.019 108.198 150.875C108.171 150.731 108.13 150.621 108.076 150.544C108.024 150.465 107.964 150.412 107.897 150.384C107.829 150.357 107.756 150.343 107.68 150.343V150.049H111.263Z" fill="#1F7159"/>
<path d="M122.263 150.049V150.343C122.213 150.358 122.16 150.387 122.104 150.432C122.047 150.475 122.019 150.538 122.019 150.622C122.019 150.684 122.028 150.756 122.046 150.837C122.064 150.919 122.111 151.051 122.188 151.232L122.828 152.82L123.593 151.161C123.685 150.958 123.735 150.819 123.745 150.744C123.756 150.67 123.762 150.629 123.762 150.622C123.762 150.483 123.702 150.39 123.582 150.343V150.049H126.956V150.343C126.876 150.343 126.803 150.356 126.736 150.38C126.668 150.402 126.606 150.453 126.55 150.532C126.493 150.61 126.449 150.722 126.418 150.871C126.386 151.018 126.37 151.212 126.37 151.455V156.341C126.37 156.59 126.387 156.787 126.421 156.933C126.457 157.077 126.501 157.188 126.553 157.267C126.607 157.345 126.669 157.394 126.739 157.416C126.811 157.438 126.883 157.45 126.956 157.45V157.743H123.582V157.45C123.652 157.45 123.722 157.438 123.792 157.416C123.864 157.394 123.928 157.345 123.985 157.271C124.043 157.197 124.092 157.085 124.13 156.936C124.169 156.788 124.188 156.59 124.188 156.341V151.603L122.148 156.211L120.145 151.603V156.282C120.145 156.533 120.162 156.734 120.199 156.884C120.234 157.036 120.281 157.152 120.338 157.234C120.393 157.316 120.46 157.373 120.537 157.405C120.616 157.435 120.698 157.45 120.784 157.45V157.743H118.68V157.45C118.756 157.45 118.829 157.437 118.9 157.409C118.971 157.382 119.032 157.33 119.082 157.252C119.131 157.176 119.17 157.066 119.197 156.922C119.226 156.776 119.241 156.586 119.241 156.353V151.44C119.241 151.207 119.226 151.019 119.197 150.875C119.17 150.731 119.13 150.621 119.076 150.544C119.023 150.465 118.964 150.412 118.896 150.384C118.829 150.357 118.756 150.343 118.68 150.343V150.049H122.263Z" fill="#1F7159"/>
<path d="M133.049 150.049V150.343C132.972 150.343 132.898 150.357 132.826 150.384C132.756 150.412 132.694 150.465 132.64 150.544C132.587 150.621 132.545 150.731 132.511 150.875C132.479 151.019 132.464 151.212 132.464 151.455V156.341C132.464 156.59 132.479 156.787 132.511 156.933C132.545 157.077 132.587 157.186 132.64 157.26C132.694 157.332 132.756 157.382 132.826 157.409C132.898 157.437 132.972 157.45 133.049 157.45V157.743H129.7V157.45C129.776 157.45 129.849 157.437 129.919 157.409C129.991 157.382 130.053 157.33 130.106 157.252C130.16 157.176 130.202 157.066 130.234 156.922C130.268 156.776 130.285 156.582 130.285 156.341V151.455C130.285 151.212 130.266 151.018 130.231 150.871C130.194 150.722 130.15 150.61 130.095 150.532C130.043 150.453 129.981 150.402 129.909 150.38C129.839 150.356 129.769 150.343 129.7 150.343V150.049H133.049Z" fill="#1F7159"/>
<path d="M136.07 149.863C136.078 149.878 136.093 149.898 136.114 149.923C136.134 149.945 136.171 149.966 136.225 149.986C136.279 150.006 136.354 150.022 136.449 150.034C136.545 150.044 136.675 150.049 136.838 150.049H140.827C140.996 150.049 141.131 150.045 141.233 150.038C141.336 150.03 141.416 150.019 141.473 150.004C141.531 149.988 141.575 149.967 141.602 149.945C141.63 149.923 141.656 149.896 141.676 149.863L142.167 152.529L141.953 152.574C141.768 152.046 141.518 151.646 141.202 151.373C140.889 151.098 140.472 150.941 139.954 150.904V156.282C139.954 156.734 140.019 157.04 140.15 157.2C140.28 157.359 140.495 157.442 140.793 157.45V157.743H136.932V157.45C137.23 157.442 137.444 157.359 137.575 157.2C137.708 157.04 137.775 156.734 137.775 156.282V150.904C137.292 150.919 136.871 151.062 136.513 151.332C136.154 151.6 135.907 152.014 135.772 152.574L135.548 152.529L136.07 149.863Z" fill="#1F7159"/>
<path d="M144.942 149.863C144.95 149.878 144.965 149.898 144.986 149.923C145.006 149.945 145.043 149.966 145.097 149.986C145.151 150.006 145.226 150.022 145.321 150.034C145.417 150.044 145.547 150.049 145.71 150.049H149.699C149.868 150.049 150.003 150.045 150.105 150.038C150.208 150.03 150.288 150.019 150.345 150.004C150.403 149.988 150.447 149.967 150.474 149.945C150.502 149.923 150.528 149.896 150.548 149.863L151.039 152.529L150.825 152.574C150.64 152.046 150.39 151.646 150.074 151.373C149.761 151.098 149.344 150.941 148.826 150.904V156.282C148.826 156.734 148.891 157.04 149.022 157.2C149.152 157.359 149.367 157.442 149.665 157.45V157.743H145.804V157.45C146.102 157.442 146.316 157.359 146.447 157.2C146.58 157.04 146.647 156.734 146.647 156.282V150.904C146.164 150.919 145.743 151.062 145.385 151.332C145.026 151.6 144.779 152.014 144.644 152.574L144.421 152.529L144.942 149.863Z" fill="#1F7159"/>
<path d="M158.462 150.049C158.611 150.049 158.73 150.045 158.818 150.038C158.907 150.03 158.981 150.019 159.038 150.004C159.093 149.988 159.137 149.967 159.17 149.945C159.203 149.923 159.234 149.896 159.261 149.863L159.806 152.552L159.569 152.634C159.406 152.066 159.119 151.622 158.706 151.302C158.295 150.982 157.817 150.822 157.271 150.822C157.059 150.822 156.889 150.839 156.761 150.871C156.634 150.901 156.537 150.96 156.47 151.049C156.402 151.139 156.356 151.264 156.334 151.425C156.314 151.584 156.304 151.796 156.304 152.061V152.563H156.666C156.751 152.563 156.847 152.563 156.953 152.563C157.059 152.563 157.165 152.556 157.271 152.541C157.377 152.526 157.48 152.503 157.579 152.47C157.678 152.438 157.76 152.391 157.826 152.329C157.968 152.198 158.04 151.96 158.04 151.618L158.253 151.581L158.72 154.553L158.506 154.575C158.407 154.31 158.298 154.095 158.182 153.932C158.064 153.768 157.931 153.641 157.782 153.552C157.633 153.463 157.463 153.405 157.271 153.377C157.079 153.35 156.863 153.336 156.622 153.336H156.304V155.932C156.304 156.344 156.383 156.62 156.544 156.762C156.704 156.901 156.968 156.97 157.336 156.97C157.662 156.97 157.957 156.922 158.219 156.825C158.48 156.728 158.71 156.605 158.909 156.457C159.107 156.308 159.279 156.147 159.423 155.973C159.57 155.797 159.691 155.627 159.785 155.464C159.882 155.3 159.959 155.158 160.015 155.036C160.074 154.915 160.114 154.835 160.134 154.798L160.357 154.891L159.454 157.929C159.417 157.892 159.36 157.851 159.281 157.807C159.204 157.764 159.066 157.743 158.868 157.743H153.539V157.45C153.609 157.45 153.679 157.438 153.749 157.416C153.821 157.394 153.885 157.345 153.942 157.267C153.998 157.188 154.042 157.074 154.074 156.925C154.108 156.776 154.125 156.582 154.125 156.341V151.455C154.125 151.212 154.108 151.018 154.074 150.871C154.042 150.722 153.998 150.611 153.942 150.536C153.885 150.462 153.821 150.412 153.749 150.384C153.679 150.357 153.609 150.343 153.539 150.343V150.049H158.462Z" fill="#1F7159"/>
<path d="M167.973 150.049C168.122 150.049 168.24 150.045 168.328 150.038C168.418 150.03 168.491 150.019 168.548 150.004C168.604 149.988 168.648 149.967 168.68 149.945C168.714 149.923 168.744 149.896 168.771 149.863L169.316 152.552L169.079 152.634C168.917 152.066 168.629 151.622 168.216 151.302C167.805 150.982 167.327 150.822 166.782 150.822C166.569 150.822 166.399 150.839 166.271 150.871C166.144 150.901 166.047 150.96 165.98 151.049C165.912 151.139 165.866 151.264 165.844 151.425C165.824 151.584 165.814 151.796 165.814 152.061V152.563H166.176C166.261 152.563 166.357 152.563 166.464 152.563C166.569 152.563 166.675 152.556 166.782 152.541C166.887 152.526 166.99 152.503 167.09 152.47C167.189 152.438 167.271 152.391 167.337 152.329C167.479 152.198 167.55 151.96 167.55 151.618L167.763 151.581L168.23 154.553L168.017 154.575C167.917 154.31 167.809 154.095 167.692 153.932C167.574 153.768 167.441 153.641 167.293 153.552C167.144 153.463 166.973 153.405 166.782 153.377C166.59 153.35 166.373 153.336 166.132 153.336H165.814V155.932C165.814 156.344 165.894 156.62 166.054 156.762C166.214 156.901 166.478 156.97 166.846 156.97C167.172 156.97 167.467 156.922 167.729 156.825C167.99 156.728 168.221 156.605 168.419 156.457C168.617 156.308 168.789 156.147 168.934 155.973C169.08 155.797 169.201 155.627 169.296 155.464C169.392 155.3 169.469 155.158 169.526 155.036C169.584 154.915 169.624 154.835 169.644 154.798L169.867 154.891L168.964 157.929C168.928 157.892 168.87 157.851 168.791 157.807C168.715 157.764 168.577 157.743 168.379 157.743H163.05V157.45C163.119 157.45 163.189 157.438 163.259 157.416C163.331 157.394 163.396 157.345 163.452 157.267C163.508 157.188 163.552 157.074 163.584 156.925C163.618 156.776 163.635 156.582 163.635 156.341V151.455C163.635 151.212 163.618 151.018 163.584 150.871C163.552 150.722 163.508 150.611 163.452 150.536C163.396 150.462 163.331 150.412 163.259 150.384C163.189 150.357 163.119 150.343 163.05 150.343V150.049H167.973Z" fill="#1F7159"/>
</g>
<defs>
<clipPath id="clip0_101_2">
<rect width="192" height="192" fill="white"/>
</clipPath>
</defs>
</svg>
