<svg width="32" height="32" viewBox="0 0 32 32" fill="none" xmlns="http://www.w3.org/2000/svg">
<g clip-path="url(#clip0_101_2)">
<path d="M35.2 -3.2H-3.2V35.2H35.2V-3.2Z" fill="white"/>
<path d="M35.2 -3.2H-3.2V35.2H35.2V-3.2Z" fill="#FFECBC"/>
<path d="M10.3301 21.8446C7.12891 23.3338 5.24839 15.4315 5.24839 15.4315C4.45862 22.1457 10.8357 25.9454 10.8357 25.9454C16.7677 15.8313 21.7055 16.5754 21.7055 16.5754C16.3532 15.2558 14.1923 20.0478 10.3301 21.8446ZM9.44971 20.7655C10.6813 20.9405 11.8083 19.985 11.9676 18.6316C12.1266 17.2783 11.2576 16.0392 10.0263 15.8644C8.79486 15.6893 7.66759 16.6448 7.50843 17.9982C7.3494 19.3516 8.2184 20.5904 9.44971 20.7655Z" fill="#1F7159"/>
<mask id="mask0_101_2" style="mask-type:luminance" maskUnits="userSpaceOnUse" x="17" y="5" width="5" height="10">
<path d="M17.1907 5.66666H21.4495V14.6437H17.1907V5.66666Z" fill="white"/>
</mask>
<g mask="url(#mask0_101_2)">
<path d="M19.3128 5.66835C15.7053 11.0238 17.5577 13.6459 18.6723 14.6048C18.6526 13.1873 18.8023 11.2833 19.3128 8.78358C19.8233 11.2833 19.9729 13.1873 19.9531 14.6048C21.0677 13.6459 22.92 11.0238 19.3128 5.66835Z" fill="#5FB53A"/>
</g>
<mask id="mask1_101_2" style="mask-type:luminance" maskUnits="userSpaceOnUse" x="21" y="10" width="8" height="7">
<path d="M21.7021 10.6372H28.6594V16.6668H21.7021V10.6372Z" fill="white"/>
</mask>
<g mask="url(#mask1_101_2)">
<path d="M28.6527 10.6387C22.5905 10.5894 21.7537 13.7794 21.7053 15.3342C22.7359 14.4816 24.2237 13.493 26.3625 12.4739C24.8251 14.4 23.5135 15.6543 22.4597 16.4717C23.8213 16.8969 26.8402 16.9975 28.6527 10.6387Z" fill="#5FB53A"/>
</g>
<path d="M26.7728 23.3037C24.811 16.9989 21.7953 17.1856 20.4443 17.6494C21.517 18.4365 22.8577 19.6529 24.4401 21.5346C22.2779 20.5768 20.7673 19.6309 19.7171 18.808C19.8021 20.3609 20.7138 23.5261 26.7728 23.3037Z" fill="#5FB53A"/>
<path d="M9.52514 12.3934C15.3555 10.5673 16.9366 13.396 17.3608 14.8802C16.1605 14.3609 14.4866 13.8447 12.1779 13.4901C14.1273 14.8952 15.6958 15.7191 16.9099 16.1977C15.7012 17.0071 12.816 17.9897 9.52514 12.3934Z" fill="#5FB53A"/>
<mask id="mask2_101_2" style="mask-type:luminance" maskUnits="userSpaceOnUse" x="19" y="17" width="9" height="7">
<path d="M19.2538 17.4148H27.5818V23.6461H19.2538V17.4148Z" fill="white"/>
</mask>
<g mask="url(#mask2_101_2)">
<path d="M19.2538 17.4148H27.5808V23.6461H19.2538V17.4148Z" fill="#FFECBC"/>
</g>
<path d="M4.08986 12.4369L4.12651 12.4858C4.06265 12.5528 4.06025 12.6257 4.11918 12.7046C4.13272 12.7224 4.15048 12.7421 4.17219 12.7635C4.19404 12.7846 4.21533 12.8047 4.23591 12.8236L4.93517 13.4974L4.40396 12.4784C4.39649 12.4635 4.39014 12.452 4.38479 12.4437C4.37915 12.435 4.37294 12.4262 4.36618 12.417C4.32191 12.358 4.27355 12.3522 4.22125 12.3997L4.1846 12.3507L4.70622 11.8765L4.74287 11.9255C4.72032 11.957 4.70904 11.9855 4.70904 12.011C4.70932 12.0363 4.72173 12.0653 4.74626 12.0978C4.75105 12.1045 4.7581 12.1125 4.76712 12.122C4.77615 12.1316 4.78545 12.1412 4.79532 12.1511C4.80505 12.161 4.81365 12.1697 4.82126 12.1771C4.82873 12.1846 4.83395 12.1905 4.83705 12.1945L5.58086 12.911L5.07615 11.9007C5.06854 11.8855 5.06107 11.8702 5.05359 11.8548C5.0464 11.8397 5.0378 11.8254 5.02765 11.8121C4.99043 11.7622 4.94617 11.7538 4.89513 11.7873L4.85848 11.7383L5.19119 11.4358L5.22784 11.4848C5.2098 11.5125 5.1981 11.5381 5.19288 11.5617C5.18752 11.5852 5.1864 11.6078 5.1895 11.6292C5.19246 11.6508 5.1988 11.6726 5.20867 11.6949C5.2184 11.7169 5.22911 11.7399 5.24081 11.7637L5.69533 12.7077C5.71112 12.7421 5.72578 12.7725 5.73932 12.7988C5.75285 12.8249 5.7661 12.8464 5.77936 12.8633C5.79585 12.8856 5.81291 12.8997 5.83067 12.9054C5.84829 12.9113 5.86972 12.9061 5.89496 12.8899L5.93218 12.9389L5.35698 13.4614L5.31976 13.4125C5.35275 13.3762 5.35444 13.3384 5.32484 13.299C5.31271 13.2834 5.29509 13.2652 5.27183 13.2445L4.6769 12.686L5.06205 13.4261C5.07023 13.4422 5.07798 13.4571 5.08517 13.4707C5.09222 13.484 5.09983 13.496 5.10773 13.5067C5.12126 13.5249 5.13423 13.535 5.14664 13.537C5.15905 13.5387 5.17554 13.5346 5.19626 13.5246L5.23348 13.5736L4.70058 14.0577L4.66336 14.0087C4.69607 13.9687 4.69847 13.9303 4.67069 13.8934C4.66393 13.8844 4.65166 13.8717 4.63404 13.8556C4.6167 13.8392 4.60147 13.8246 4.58836 13.8122L3.85922 13.1354C3.81678 13.0945 3.7797 13.0626 3.74812 13.0393C3.71654 13.0162 3.68877 13.0009 3.66466 12.9935C3.6407 12.9857 3.61899 12.9846 3.59981 12.9904C3.58036 12.9958 3.55921 13.0063 3.53665 13.022L3.5 12.973L4.08986 12.4369Z" fill="#1F7159"/>
<path d="M6.6138 10.7273C6.58292 10.7459 6.55416 10.7773 6.52752 10.8215C6.50087 10.8653 6.48734 10.9279 6.48692 11.0093C6.48692 11.0593 6.49481 11.1145 6.5106 11.1748C6.52667 11.2352 6.55374 11.304 6.5918 11.3812C6.64707 11.4937 6.70431 11.5862 6.7638 11.6588C6.82357 11.7317 6.8825 11.787 6.94087 11.825C6.99909 11.8626 7.05492 11.8832 7.10835 11.8869C7.16207 11.8907 7.21014 11.88 7.25272 11.8547C7.26625 11.8465 7.28162 11.8343 7.29896 11.8181C7.31658 11.802 7.33279 11.7806 7.34745 11.7537C7.36212 11.7264 7.37297 11.6928 7.38016 11.6526C7.38763 11.6122 7.38806 11.5651 7.38129 11.5113C7.37523 11.4704 7.36395 11.4246 7.34745 11.3737C7.33124 11.3226 7.30756 11.2656 7.2764 11.2027C7.21395 11.0759 7.15361 10.9777 7.09538 10.9082C7.03702 10.8385 6.98034 10.7871 6.92508 10.7539C6.85544 10.7122 6.79481 10.6924 6.74293 10.6944C6.69105 10.6961 6.64791 10.7071 6.6138 10.7273ZM6.18409 11.7326C6.12432 11.6111 6.09076 11.4913 6.08315 11.3731C6.07568 11.2546 6.08964 11.1419 6.12488 11.0353C6.15984 10.9284 6.21483 10.8301 6.28954 10.7409C6.3644 10.6516 6.45421 10.5759 6.5591 10.5134C6.68386 10.439 6.80398 10.3941 6.91944 10.3783C7.03476 10.3626 7.14162 10.374 7.23975 10.4124C7.33477 10.4483 7.42034 10.5058 7.49633 10.5847C7.57218 10.6633 7.63533 10.7538 7.6858 10.8562C7.74135 10.9687 7.77434 11.0798 7.78449 11.1896C7.79464 11.2992 7.79013 11.3967 7.77096 11.4822C7.75545 11.5439 7.73317 11.6029 7.70385 11.6595C7.67481 11.7162 7.63985 11.7695 7.59896 11.8194C7.55836 11.869 7.51409 11.9142 7.46644 11.9551C7.41907 11.996 7.37086 12.0311 7.32208 12.0599C7.2702 12.0909 7.21719 12.1174 7.16305 12.1392C7.10892 12.1607 7.05675 12.1767 7.00685 12.1869C6.9169 12.208 6.83344 12.2127 6.75647 12.2006C6.67935 12.1882 6.609 12.164 6.54556 12.1281C6.46887 12.0868 6.40007 12.0318 6.33917 11.9632C6.27798 11.8942 6.22624 11.8174 6.18409 11.7326Z" fill="#1F7159"/>
<path d="M8.79526 9.67009C8.74253 9.68962 8.70531 9.71456 8.6836 9.74509C8.66175 9.77531 8.66161 9.82505 8.68304 9.89447L8.79413 10.2589C8.83022 10.2334 8.86589 10.2042 8.90128 10.1715C8.93694 10.139 8.96782 10.1026 8.99376 10.0624C9.01998 10.022 9.03845 9.97876 9.04902 9.9329C9.05945 9.88672 9.05692 9.83791 9.04113 9.78662C9.02534 9.73502 8.99714 9.69659 8.95654 9.67133C8.91622 9.64576 8.86251 9.6453 8.79526 9.67009ZM9.0197 9.41039C9.10006 9.38063 9.16773 9.36421 9.22271 9.3608C9.27797 9.35755 9.32266 9.3625 9.35692 9.37568C9.39104 9.389 9.4174 9.40837 9.43587 9.43394C9.45462 9.4592 9.46815 9.48569 9.47647 9.51328C9.4862 9.5452 9.49127 9.57991 9.4917 9.61741C9.4924 9.6546 9.48662 9.69535 9.47422 9.73951C9.46181 9.78383 9.44066 9.83109 9.41106 9.88145C9.38173 9.93197 9.3417 9.98604 9.29094 10.0438C9.39583 10.1001 9.49734 10.1739 9.59546 10.2651C9.69358 10.3565 9.78268 10.4619 9.86276 10.5812C9.91012 10.6499 9.95129 10.6925 9.98625 10.7089C10.0215 10.7255 10.0553 10.7286 10.0878 10.7182L10.1064 10.779L9.36764 11.0511L9.34903 10.9903C9.37384 10.9813 9.39358 10.9686 9.40824 10.9525C9.42318 10.9364 9.42544 10.9113 9.415 10.8769C9.40373 10.8402 9.37694 10.7974 9.33493 10.7486C9.2932 10.6995 9.24611 10.651 9.19395 10.6029C9.14207 10.5546 9.09033 10.5099 9.03887 10.469C8.98727 10.4281 8.94611 10.3981 8.91537 10.3785L8.8477 10.4356L8.98022 10.8707C8.99601 10.9224 9.01152 10.9621 9.02703 10.9897C9.04282 11.017 9.05889 11.0362 9.07553 11.0473C9.09202 11.0582 9.10795 11.0638 9.12346 11.0641C9.13883 11.0645 9.15462 11.0619 9.17083 11.056L9.18944 11.1168L8.4992 11.3709L8.48059 11.3101C8.49666 11.3039 8.51119 11.2956 8.52401 11.2847C8.5367 11.2736 8.54615 11.2581 8.55221 11.2382C8.55855 11.2181 8.56039 11.1918 8.55785 11.1595C8.55559 11.1273 8.54671 11.0862 8.53135 11.0362L8.22345 10.0259C8.2085 9.97597 8.19271 9.93692 8.17608 9.90872C8.15916 9.88068 8.14281 9.86084 8.12702 9.84922C8.11123 9.83729 8.0953 9.83155 8.07908 9.83186C8.06301 9.83233 8.0475 9.83527 8.03284 9.84054L8.0148 9.78042L9.0197 9.41039Z" fill="#1F7159"/>
<path d="M11.5334 8.81606C11.5853 8.80738 11.6203 8.77825 11.6383 8.72866L11.8701 9.42163L11.8244 9.44518C11.7958 9.38661 11.7613 9.3302 11.7207 9.27597C11.6801 9.22189 11.6347 9.1754 11.5847 9.13651C11.5347 9.09777 11.48 9.06879 11.4206 9.04973C11.3616 9.03036 11.2994 9.02649 11.234 9.03796C11.1621 9.05004 11.1018 9.077 11.053 9.11915C11.0041 9.1613 10.9656 9.21197 10.9374 9.27101C10.9092 9.3302 10.8906 9.39528 10.8815 9.46625C10.8728 9.53738 10.8736 9.60819 10.8838 9.67885C10.8996 9.79135 10.9292 9.89068 10.9729 9.97699C11.0165 10.0635 11.069 10.1343 11.1308 10.1896C11.1928 10.2451 11.2611 10.2844 11.3355 10.308C11.4099 10.3312 11.4862 10.3362 11.5644 10.3228C11.6696 10.3047 11.758 10.2582 11.8295 10.1834C11.9012 10.1082 11.9488 10.0145 11.9722 9.90199L12.0274 9.91376L11.9242 10.4958C11.9132 10.4821 11.9001 10.4739 11.8848 10.471C11.8692 10.4677 11.8471 10.4685 11.8182 10.4735C11.8027 10.4759 11.7823 10.4807 11.7567 10.4877C11.7311 10.4948 11.7033 10.5024 11.6733 10.5107C11.6431 10.519 11.6118 10.5272 11.5791 10.5354C11.5467 10.5438 11.5161 10.5503 11.4872 10.5553C11.36 10.5773 11.2354 10.5798 11.1133 10.5627C10.9911 10.5458 10.88 10.5074 10.78 10.4474C10.6799 10.3872 10.5948 10.3049 10.5246 10.2007C10.4542 10.0963 10.4084 9.96769 10.387 9.81521C10.3678 9.68102 10.3732 9.55845 10.4028 9.44766C10.4321 9.33702 10.4803 9.23986 10.5477 9.15634C10.615 9.07251 10.6971 9.00371 10.7941 8.94994C10.8911 8.89633 10.9979 8.85929 11.1144 8.83899C11.1779 8.8283 11.2324 8.8221 11.278 8.8204C11.3234 8.81885 11.3665 8.81854 11.4071 8.81978C11.4338 8.82071 11.4573 8.82102 11.4776 8.82102C11.4979 8.82071 11.5165 8.819 11.5334 8.81606Z" fill="#1F7159"/>
<path d="M14.9948 21.7879V21.8368C14.9274 21.8418 14.8939 21.8833 14.8939 21.9614C14.8939 21.9797 14.8956 22.0008 14.8989 22.0247C14.9026 22.0487 14.9063 22.0718 14.9097 22.0941L15.023 22.8657L15.1617 21.9813C15.164 21.9681 15.1653 21.9576 15.1657 21.9497C15.1664 21.9419 15.1668 21.9334 15.1668 21.9242C15.1668 21.866 15.1409 21.8368 15.089 21.8368V21.7879H15.6067V21.8368C15.5792 21.8435 15.5599 21.8542 15.5486 21.8691C15.5376 21.884 15.5322 21.9075 15.5322 21.9397C15.5322 21.9464 15.5328 21.9551 15.5339 21.9658C15.535 21.9762 15.5362 21.9868 15.5373 21.998C15.5384 22.0088 15.5396 22.0185 15.5407 22.0271C15.5421 22.0355 15.5429 22.0414 15.5429 22.0451L15.6631 22.8657L15.8142 22.0005C15.8164 21.9878 15.8187 21.9749 15.821 21.962C15.8232 21.9489 15.8243 21.9357 15.8243 21.9224C15.8243 21.8733 15.8019 21.8447 15.7572 21.8368V21.7879H16.0871V21.8368C16.0646 21.8435 16.0465 21.8523 16.033 21.8635C16.0195 21.8743 16.0087 21.8869 16.0008 21.9013C15.9932 21.9154 15.9874 21.9315 15.9834 21.9497C15.9791 21.9679 15.9752 21.9875 15.9715 22.0085L15.821 22.8075C15.8149 22.836 15.8102 22.8617 15.8069 22.8843C15.8035 22.9071 15.8018 22.927 15.8018 22.9438C15.8018 22.9659 15.8054 22.9834 15.8131 22.9965C15.8205 23.0094 15.8356 23.0176 15.8582 23.0213V23.0703H15.2875V23.0213C15.3227 23.0176 15.3405 22.9964 15.3405 22.9575C15.3405 22.9418 15.3382 22.9215 15.3337 22.8967L15.2305 22.2496L15.1296 22.8912C15.1273 22.9053 15.1252 22.9183 15.1234 22.9302C15.1214 22.9418 15.1206 22.9528 15.1206 22.9631C15.1206 22.9813 15.1237 22.9944 15.1302 23.0021C15.1369 23.01 15.1485 23.0164 15.1651 23.0213V23.0703H14.6367V23.0213C14.6731 23.0151 14.6914 22.9939 14.6914 22.9575C14.6914 22.9485 14.6899 22.9344 14.6869 22.9153C14.6842 22.8964 14.6816 22.8799 14.679 22.8657L14.5499 22.0767C14.5427 22.0296 14.5349 21.991 14.5268 21.9608C14.5184 21.9303 14.5089 21.9063 14.498 21.8889C14.4874 21.8712 14.475 21.8588 14.4608 21.8517C14.4468 21.8443 14.4299 21.8393 14.41 21.8368V21.7879H14.9948Z" fill="#1F7159"/>
<path d="M17.5034 21.7879C17.5282 21.7879 17.5479 21.7873 17.5626 21.786C17.5776 21.7848 17.5898 21.7829 17.5993 21.7805C17.6086 21.7777 17.6159 21.7743 17.6213 21.7705C17.6269 21.7668 17.632 21.7623 17.6365 21.7569L17.7273 22.205L17.6878 22.2187C17.6607 22.1241 17.6128 22.0501 17.544 21.9968C17.4755 21.9435 17.3958 21.9168 17.3049 21.9168C17.2695 21.9168 17.2412 21.9196 17.2197 21.9249C17.1986 21.9298 17.1825 21.9397 17.1713 21.9546C17.16 21.9695 17.1524 21.9904 17.1487 22.0172C17.1453 22.0437 17.1436 22.079 17.1436 22.1232V22.2069H17.204C17.2182 22.2069 17.2341 22.2069 17.2519 22.2069C17.2695 22.2069 17.2871 22.2056 17.3049 22.2032C17.3225 22.2007 17.3396 22.1968 17.3562 22.1914C17.3727 22.1861 17.3864 22.1782 17.3974 22.1678C17.4211 22.146 17.4329 22.1065 17.4329 22.0495L17.4684 22.0433L17.5463 22.5385L17.5107 22.5422C17.4941 22.498 17.476 22.4623 17.4566 22.435C17.437 22.4077 17.4149 22.3866 17.3901 22.3718C17.3652 22.3569 17.3368 22.3473 17.3049 22.3426C17.2729 22.3381 17.2368 22.3358 17.1966 22.3358H17.1436V22.7684C17.1436 22.8371 17.1569 22.8831 17.1837 22.9067C17.2103 22.9299 17.2543 22.9414 17.3156 22.9414C17.37 22.9414 17.4191 22.9333 17.4628 22.9172C17.5064 22.9011 17.5447 22.8806 17.5778 22.8558C17.6108 22.831 17.6394 22.8042 17.6636 22.7753C17.6879 22.746 17.7081 22.7176 17.7239 22.6903C17.74 22.6631 17.7528 22.6394 17.7622 22.6191C17.772 22.5989 17.7786 22.5856 17.782 22.5794L17.8192 22.5949L17.6686 23.1013C17.6626 23.0951 17.653 23.0883 17.6399 23.0808C17.627 23.0737 17.6041 23.0703 17.5711 23.0703H16.6829V23.0213C16.6945 23.0213 16.7062 23.0195 16.7179 23.0158C16.7298 23.012 16.7406 23.0038 16.75 22.991C16.7593 22.9778 16.7666 22.9587 16.772 22.9339C16.7776 22.9091 16.7805 22.8768 16.7805 22.8366V22.0222C16.7805 21.9817 16.7776 21.9494 16.772 21.9249C16.7666 21.9001 16.7593 21.8815 16.75 21.8691C16.7406 21.8567 16.7298 21.8483 16.7179 21.8437C16.7062 21.8392 16.6945 21.8369 16.6829 21.8369V21.7879H17.5034Z" fill="#1F7159"/>
<path d="M19.0001 21.7879L19.0018 21.8368C18.9886 21.8368 18.9765 21.839 18.9652 21.843C18.9542 21.8468 18.9439 21.8553 18.9342 21.8685C18.9247 21.8813 18.9174 21.9001 18.9122 21.9249C18.9068 21.9493 18.9043 21.9817 18.9043 22.0222V22.8304C18.9043 22.8475 18.9057 22.8627 18.9088 22.8763C18.9117 22.8899 18.9179 22.9017 18.9274 22.9116C18.9367 22.9212 18.9499 22.9287 18.9669 22.9339C18.9841 22.9389 19.0065 22.9414 19.034 22.9414C19.0859 22.9414 19.1346 22.9299 19.1806 22.9067C19.2268 22.8831 19.2687 22.853 19.3063 22.8162C19.3443 22.779 19.3774 22.7368 19.4056 22.6897C19.4341 22.6423 19.4572 22.5936 19.475 22.5441L19.5105 22.5577L19.3633 23.1013C19.3561 23.0872 19.3448 23.0785 19.3295 23.0752C19.3144 23.0718 19.2925 23.0703 19.2641 23.0703H18.4436V23.0213C18.4551 23.0213 18.4668 23.0195 18.4785 23.0157C18.4905 23.012 18.5012 23.0038 18.5107 22.991C18.52 22.9778 18.5273 22.9587 18.5326 22.9339C18.5383 22.9091 18.5411 22.8768 18.5411 22.8366V22.0222C18.5411 21.9817 18.538 21.9493 18.5321 21.9249C18.526 21.9001 18.5186 21.8813 18.5095 21.8685C18.5008 21.8553 18.4905 21.8468 18.4785 21.843C18.4668 21.839 18.4551 21.8368 18.4436 21.8368V21.7879H19.0001Z" fill="#1F7159"/>
<path d="M20.6792 21.7879L20.6808 21.8368C20.6676 21.8368 20.6555 21.839 20.6442 21.843C20.6332 21.8468 20.6229 21.8553 20.6132 21.8685C20.6037 21.8813 20.5964 21.9001 20.5912 21.9249C20.5858 21.9493 20.5833 21.9817 20.5833 22.0222V22.8304C20.5833 22.8475 20.5847 22.8627 20.5878 22.8763C20.5908 22.8899 20.597 22.9017 20.6064 22.9116C20.6157 22.9212 20.629 22.9287 20.6459 22.9339C20.6631 22.9389 20.6855 22.9414 20.713 22.9414C20.7649 22.9414 20.8136 22.9299 20.8596 22.9067C20.9058 22.8831 20.9477 22.853 20.9854 22.8162C21.0233 22.779 21.0564 22.7368 21.0846 22.6897C21.1131 22.6423 21.1362 22.5936 21.154 22.5441L21.1895 22.5577L21.0423 23.1013C21.0351 23.0872 21.0238 23.0785 21.0085 23.0752C20.9934 23.0718 20.9715 23.0703 20.9431 23.0703H20.1226V23.0213C20.1341 23.0213 20.1458 23.0195 20.1575 23.0157C20.1695 23.012 20.1802 23.0038 20.1897 22.991C20.199 22.9778 20.2063 22.9587 20.2117 22.9339C20.2173 22.9091 20.2201 22.8768 20.2201 22.8366V22.0222C20.2201 21.9817 20.217 21.9493 20.2111 21.9249C20.205 21.9001 20.1976 21.8813 20.1885 21.8685C20.1798 21.8553 20.1695 21.8468 20.1575 21.843C20.1458 21.839 20.1341 21.8368 20.1226 21.8368V21.7879H20.6792Z" fill="#1F7159"/>
<path d="M22.4591 21.7879V21.8368C22.4377 21.8381 22.4227 21.8443 22.4146 21.8554C22.4062 21.8663 22.4022 21.8776 22.4022 21.8895C22.4022 21.9066 22.4098 21.9276 22.4253 21.9528C22.4406 21.978 22.4566 22.0003 22.4732 22.0197L22.679 22.2769V22.024C22.679 21.9811 22.6751 21.9472 22.6672 21.9224C22.6596 21.8976 22.6504 21.8788 22.6396 21.866C22.629 21.8533 22.6176 21.8452 22.6052 21.8418C22.5928 21.8386 22.5812 21.8368 22.5708 21.8368V21.7879H22.9272V21.8368C22.9139 21.8368 22.9018 21.839 22.8905 21.843C22.8795 21.8468 22.8692 21.8553 22.8595 21.8685C22.85 21.8813 22.8427 21.9001 22.8375 21.9249C22.8321 21.9493 22.8296 21.9817 22.8296 22.0222V22.8348C22.8296 22.8761 22.8321 22.909 22.8375 22.9333C22.8427 22.9573 22.8499 22.9755 22.8589 22.9879C22.8679 22.9999 22.8782 23.0082 22.8899 23.0126C22.9015 23.0173 22.9139 23.0195 22.9272 23.0195V23.0684H22.5708V23.0213C22.5992 23.0164 22.6215 23.0049 22.6373 22.9866C22.6531 22.9685 22.661 22.9431 22.661 22.9104C22.661 22.865 22.6511 22.8264 22.6317 22.7945C22.6125 22.7627 22.5911 22.7312 22.5674 22.7003L22.03 22.0197V22.8366C22.03 22.8768 22.0325 22.9091 22.0379 22.9339C22.0431 22.9587 22.0503 22.9778 22.0593 22.991C22.0683 23.0038 22.0782 23.012 22.0892 23.0157C22.1005 23.0195 22.1126 23.0213 22.1258 23.0213V23.0703H21.7818V23.0213C21.7934 23.0213 21.8051 23.0195 21.8168 23.0157C21.8288 23.012 21.8395 23.0038 21.8489 22.991C21.8587 22.9778 21.8661 22.9587 21.8715 22.9339C21.8767 22.9091 21.8794 22.8768 21.8794 22.8366V22.0222C21.8794 21.9817 21.8763 21.9493 21.8704 21.9249C21.8643 21.9001 21.8568 21.8813 21.8478 21.8685C21.8391 21.8553 21.8288 21.8468 21.8168 21.843C21.8051 21.839 21.7934 21.8368 21.7818 21.8368V21.7879H22.4591Z" fill="#1F7159"/>
<path d="M24.3613 21.7879C24.3861 21.7879 24.4058 21.7873 24.4205 21.786C24.4354 21.7848 24.4477 21.7829 24.4572 21.7805C24.4665 21.7777 24.4738 21.7743 24.4792 21.7705C24.4848 21.7668 24.4899 21.7623 24.4944 21.7569L24.5852 22.205L24.5457 22.2187C24.5186 22.1241 24.4707 22.0501 24.4019 21.9968C24.3334 21.9435 24.2537 21.9168 24.1628 21.9168C24.1274 21.9168 24.0991 21.9196 24.0776 21.9249C24.0565 21.9298 24.0404 21.9397 24.0291 21.9546C24.0179 21.9695 24.0103 21.9904 24.0066 22.0172C24.0032 22.0437 24.0015 22.079 24.0015 22.1232V22.2069H24.0619C24.0761 22.2069 24.092 22.2069 24.1098 22.2069C24.1274 22.2069 24.145 22.2056 24.1628 22.2032C24.1804 22.2007 24.1975 22.1968 24.2141 22.1914C24.2306 22.1861 24.2443 22.1782 24.2553 22.1678C24.279 22.146 24.2908 22.1065 24.2908 22.0495L24.3263 22.0433L24.4042 22.5385L24.3686 22.5422C24.352 22.498 24.3339 22.4623 24.3145 22.435C24.2949 22.4077 24.2728 22.3866 24.2479 22.3718C24.2231 22.3569 24.1947 22.3473 24.1628 22.3426C24.1308 22.3381 24.0947 22.3358 24.0545 22.3358H24.0015V22.7684C24.0015 22.8371 24.0148 22.8831 24.0416 22.9067C24.0682 22.9299 24.1122 22.9414 24.1735 22.9414C24.2279 22.9414 24.277 22.9333 24.3207 22.9172C24.3643 22.9011 24.4026 22.8806 24.4357 22.8558C24.4687 22.831 24.4973 22.8042 24.5214 22.7753C24.5458 22.746 24.566 22.7176 24.5818 22.6903C24.5979 22.6631 24.6107 22.6394 24.6201 22.6191C24.6299 22.5989 24.6365 22.5856 24.6399 22.5794L24.6771 22.5949L24.5265 23.1013C24.5205 23.0951 24.5109 23.0883 24.4978 23.0808C24.4849 23.0737 24.462 23.0703 24.429 23.0703H23.5408V23.0213C23.5524 23.0213 23.5641 23.0195 23.5758 23.0158C23.5877 23.012 23.5985 23.0038 23.6079 22.991C23.6172 22.9778 23.6245 22.9587 23.6299 22.9339C23.6355 22.9091 23.6384 22.8768 23.6384 22.8366V22.0222C23.6384 21.9817 23.6355 21.9494 23.6299 21.9249C23.6245 21.9001 23.6172 21.8815 23.6079 21.8691C23.5985 21.8567 23.5877 21.8483 23.5758 21.8437C23.5641 21.8392 23.5524 21.8369 23.5408 21.8369V21.7879H24.3613Z" fill="#1F7159"/>
<path d="M26.1343 21.7978C26.1508 21.7978 26.1696 21.7947 26.1907 21.7885C26.2122 21.782 26.2299 21.7696 26.2443 21.7513L26.2906 22.174L26.2533 22.1796C26.2412 22.1458 26.224 22.1127 26.2015 22.0804C26.1792 22.0479 26.1532 22.0194 26.1236 21.9949C26.0943 21.9701 26.0622 21.9503 26.0272 21.9354C25.9922 21.9202 25.9564 21.9125 25.9201 21.9125C25.8986 21.9125 25.8764 21.9156 25.8535 21.9218C25.8305 21.9277 25.8095 21.9366 25.7904 21.949C25.7715 21.9611 25.756 21.9769 25.7436 21.9968C25.7311 22.0163 25.7249 22.0395 25.7249 22.0668C25.7249 22.0851 25.7278 22.1009 25.7334 22.1145C25.7393 22.1282 25.7495 22.1406 25.7639 22.1517C25.7781 22.1626 25.7971 22.1728 25.8208 22.1827C25.8445 22.1923 25.874 22.203 25.9093 22.2149L26.1169 22.2831C26.1582 22.2972 26.1969 22.3154 26.233 22.3377C26.2691 22.3597 26.3003 22.3859 26.3266 22.4164C26.3533 22.4471 26.374 22.4805 26.3887 22.5168C26.4036 22.5532 26.4112 22.5916 26.4112 22.6321C26.4112 22.7855 26.3622 22.902 26.264 22.9817C26.1659 23.0615 26.0193 23.1013 25.8242 23.1013C25.7746 23.1013 25.728 23.0979 25.6849 23.0914C25.642 23.0852 25.6057 23.0787 25.5761 23.0722C25.5558 23.0684 25.5352 23.0644 25.5146 23.0598C25.4939 23.0553 25.4753 23.0529 25.4588 23.0529C25.4421 23.0529 25.4262 23.0563 25.4108 23.0629C25.3958 23.0691 25.38 23.0811 25.3635 23.0994L25.324 22.5558L25.3635 22.5503C25.3716 22.6073 25.3879 22.66 25.412 22.7083C25.4364 22.7564 25.4668 22.7979 25.5033 22.8329C25.5397 22.8676 25.5813 22.8952 25.6279 22.9153C25.6749 22.9356 25.7249 22.9457 25.778 22.9457C25.8276 22.9457 25.8685 22.9406 25.9009 22.9302C25.9336 22.9195 25.9598 22.9054 25.9798 22.8881C26.0001 22.8707 26.0144 22.8503 26.0227 22.8267C26.0309 22.8031 26.0351 22.7787 26.0351 22.7529C26.0351 22.741 26.0331 22.7288 26.0295 22.7164C26.0261 22.704 26.0183 22.691 26.0063 22.6773C25.9946 22.6637 25.977 22.6499 25.9533 22.6358C25.9299 22.6214 25.8982 22.6071 25.858 22.593L25.668 22.5248C25.6112 22.5055 25.5631 22.4849 25.5236 22.4629C25.4842 22.4406 25.4526 22.4125 25.4289 22.3786C25.4089 22.3513 25.3929 22.3215 25.381 22.2893C25.3693 22.2568 25.3635 22.2214 25.3635 22.1833C25.3635 22.1186 25.3733 22.0603 25.3934 22.0085C25.4137 21.9565 25.4444 21.9117 25.4858 21.874C25.5245 21.839 25.5717 21.8107 25.6274 21.7891C25.6829 21.7677 25.7444 21.7569 25.8118 21.7569C25.8734 21.7569 25.9281 21.7609 25.9759 21.7687C26.0235 21.7766 26.0605 21.7835 26.0864 21.7897C26.109 21.7952 26.1249 21.7978 26.1343 21.7978Z" fill="#1F7159"/>
<path d="M27.8843 21.7978C27.9008 21.7978 27.9195 21.7947 27.9407 21.7885C27.9621 21.782 27.9799 21.7696 27.9942 21.7513L28.0405 22.174L28.0033 22.1796C27.9911 22.1458 27.9739 22.1127 27.9514 22.0804C27.9291 22.0479 27.9032 22.0194 27.8736 21.9949C27.8442 21.9701 27.8121 21.9503 27.7771 21.9354C27.7422 21.9202 27.7064 21.9125 27.67 21.9125C27.6486 21.9125 27.6263 21.9156 27.6034 21.9218C27.5805 21.9277 27.5595 21.9366 27.5403 21.949C27.5214 21.9611 27.5059 21.9769 27.4935 21.9968C27.4811 22.0163 27.4749 22.0395 27.4749 22.0668C27.4749 22.0851 27.4777 22.1009 27.4833 22.1145C27.4893 22.1282 27.4994 22.1406 27.5138 22.1517C27.528 22.1626 27.5471 22.1728 27.5707 22.1827C27.5944 22.1923 27.6239 22.203 27.6593 22.2149L27.8668 22.2831C27.9081 22.2972 27.9469 22.3154 27.983 22.3377C28.0191 22.3597 28.0502 22.3859 28.0766 22.4164C28.1032 22.4471 28.1239 22.4805 28.1386 22.5168C28.1535 22.5532 28.1612 22.5916 28.1612 22.6321C28.1612 22.7855 28.1121 22.902 28.014 22.9817C27.9159 23.0615 27.7692 23.1013 27.5741 23.1013C27.5245 23.1013 27.478 23.0979 27.4348 23.0914C27.392 23.0852 27.3556 23.0787 27.326 23.0722C27.3057 23.0684 27.2851 23.0644 27.2645 23.0598C27.2438 23.0553 27.2252 23.0529 27.2087 23.0529C27.1921 23.0529 27.1761 23.0563 27.1608 23.0629C27.1457 23.0691 27.1299 23.0811 27.1134 23.0994L27.0739 22.5558L27.1134 22.5503C27.1216 22.6073 27.1378 22.66 27.1619 22.7083C27.1863 22.7564 27.2167 22.7979 27.2533 22.8329C27.2896 22.8676 27.3312 22.8952 27.3779 22.9153C27.4248 22.9356 27.4749 22.9457 27.5279 22.9457C27.5775 22.9457 27.6184 22.9406 27.6508 22.9302C27.6835 22.9195 27.7097 22.9054 27.7298 22.8881C27.7501 22.8707 27.7643 22.8503 27.7726 22.8267C27.7808 22.8031 27.785 22.7787 27.785 22.7529C27.785 22.741 27.7831 22.7288 27.7794 22.7164C27.776 22.704 27.7683 22.691 27.7563 22.6773C27.7446 22.6637 27.7269 22.6499 27.7033 22.6358C27.6799 22.6214 27.6481 22.6071 27.608 22.593L27.4179 22.5248C27.3611 22.5055 27.313 22.4849 27.2736 22.4629C27.2341 22.4406 27.2025 22.4125 27.1788 22.3786C27.1588 22.3513 27.1429 22.3215 27.1309 22.2893C27.1192 22.2568 27.1134 22.2214 27.1134 22.1833C27.1134 22.1186 27.1233 22.0603 27.1433 22.0085C27.1636 21.9565 27.1943 21.9117 27.2358 21.874C27.2744 21.839 27.3216 21.8107 27.3773 21.7891C27.4329 21.7677 27.4943 21.7569 27.5617 21.7569C27.6233 21.7569 27.678 21.7609 27.7258 21.7687C27.7735 21.7766 27.8104 21.7835 27.8363 21.7897C27.8589 21.7952 27.8748 21.7978 27.8843 21.7978Z" fill="#1F7159"/>
<path d="M15.4573 25.0144C15.4975 25.0144 15.5269 24.9968 15.5458 24.9617L15.6468 25.5152L15.6096 25.5269C15.594 25.4786 15.574 25.4315 15.5492 25.3856C15.5244 25.3395 15.4951 25.2985 15.4612 25.2629C15.4277 25.227 15.3898 25.1981 15.3473 25.1761C15.3048 25.1538 15.258 25.1427 15.2069 25.1427C15.1517 25.1427 15.1033 25.1555 15.062 25.1811C15.0205 25.2063 14.986 25.2394 14.9582 25.2803C14.9303 25.3212 14.9093 25.3681 14.8951 25.421C14.8807 25.4735 14.8736 25.5269 14.8736 25.5815C14.8736 25.6683 14.8855 25.7473 14.9092 25.8183C14.9329 25.8889 14.965 25.9494 15.0056 25.9993C15.0465 26.0493 15.0939 26.0879 15.1477 26.1152C15.2014 26.1424 15.2585 26.1561 15.3191 26.1561C15.4006 26.1561 15.4725 26.1325 15.5346 26.0854C15.5966 26.038 15.6423 25.9731 15.6716 25.8908L15.7128 25.9069L15.5723 26.3333C15.5651 26.3217 15.556 26.3137 15.5447 26.3092C15.5337 26.3045 15.5171 26.3023 15.4945 26.3023C15.4824 26.3023 15.4663 26.3031 15.446 26.3048C15.426 26.3068 15.4043 26.3092 15.3806 26.3116C15.3572 26.3144 15.3328 26.3168 15.3073 26.3185C15.2821 26.3205 15.2582 26.3216 15.2357 26.3216C15.1376 26.3216 15.0431 26.3073 14.9526 26.2788C14.8624 26.2503 14.7826 26.2069 14.7135 26.1486C14.6443 26.0901 14.5886 26.0169 14.5466 25.9292C14.5048 25.8417 14.484 25.7386 14.484 25.6199C14.484 25.5163 14.501 25.4245 14.5353 25.3447C14.5694 25.2646 14.6165 25.1972 14.6763 25.1427C14.736 25.0881 14.8054 25.0471 14.8844 25.0193C14.9636 24.9913 15.0482 24.9772 15.1381 24.9772C15.1877 24.9772 15.2296 24.9795 15.2639 24.984C15.298 24.9886 15.3306 24.9942 15.3614 25.0007C15.3813 25.0044 15.3989 25.0078 15.4144 25.0106C15.4298 25.0131 15.444 25.0144 15.4573 25.0144Z" fill="#1F7159"/>
<path d="M16.794 25.1427C16.7669 25.1427 16.737 25.1523 16.7043 25.1712C16.6719 25.1898 16.642 25.2263 16.6147 25.2809C16.598 25.3148 16.5851 25.3553 16.5758 25.4024C16.5663 25.4492 16.5617 25.5062 16.5617 25.5734C16.5617 25.6711 16.5696 25.7561 16.5854 25.8288C16.6014 25.9016 16.6229 25.9624 16.6496 26.011C16.6763 26.0598 16.7069 26.0963 16.7416 26.1201C16.7765 26.1441 16.8122 26.1561 16.8487 26.1561C16.8607 26.1561 16.8752 26.1542 16.8921 26.1505C16.9093 26.1465 16.9274 26.1381 16.9463 26.1257C16.9654 26.1133 16.984 26.0952 17.0021 26.0712C17.0204 26.0473 17.0362 26.0158 17.0495 25.9769C17.0588 25.9472 17.0664 25.9119 17.072 25.8709C17.0779 25.8297 17.081 25.7817 17.081 25.7271C17.081 25.6168 17.0729 25.5268 17.0568 25.4569C17.041 25.3867 17.0201 25.3295 16.9942 25.2852C16.9611 25.2294 16.9268 25.1919 16.8916 25.1724C16.8562 25.1526 16.8236 25.1427 16.794 25.1427ZM16.1714 25.6453C16.1714 25.5404 16.1885 25.4467 16.2228 25.3639C16.2573 25.2813 16.3041 25.2113 16.3632 25.1538C16.4221 25.096 16.4915 25.0522 16.5713 25.0224C16.6513 24.9924 16.7368 24.9772 16.8278 24.9772C16.9364 24.9772 17.0321 24.9951 17.1149 25.0311C17.1975 25.0667 17.2656 25.1169 17.319 25.1817C17.3709 25.2442 17.4092 25.3168 17.4341 25.3999C17.4589 25.4829 17.4713 25.5694 17.4713 25.659C17.4713 25.7566 17.4563 25.8443 17.4267 25.9224C17.3974 26.0002 17.362 26.0637 17.3207 26.1133C17.2898 26.1485 17.2553 26.1795 17.2169 26.2063C17.1786 26.2328 17.1374 26.2545 17.0934 26.2714C17.0497 26.2879 17.0052 26.3002 16.9598 26.3085C16.9143 26.3172 16.8703 26.3216 16.8278 26.3216C16.7827 26.3216 16.7383 26.318 16.6948 26.311C16.6511 26.3039 16.6109 26.2938 16.5741 26.2807C16.5067 26.2588 16.449 26.2284 16.401 26.1895C16.3532 26.1503 16.3141 26.1062 16.2837 26.0569C16.2456 25.9983 16.2174 25.9336 16.1991 25.8629C16.1806 25.7922 16.1714 25.7197 16.1714 25.6453Z" fill="#1F7159"/>
<path d="M18.5439 25.0082V25.0571C18.5356 25.0596 18.5267 25.0646 18.5174 25.072C18.5079 25.0791 18.5033 25.0897 18.5033 25.1036C18.5033 25.114 18.5047 25.1259 18.5078 25.1396C18.5107 25.1532 18.5186 25.1752 18.5315 25.2053L18.6381 25.4699L18.7655 25.1935C18.7809 25.1597 18.7893 25.1365 18.7909 25.1241C18.7927 25.1117 18.7937 25.1048 18.7937 25.1036C18.7937 25.0805 18.7837 25.065 18.7638 25.0571V25.0082H19.326V25.0571C19.3128 25.0571 19.3007 25.0593 19.2894 25.0633C19.2781 25.067 19.2677 25.0756 19.2584 25.0887C19.2489 25.1016 19.2416 25.1203 19.2364 25.1451C19.231 25.1696 19.2285 25.202 19.2285 25.2424V26.0569C19.2285 26.0983 19.2313 26.1311 19.2369 26.1554C19.2429 26.1795 19.2502 26.1981 19.2589 26.2112C19.2679 26.2241 19.2782 26.2323 19.2899 26.236C19.3019 26.2397 19.3139 26.2416 19.326 26.2416V26.2906H18.7638V26.2416C18.7754 26.2416 18.7871 26.2397 18.7988 26.236C18.8108 26.2323 18.8215 26.2242 18.8309 26.2118C18.8406 26.1994 18.8487 26.1809 18.8552 26.1561C18.8615 26.1313 18.8647 26.0983 18.8647 26.0569V25.2672L18.5247 26.0352L18.1909 25.2672V26.047C18.1909 26.0888 18.1938 26.1223 18.1999 26.1474C18.2058 26.1726 18.2136 26.192 18.223 26.2056C18.2323 26.2193 18.2435 26.2289 18.2563 26.2342C18.2694 26.2391 18.2831 26.2416 18.2974 26.2416V26.2906H17.9467V26.2416C17.9594 26.2416 17.9716 26.2394 17.9833 26.2348C17.9953 26.2303 18.0055 26.2216 18.0138 26.2087C18.022 26.196 18.0285 26.1776 18.033 26.1536C18.0378 26.1293 18.0403 26.0976 18.0403 26.0587V25.24C18.0403 25.2012 18.0378 25.1698 18.033 25.1458C18.0285 25.1219 18.0217 25.1034 18.0127 25.0906C18.0039 25.0774 17.9941 25.0686 17.9828 25.0639C17.9715 25.0594 17.9594 25.0571 17.9467 25.0571V25.0082H18.5439Z" fill="#1F7159"/>
<path d="M20.3771 25.0082V25.0571C20.3688 25.0596 20.3599 25.0646 20.3506 25.072C20.3412 25.0791 20.3365 25.0897 20.3365 25.1036C20.3365 25.114 20.3379 25.1259 20.341 25.1396C20.344 25.1532 20.3519 25.1752 20.3647 25.2053L20.4713 25.4699L20.5988 25.1935C20.6141 25.1597 20.6226 25.1365 20.6241 25.1241C20.626 25.1117 20.6269 25.1048 20.6269 25.1036C20.6269 25.0805 20.6169 25.065 20.5971 25.0571V25.0082H21.1593V25.0571C21.146 25.0571 21.1339 25.0593 21.1226 25.0633C21.1114 25.067 21.1009 25.0756 21.0916 25.0887C21.0822 25.1016 21.0748 25.1203 21.0696 25.1451C21.0643 25.1696 21.0617 25.202 21.0617 25.2424V26.0569C21.0617 26.0983 21.0645 26.1311 21.0702 26.1554C21.0761 26.1795 21.0834 26.1981 21.0922 26.2112C21.1012 26.2241 21.1115 26.2323 21.1232 26.236C21.1352 26.2397 21.1472 26.2416 21.1593 26.2416V26.2906H20.5971V26.2416C20.6086 26.2416 20.6203 26.2397 20.632 26.236C20.644 26.2323 20.6547 26.2242 20.6642 26.2118C20.6739 26.1994 20.6819 26.1809 20.6884 26.1561C20.6948 26.1313 20.698 26.0983 20.698 26.0569V25.2672L20.358 26.0352L20.0241 25.2672V26.047C20.0241 26.0888 20.0271 26.1223 20.0331 26.1474C20.0391 26.1726 20.0468 26.192 20.0563 26.2056C20.0656 26.2193 20.0767 26.2289 20.0895 26.2342C20.1026 26.2391 20.1163 26.2416 20.1307 26.2416V26.2906H19.7799V26.2416C19.7926 26.2416 19.8049 26.2394 19.8166 26.2348C19.8286 26.2303 19.8387 26.2216 19.8471 26.2087C19.8552 26.196 19.8617 26.1776 19.8662 26.1536C19.871 26.1293 19.8736 26.0976 19.8736 26.0587V25.24C19.8736 25.2012 19.871 25.1698 19.8662 25.1458C19.8617 25.1219 19.8549 25.1034 19.8459 25.0906C19.8372 25.0774 19.8273 25.0686 19.816 25.0639C19.8048 25.0594 19.7926 25.0571 19.7799 25.0571V25.0082H20.3771Z" fill="#1F7159"/>
<path d="M22.1749 25.0082V25.0571C22.162 25.0571 22.1496 25.0594 22.1376 25.0639C22.1259 25.0686 22.1156 25.0774 22.1066 25.0906C22.0979 25.1034 22.0908 25.1219 22.0852 25.1458C22.0798 25.1698 22.0773 25.202 22.0773 25.2424V26.0569C22.0773 26.0983 22.0798 26.1311 22.0852 26.1554C22.0908 26.1795 22.0979 26.1976 22.1066 26.21C22.1156 26.2221 22.1259 26.2303 22.1376 26.2348C22.1496 26.2394 22.162 26.2416 22.1749 26.2416V26.2906H21.6166V26.2416C21.6293 26.2416 21.6415 26.2394 21.6532 26.2348C21.6652 26.2303 21.6755 26.2216 21.6843 26.2087C21.6933 26.196 21.7003 26.1776 21.7057 26.1536C21.7113 26.1293 21.7141 26.097 21.7141 26.0569V25.2424C21.7141 25.202 21.711 25.1696 21.7051 25.1451C21.6991 25.1203 21.6916 25.1016 21.6826 25.0887C21.6738 25.0756 21.6635 25.067 21.6515 25.0633C21.6398 25.0593 21.6281 25.0571 21.6166 25.0571V25.0082H22.1749Z" fill="#1F7159"/>
<path d="M22.6783 24.9772C22.6797 24.9796 22.6822 24.9831 22.6856 24.9871C22.689 24.9908 22.6952 24.9944 22.7042 24.9976C22.7132 25.001 22.7256 25.0037 22.7414 25.0057C22.7575 25.0074 22.7792 25.0082 22.8063 25.0082H23.4711C23.4993 25.0082 23.5219 25.0075 23.5388 25.0063C23.556 25.0051 23.5694 25.0032 23.5788 25.0007C23.5886 24.9979 23.5957 24.9945 23.6003 24.9908C23.6051 24.9871 23.6093 24.9826 23.6127 24.9772L23.6944 25.4216L23.6589 25.429C23.628 25.341 23.5863 25.2744 23.5337 25.2288C23.4814 25.1829 23.4121 25.1569 23.3256 25.1507V26.047C23.3256 26.1223 23.3365 26.1733 23.3583 26.2001C23.3801 26.2266 23.4159 26.2404 23.4655 26.2416V26.2906H22.8221V26.2416C22.8717 26.2404 22.9073 26.2266 22.9292 26.2001C22.9513 26.1733 22.9625 26.1223 22.9625 26.047V25.1507C22.882 25.1532 22.8119 25.1771 22.7521 25.222C22.6924 25.2666 22.6512 25.3357 22.6286 25.429L22.5914 25.4216L22.6783 24.9772Z" fill="#1F7159"/>
<path d="M24.1569 24.9772C24.1583 24.9796 24.1609 24.9831 24.1643 24.9871C24.1676 24.9908 24.1738 24.9944 24.1829 24.9976C24.1919 25.001 24.2043 25.0037 24.2201 25.0057C24.2362 25.0074 24.2579 25.0082 24.2849 25.0082H24.9498C24.978 25.0082 25.0005 25.0075 25.0175 25.0063C25.0347 25.0051 25.0481 25.0032 25.0575 25.0007C25.0672 24.9979 25.0744 24.9945 25.0789 24.9908C25.0837 24.9871 25.088 24.9826 25.0913 24.9772L25.1731 25.4216L25.1376 25.429C25.1067 25.341 25.065 25.2744 25.0124 25.2288C24.9601 25.1829 24.8907 25.1569 24.8043 25.1507V26.047C24.8043 26.1223 24.8152 26.1733 24.837 26.2001C24.8587 26.2266 24.8945 26.2404 24.9442 26.2416V26.2906H24.3007V26.2416C24.3504 26.2404 24.386 26.2266 24.4079 26.2001C24.43 26.1733 24.4411 26.1223 24.4411 26.047V25.1507C24.3606 25.1532 24.2906 25.1771 24.2308 25.222C24.171 25.2666 24.1299 25.3357 24.1073 25.429L24.0701 25.4216L24.1569 24.9772Z" fill="#1F7159"/>
<path d="M26.4104 25.0082C26.4352 25.0082 26.455 25.0075 26.4696 25.0063C26.4846 25.0051 26.4968 25.0032 26.5063 25.0007C26.5156 24.9979 26.5229 24.9945 26.5283 24.9908C26.5339 24.9871 26.539 24.9826 26.5435 24.9772L26.6343 25.4253L26.5948 25.4389C26.5677 25.3444 26.5198 25.2703 26.451 25.217C26.3825 25.1637 26.3028 25.1371 26.2119 25.1371C26.1765 25.1371 26.1482 25.1399 26.1268 25.1451C26.1056 25.1501 26.0895 25.16 26.0783 25.1749C26.067 25.1898 26.0594 25.2107 26.0557 25.2375C26.0523 25.264 26.0506 25.2993 26.0506 25.3435V25.4272H26.111C26.1252 25.4272 26.1411 25.4272 26.1589 25.4272C26.1765 25.4272 26.1941 25.4259 26.2119 25.4234C26.2295 25.421 26.2466 25.4171 26.2632 25.4117C26.2797 25.4064 26.2934 25.3985 26.3044 25.3881C26.3281 25.3663 26.3399 25.3267 26.3399 25.2697L26.3754 25.2635L26.4533 25.7588L26.4177 25.7625C26.4011 25.7183 26.3831 25.6825 26.3636 25.6553C26.344 25.628 26.3219 25.6069 26.2971 25.592C26.2722 25.5772 26.2438 25.5675 26.2119 25.5629C26.1799 25.5584 26.1438 25.5561 26.1036 25.5561H26.0506V25.9887C26.0506 26.0574 26.0639 26.1034 26.0907 26.1269C26.1173 26.1502 26.1613 26.1616 26.2226 26.1616C26.277 26.1616 26.3261 26.1536 26.3698 26.1375C26.4134 26.1214 26.4517 26.1009 26.4848 26.0761C26.5178 26.0513 26.5465 26.0245 26.5706 25.9955C26.5949 25.9662 26.6151 25.9379 26.6309 25.9106C26.647 25.8833 26.6598 25.8596 26.6692 25.8393C26.679 25.8192 26.6856 25.8059 26.689 25.7997L26.7262 25.8152L26.5756 26.3216C26.5696 26.3154 26.56 26.3085 26.5469 26.3011C26.534 26.294 26.5111 26.2906 26.4781 26.2906H25.5899V26.2416C25.6015 26.2416 25.6132 26.2397 25.6249 26.236C25.6369 26.2323 25.6476 26.2241 25.657 26.2112C25.6663 26.1981 25.6736 26.179 25.679 26.1542C25.6846 26.1294 25.6875 26.097 25.6875 26.0569V25.2424C25.6875 25.202 25.6846 25.1696 25.679 25.1451C25.6736 25.1203 25.6663 25.1017 25.657 25.0894C25.6476 25.077 25.6369 25.0686 25.6249 25.0639C25.6132 25.0594 25.6015 25.0571 25.5899 25.0571V25.0082H26.4104Z" fill="#1F7159"/>
<path d="M27.9954 25.0082C28.0203 25.0082 28.04 25.0075 28.0547 25.0063C28.0696 25.0051 28.0819 25.0032 28.0913 25.0007C28.1006 24.9979 28.1079 24.9945 28.1133 24.9908C28.1189 24.9871 28.124 24.9826 28.1285 24.9772L28.2193 25.4253L28.1798 25.4389C28.1528 25.3444 28.1048 25.2703 28.036 25.217C27.9675 25.1637 27.8879 25.1371 27.7969 25.1371C27.7616 25.1371 27.7332 25.1399 27.7118 25.1451C27.6906 25.1501 27.6746 25.16 27.6633 25.1749C27.652 25.1898 27.6444 25.2107 27.6407 25.2375C27.6374 25.264 27.6357 25.2993 27.6357 25.3435V25.4272H27.696C27.7102 25.4272 27.7262 25.4272 27.7439 25.4272C27.7616 25.4272 27.7792 25.4259 27.7969 25.4234C27.8146 25.421 27.8316 25.4171 27.8483 25.4117C27.8648 25.4064 27.8784 25.3985 27.8894 25.3881C27.9131 25.3663 27.925 25.3267 27.925 25.2697L27.9605 25.2635L28.0383 25.7588L28.0028 25.7625C27.9861 25.7183 27.9681 25.6825 27.9486 25.6553C27.929 25.628 27.9069 25.6069 27.8821 25.592C27.8573 25.5772 27.8288 25.5675 27.7969 25.5629C27.7649 25.5584 27.7289 25.5561 27.6887 25.5561H27.6357V25.9887C27.6357 26.0574 27.6489 26.1034 27.6757 26.1269C27.7023 26.1502 27.7463 26.1616 27.8077 26.1616C27.8621 26.1616 27.9111 26.1536 27.9548 26.1375C27.9984 26.1214 28.0368 26.1009 28.0699 26.0761C28.1029 26.0513 28.1315 26.0245 28.1556 25.9955C28.18 25.9662 28.2001 25.9379 28.2159 25.9106C28.232 25.8833 28.2448 25.8596 28.2543 25.8393C28.264 25.8192 28.2706 25.8059 28.274 25.7997L28.3112 25.8152L28.1607 26.3216C28.1546 26.3154 28.145 26.3085 28.1319 26.3011C28.1191 26.294 28.0961 26.2906 28.0631 26.2906H27.1749V26.2416C27.1865 26.2416 27.1982 26.2397 27.2099 26.236C27.2219 26.2323 27.2326 26.2241 27.2421 26.2112C27.2514 26.1981 27.2587 26.179 27.264 26.1542C27.2697 26.1294 27.2725 26.097 27.2725 26.0569V25.2424C27.2725 25.202 27.2697 25.1696 27.264 25.1451C27.2587 25.1203 27.2514 25.1017 27.2421 25.0894C27.2326 25.077 27.2219 25.0686 27.2099 25.0639C27.1982 25.0594 27.1865 25.0571 27.1749 25.0571V25.0082H27.9954Z" fill="#1F7159"/>
</g>
<defs>
<clipPath id="clip0_101_2">
<rect width="32" height="32" fill="white"/>
</clipPath>
</defs>
</svg>
